<svg width="46.000000" height="46.000000" viewBox="0 0 46 46" fill="none" xmlns="http://www.w3.org/2000/svg" xmlns:xlink="http://www.w3.org/1999/xlink">
	<desc>
			Created with Pixso.
	</desc>
	<defs>
		<linearGradient id="paint_linear_52_1553_0" x1="0.000000" y1="22.999996" x2="45.999992" y2="22.999996" gradientUnits="userSpaceOnUse">
			<stop stop-color="#0CBAF1"/>
			<stop offset="1.000000" stop-color="#E95CE9"/>
		</linearGradient>
	</defs>
	<circle id="BG" cx="23.000000" cy="23.000000" r="22.999996" fill="#18181B" fill-opacity="1.000000"/>
	<circle id="BG" cx="23.000000" cy="23.000000" r="22.499996" stroke="url(#paint_linear_52_1553_0)" stroke-opacity="1.000000" stroke-width="1.000000"/>
	<path id="Vector" d="M33.2009 18.043C32.5126 18.3496 31.7859 18.541 31.021 18.6543C31.7859 18.1953 32.3978 17.4688 32.6655 16.5898C31.9388 17.0098 31.1357 17.3164 30.2561 17.5078C29.5677 16.7812 28.5734 16.3223 27.5026 16.3223C25.4374 16.3223 23.7546 18.0059 23.7546 20.0703C23.7546 20.377 23.7928 20.6445 23.8694 20.9121C20.7716 20.7578 17.9797 19.2676 16.1058 16.9727C15.7998 17.5469 15.6086 18.1582 15.6086 18.8457C15.6086 20.1465 16.2588 21.2949 17.2914 21.9824C16.6794 21.9434 16.1058 21.791 15.5704 21.5234L15.5704 21.5625C15.5704 23.3965 16.8707 24.9277 18.5917 25.2715C18.2858 25.3477 17.9415 25.3867 17.5973 25.3867C17.3679 25.3867 17.1001 25.3477 16.8707 25.3105C17.3679 26.8008 18.7446 27.9102 20.3892 27.9102C19.0889 28.9043 17.4825 29.5156 15.7234 29.5156C15.4174 29.5156 15.1115 29.5156 14.8438 29.4785C16.5265 30.5488 18.4769 31.1602 20.6187 31.1602C27.5408 31.1602 31.3269 25.4238 31.3269 20.4531C31.3269 20.2988 31.3269 20.1094 31.3269 19.9551C32.0536 19.459 32.7037 18.8086 33.2009 18.043Z" fill="#FFFFFF" fill-opacity="1.000000" fill-rule="nonzero"/>
</svg>
