<svg width="46.000000" height="46.000000" viewBox="0 0 46 46" fill="none" xmlns="http://www.w3.org/2000/svg" xmlns:xlink="http://www.w3.org/1999/xlink">
	<desc>
			Created with Pixso.
	</desc>
	<defs>
		<linearGradient id="paint_linear_52_1563_0" x1="0.000000" y1="22.999996" x2="45.999992" y2="22.999996" gradientUnits="userSpaceOnUse">
			<stop stop-color="#0CBAF1"/>
			<stop offset="1.000000" stop-color="#E95CE9"/>
		</linearGradient>
	</defs>
	<circle id="BG" cx="23.000000" cy="23.000000" r="22.999996" fill="#18181B" fill-opacity="1.000000"/>
	<circle id="BG" cx="23.000000" cy="23.000000" r="22.499996" stroke="url(#paint_linear_52_1563_0)" stroke-opacity="1.000000" stroke-width="1.000000"/>
	<path id="Vector" d="M22.9962 13.877C25.9677 13.877 26.3196 13.8867 27.4934 13.9414C28.1992 13.9492 28.8982 14.0801 29.5602 14.3242C30.0403 14.5098 30.4762 14.793 30.8401 15.1562C31.2039 15.5215 31.4875 15.957 31.6726 16.4375C31.9176 17.0977 32.0471 17.7969 32.0558 18.5039C32.1088 19.6777 32.1205 20.0293 32.1205 23C32.1205 25.9727 32.1093 26.3242 32.0558 27.498C32.0471 28.2031 31.9176 28.9023 31.6726 29.5645C31.4875 30.0449 31.2039 30.4805 30.8401 30.8438C30.4762 31.209 30.0403 31.4922 29.5602 31.6777C28.8982 31.9219 28.1992 32.0508 27.4934 32.0605C26.3201 32.1133 25.9681 32.125 22.9962 32.125C20.0243 32.125 19.6724 32.1133 18.499 32.0605C17.7932 32.0508 17.0942 31.9219 16.4323 31.6777C15.9521 31.4922 15.5162 31.209 15.1523 30.8438C14.7886 30.4805 14.505 30.0449 14.3198 29.5645C14.075 28.9023 13.9453 28.2031 13.9366 27.498C13.8837 26.3242 13.8719 25.9727 13.8719 23C13.8719 20.0293 13.8832 19.6777 13.9366 18.5039C13.9453 17.7969 14.075 17.0977 14.3198 16.4375C14.505 15.957 14.7886 15.5215 15.1523 15.1562C15.5162 14.793 15.9521 14.5098 16.4323 14.3242C17.0942 14.0801 17.7932 13.9492 18.499 13.9414C19.6729 13.8887 20.0248 13.877 22.9962 13.877ZM22.9962 11.8711C19.9755 11.8711 19.595 11.8848 18.4078 11.9375C17.4843 11.957 16.5703 12.1309 15.7051 12.4551C14.9629 12.7344 14.2906 13.1738 13.7352 13.7383C13.1686 14.2949 12.73 14.9668 12.4502 15.7109C12.1262 16.5762 11.9513 17.4883 11.9329 18.4121C11.8799 19.5996 11.8672 19.9785 11.8672 23C11.8672 26.0215 11.8799 26.4023 11.934 27.5879C11.9524 28.5117 12.1272 29.4258 12.4512 30.291C12.7307 31.0332 13.1689 31.707 13.7352 32.2617C14.291 32.8281 14.9636 33.2676 15.7062 33.5469C16.5714 33.8711 17.4852 34.0449 18.4089 34.0625C19.5961 34.1172 19.975 34.1309 22.9973 34.1309C26.0197 34.1309 26.3986 34.1172 27.5856 34.0625C28.5093 34.0449 29.4232 33.8711 30.2883 33.5469C31.0275 33.2598 31.6986 32.8223 32.2589 32.2617C32.8192 31.7012 33.2563 31.0293 33.5424 30.291C33.8662 29.4258 34.0411 28.5117 34.0596 27.5879C34.1125 26.4004 34.1252 26.0215 34.1252 23C34.1252 19.9785 34.1125 19.5996 34.0585 18.4121C34.0402 17.4883 33.8652 16.5742 33.5413 15.709C33.2617 14.9668 32.8235 14.293 32.2572 13.7383C31.7014 13.1719 31.0288 12.7344 30.2863 12.4531C29.421 12.1309 28.5072 11.9551 27.5835 11.9375C26.3975 11.8848 26.017 11.8711 22.9962 11.8711Z" fill="#FFFFFF" fill-opacity="1.000000" fill-rule="nonzero"/>
	<path id="Vector" d="M23.0001 17.2852C21.8699 17.2852 20.7649 17.6211 19.8251 18.248C18.8853 18.877 18.1527 19.7695 17.7202 20.8125C17.2876 21.8574 17.1744 23.0059 17.395 24.1152C17.6155 25.2246 18.1598 26.2422 18.9591 27.041C19.7583 27.8398 20.7766 28.3848 21.8853 28.6055C22.9939 28.8262 24.1429 28.7129 25.1873 28.2793C26.2316 27.8477 27.124 27.1152 27.7521 26.1758C28.38 25.2363 28.7152 24.1309 28.7152 23C28.7152 21.4844 28.113 20.0312 27.0413 18.959C25.9695 17.8867 24.5159 17.2852 23.0001 17.2852ZM23.0001 26.709C22.2665 26.709 21.5492 26.4922 20.9392 26.084C20.3291 25.6777 19.8536 25.0977 19.5729 24.4199C19.2921 23.7422 19.2186 22.9961 19.3618 22.2773C19.5049 21.5566 19.8583 20.8965 20.3771 20.377C20.8959 19.8574 21.5569 19.5059 22.2765 19.3613C22.9961 19.2188 23.7419 19.293 24.4198 19.5723C25.0977 19.8535 25.677 20.3301 26.0847 20.9395C26.4923 21.5488 26.7098 22.2656 26.7098 23C26.7098 23.9844 26.319 24.9277 25.6233 25.623C24.9276 26.3184 23.984 26.709 23.0001 26.709Z" fill="#FFFFFF" fill-opacity="1.000000" fill-rule="nonzero"/>
	<path id="Vector" d="M30.2726 17.0586C30.2726 17.7949 29.6746 18.3945 28.937 18.3945C28.1995 18.3945 27.6016 17.7949 27.6016 17.0586C27.6016 16.3203 28.1995 15.7227 28.937 15.7227C29.6746 15.7227 30.2726 16.3203 30.2726 17.0586Z" fill="#FFFFFF" fill-opacity="1.000000" fill-rule="evenodd"/>
</svg>
