<svg width="46.000000" height="46.000000" viewBox="0 0 46 46" fill="none" xmlns="http://www.w3.org/2000/svg" xmlns:xlink="http://www.w3.org/1999/xlink">
	<desc>
			Created with Pixso.
	</desc>
	<defs>
		<linearGradient id="paint_linear_52_1570_0" x1="0.000000" y1="22.999996" x2="45.999992" y2="22.999996" gradientUnits="userSpaceOnUse">
			<stop stop-color="#0CBAF1"/>
			<stop offset="1.000000" stop-color="#E95CE9"/>
		</linearGradient>
	</defs>
	<circle id="BG" cx="23.000000" cy="23.000000" r="22.999996" fill="#18181B" fill-opacity="1.000000"/>
	<circle id="BG" cx="23.000000" cy="23.000000" r="22.499996" stroke="url(#paint_linear_52_1570_0)" stroke-opacity="1.000000" stroke-width="1.000000"/>
	<path id="Vector" d="M24.001 11.8711C18.1016 11.8711 13.3555 16.6172 13.3555 22.5176C13.3555 27.2188 16.416 31.2109 20.6299 32.6309C21.1622 32.7188 21.3396 32.4082 21.3396 32.0977C21.3396 31.832 21.3396 31.166 21.3396 30.2793C18.3678 30.9453 17.7467 28.8594 17.7467 28.8594C17.2588 27.6172 16.5491 27.3066 16.5491 27.3066C15.5732 26.6426 16.6378 26.6426 16.6378 26.6426C17.7024 26.7305 18.2791 27.75 18.2791 27.75C19.2106 29.3926 20.7629 28.9043 21.384 28.6387C21.4727 27.9277 21.7389 27.4844 22.0493 27.2188C19.6985 26.9531 17.2145 26.0215 17.2145 21.9395C17.2145 20.7871 17.6136 19.8105 18.3234 19.1016C18.2346 18.8359 17.8354 17.7695 18.4121 16.2617C18.4121 16.2617 19.2992 15.9961 21.3396 17.3711C22.1824 17.1504 23.1139 17.0156 24.001 17.0156C24.8882 17.0156 25.8196 17.1504 26.6624 17.3711C28.7028 15.9961 29.59 16.2617 29.59 16.2617C30.1665 17.7266 29.8116 18.791 29.6786 19.1016C30.344 19.8555 30.7876 20.7871 30.7876 21.9395C30.7876 26.0215 28.3036 26.9082 25.9083 27.1738C26.3075 27.4844 26.618 28.1504 26.618 29.125C26.618 30.5449 26.618 31.6992 26.618 32.0527C26.618 32.3203 26.7954 32.6738 27.3721 32.5859C31.5859 31.2109 34.6466 27.2188 34.6466 22.5176C34.6466 16.6172 29.9004 11.8711 24.001 11.8711Z" fill="#FFFFFF" fill-opacity="1.000000" fill-rule="evenodd"/>
</svg>
