<svg width="16.000000" height="16.000000" viewBox="0 0 16 16" fill="none" xmlns="http://www.w3.org/2000/svg" xmlns:xlink="http://www.w3.org/1999/xlink">
	<desc>
			Created with Pixso.
	</desc>
	<defs>
		<linearGradient id="paint_linear_21_12654_0" x1="0.000000" y1="8.000000" x2="16.000000" y2="8.000000" gradientUnits="userSpaceOnUse">
			<stop stop-color="#0CBAF1"/>
			<stop offset="1.000000" stop-color="#E95CE9"/>
		</linearGradient>
	</defs>
	<path id="Vector" d="M4.35559 6.31152L3.11108 7.55566L7.11108 11.5557L16 2.66699L14.7556 1.42188L7.11108 9.06641L4.35559 6.31152ZM14.2222 14.2227L1.77783 14.2227L1.77783 1.77734L10.6666 1.77734L10.6666 0L1.77783 0C0.800049 0 0 0.799805 0 1.77734L0 14.2227C0 15.2002 0.800049 16 1.77783 16L14.2222 16C15.2 16 16 15.2002 16 14.2227L16 7.11133L14.2222 7.11133L14.2222 14.2227Z" fill="url(#paint_linear_21_12654_0)" fill-opacity="1.000000" fill-rule="nonzero"/>
</svg>
