<svg width="17.916687" height="16.250000" viewBox="0 0 17.9167 16.25" fill="none" xmlns="http://www.w3.org/2000/svg" xmlns:xlink="http://www.w3.org/1999/xlink">
	<desc>
			Created with Pixso.
	</desc>
	<defs/>
	<path id="Combined-Shape" d="M13.0492 0C15.8242 0 17.9167 2.26367 17.9167 5.26758L17.9167 10.9902C17.9167 12.5273 17.3734 13.9141 16.3859 14.9004C15.5 15.7832 14.3508 16.25 13.0625 16.25L4.85168 16.25C3.56586 16.25 2.41748 15.7832 1.53082 14.9004C0.543335 13.9141 0 12.5273 0 10.9902L0 5.26758C0 2.26367 2.09253 0 4.86749 0L13.0492 0ZM13.0492 1.25L4.86749 1.25C2.77167 1.25 1.25 2.93945 1.25 5.26758L1.25 10.9902C1.25 12.1934 1.66333 13.2676 2.41333 14.0137C3.06 14.6602 3.90417 15 4.85419 15L13.0492 15C13.0508 14.998 13.0575 15 13.0625 15C14.0133 15 14.8567 14.6602 15.5034 14.0137C16.2542 13.2676 16.6667 12.1934 16.6667 10.9902L16.6667 5.26758C16.6667 2.93945 15.145 1.25 13.0492 1.25ZM14.3625 5.10742C14.58 5.375 14.5392 5.76758 14.2717 5.98633L10.5684 8.99609C10.1 9.36914 9.53998 9.55469 8.98083 9.55469C8.42334 9.55469 7.86749 9.36914 7.40253 9.00195L3.66498 5.98828C3.39581 5.77148 3.35419 5.37695 3.57001 5.10938C3.78748 4.8418 4.18085 4.79883 4.44916 5.01562L8.18335 8.02539C8.65253 8.39648 9.31335 8.39648 9.78583 8.02148L13.4825 5.01562C13.7509 4.79688 14.1442 4.83984 14.3625 5.10742Z" fill="#B0B0B2" fill-opacity="1.000000" fill-rule="evenodd"/>
</svg>
