<svg width="13.750000" height="16.250000" viewBox="0 0 13.75 16.25" fill="none" xmlns="http://www.w3.org/2000/svg" xmlns:xlink="http://www.w3.org/1999/xlink">
	<desc>
			Created with Pixso.
	</desc>
	<defs/>
	<path id="Combined-Shape" d="M6.875 0C10.6658 0 13.75 3.10742 13.75 6.92773C13.75 11.623 8.37 16.25 6.875 16.25C5.38 16.25 0 11.623 0 6.92773C0 3.10742 3.08417 0 6.875 0ZM6.875 1.25C3.77332 1.25 1.25 3.79688 1.25 6.92773C1.25 10.9102 5.93665 14.7891 6.875 14.9961C7.81335 14.7891 12.5 10.9082 12.5 6.92773C12.5 3.79688 9.97668 1.25 6.875 1.25ZM6.87585 4.16602C8.36914 4.16602 9.58417 5.38086 9.58417 6.875C9.58417 8.36914 8.36914 9.58398 6.87585 9.58398C5.38251 9.58398 4.16748 8.36914 4.16748 6.875C4.16748 5.38086 5.38251 4.16602 6.87585 4.16602ZM6.87585 5.41602C6.07166 5.41602 5.41748 6.07031 5.41748 6.875C5.41748 7.67969 6.07166 8.33398 6.87585 8.33398C7.67999 8.33398 8.33417 7.67969 8.33417 6.875C8.33417 6.07031 7.67999 5.41602 6.87585 5.41602Z" fill="#B0B0B2" fill-opacity="1.000000" fill-rule="evenodd"/>
</svg>
