<svg width="17.410889" height="17.083984" viewBox="0 0 17.4109 17.084" fill="none" xmlns="http://www.w3.org/2000/svg" xmlns:xlink="http://www.w3.org/1999/xlink">
	<desc>
			Created with Pixso.
	</desc>
	<defs/>
	<path id="Combined-Shape" d="M3.88098 0C4.81183 0.0136719 5.47516 0.710938 6.31433 1.59375C6.52179 1.81055 6.74597 2.04883 6.99683 2.29883C8.21265 3.51367 7.86682 4.50781 7.58765 5.30469C7.2843 6.17383 7.02179 6.92383 8.59344 8.49414C10.1652 10.0664 10.9143 9.80469 11.7827 9.49805C12.5801 9.21875 13.5701 8.87109 14.7885 10.0879C15.0359 10.3359 15.2693 10.5566 15.486 10.7637C16.3718 11.6055 17.0718 12.2715 17.0836 13.2051C17.0927 14 16.6093 14.8125 15.416 16.0059L14.8876 15.6465L15.3351 16.082C15.071 16.3535 14.3685 17.0762 12.9926 17.084L12.9677 17.084C10.891 17.084 8.18347 15.4297 4.92017 12.168C1.64349 8.89258 -0.0123901 6.17578 6.10352e-05 4.0957C0.00762939 2.7207 0.728455 2.01562 0.999329 1.75195L1.0224 1.72656L1.07849 1.66992C2.27429 0.474609 3.09595 -0.0175781 3.88098 0ZM3.86511 1.25L3.85846 1.25C3.48425 1.25 2.91595 1.625 2.12335 2.39453L1.96417 2.55078L1.966 2.55078C1.966 2.55078 1.95239 2.56641 1.9292 2.58984L1.87347 2.64648C1.67181 2.8418 1.25433 3.25 1.25012 4.10156C1.24347 5.29492 2.02765 7.50781 5.80347 11.2832C9.56097 15.041 11.7718 15.834 12.9677 15.834L12.9852 15.834C13.8376 15.8281 14.2443 15.4121 14.4401 15.2109C14.4993 15.1504 14.5477 15.1035 14.5818 15.0762C15.4127 14.2402 15.8376 13.6191 15.8335 13.2207C15.8285 12.8145 15.3226 12.334 14.6235 11.668C14.401 11.457 14.1593 11.2266 13.9043 10.9707C13.2426 10.3125 12.9168 10.4238 12.196 10.6777C11.2001 11.0273 9.836 11.5059 7.71014 9.37891C5.5835 7.25195 6.06012 5.88867 6.40765 4.89062C6.6593 4.17188 6.77429 3.84375 6.11346 3.18164C5.85516 2.92383 5.62262 2.67969 5.40845 2.45312C4.74683 1.75781 4.26929 1.25586 3.86511 1.25ZM11.0386 2.96484C12.7727 3.30078 14.1119 4.64062 14.4494 6.375C14.5152 6.71484 14.2944 7.04297 13.9561 7.10742C13.9152 7.11523 13.8752 7.11914 13.8352 7.11914C13.5419 7.11914 13.2811 6.91406 13.2227 6.61523C12.9827 5.38086 12.0319 4.43164 10.8002 4.19141C10.4611 4.125 10.2402 3.79883 10.306 3.45898C10.3719 3.11914 10.7052 2.89844 11.0386 2.96484ZM10.9886 0.00585938C14.387 0.382812 17.0261 3.01758 17.407 6.41602C17.4453 6.75977 17.1987 7.06836 16.8561 7.10742C16.8328 7.10938 16.8087 7.11133 16.7853 7.11133C16.4711 7.11133 16.2011 6.875 16.1653 6.55664C15.8495 3.74219 13.6645 1.55859 10.8503 1.24609C10.5078 1.20898 10.2603 0.900391 10.2986 0.556641C10.3361 0.214844 10.642 -0.0390625 10.9886 0.00585938Z" fill="#B0B0B2" fill-opacity="1.000000" fill-rule="evenodd"/>
</svg>
