<svg width="63.526611" height="59.958008" viewBox="0 0 63.5266 59.958" fill="none" xmlns="http://www.w3.org/2000/svg" xmlns:xlink="http://www.w3.org/1999/xlink">
	<desc>
			Created with Pixso.
	</desc>
	<defs>
		<linearGradient id="paint_linear_9_190_0" x1="0.000000" y1="29.978912" x2="63.526615" y2="29.978912" gradientUnits="userSpaceOnUse">
			<stop stop-color="#0CBAF1"/>
			<stop offset="1.000000" stop-color="#E95CE9"/>
		</linearGradient>
	</defs>
	<path id="Vector" d="M57.5912 40.7998C57.5912 40.7998 57.6073 40.7998 57.6119 40.7998C57.6218 40.793 57.631 40.7852 57.6403 40.7773C57.6517 40.7686 57.6625 40.7598 57.6724 40.749C57.6877 40.7354 57.7008 40.7197 57.7114 40.7031L57.7352 40.6709C57.746 40.6504 57.7551 40.6289 57.7628 40.6074C57.7675 40.5986 57.7712 40.5879 57.7743 40.5781C57.7834 40.5449 57.7881 40.5117 57.7881 40.4785L57.7881 12.0879C57.7874 12.0127 57.7659 11.9424 57.7238 11.8799C57.6816 11.8174 57.6265 11.7705 57.5568 11.7402L32.2291 0.207031C32.1978 0.147461 32.1541 0.0976562 32.0966 0.0615234C32.0032 0 31.902 -0.015625 31.7932 0.015625C31.7511 0.00292969 31.7081 -0.00195312 31.6644 0.00195312C31.6208 0.00488281 31.5786 0.0146484 31.5388 0.0322266C31.499 0.0498047 31.463 0.0732422 31.4308 0.103516C31.3986 0.133789 31.3733 0.167969 31.3534 0.207031L6.02356 11.7402C5.95386 11.7705 5.89783 11.8174 5.85571 11.8799C5.8136 11.9424 5.79211 12.0127 5.79138 12.0879L5.79138 40.4688C5.79138 40.5029 5.79602 40.5361 5.80591 40.5684C5.80591 40.5801 5.80591 40.5869 5.81738 40.5986C5.82886 40.6104 5.8335 40.6396 5.84497 40.6611L5.86804 40.6934C5.88025 40.71 5.89331 40.7256 5.90784 40.7393L5.94006 40.7676C5.94849 40.7754 5.95837 40.7842 5.96765 40.791L5.98828 40.791L6.00745 40.8047L31.525 53.1455C31.5771 53.1719 31.6331 53.1846 31.6913 53.1836C31.7495 53.1836 31.804 53.1709 31.856 53.1455L57.5728 40.8047L57.5912 40.7998ZM49.3734 43.9004L41.4705 40.1357L48.3077 36.875C48.3475 36.8564 48.3759 36.8271 48.3936 36.7871L56.5024 40.4785L49.3734 43.9004ZM40.1665 48.3203L32.2338 44.54L41.0376 40.3467L48.9406 44.1133L40.1665 48.3203ZM14.6167 44.1279L22.5518 40.3467L31.3557 44.54L23.3555 48.3506L14.6167 44.1279ZM7.07312 40.4805L15.1821 36.7871C15.199 36.8271 15.2273 36.8574 15.2672 36.875L22.1044 40.1357L14.1761 43.9141L7.07312 40.4805ZM24.5836 32.5078L31.3466 35.7314L22.5426 39.9248L15.5874 36.6045L24.5836 32.5078ZM25.0471 32.3018L31.8 29.2295L38.5515 32.3018L31.7977 35.5205L25.0471 32.3018ZM39.0057 32.5078L48.0043 36.6045L41.0376 39.9248L32.2338 35.7314L39.0057 32.5078ZM22.9939 40.1357L31.7977 35.9424L40.6017 40.1357L31.7977 44.3271L22.9939 40.1357ZM57.0234 21L56.6158 20.8145C56.5929 20.8047 56.5684 20.7988 56.5431 20.7979C56.5178 20.7969 56.4933 20.8008 56.4696 20.8096C56.4458 20.8184 56.425 20.832 56.4067 20.8496C56.3883 20.8672 56.3738 20.8867 56.363 20.9102C56.3424 20.958 56.3408 21.0068 56.3593 21.0557C56.3776 21.1045 56.4105 21.1406 56.458 21.1621L57.0234 21.4189L57.0234 31.2725L56.6158 31.0869C56.5929 31.0762 56.5684 31.0703 56.5431 31.0693C56.5178 31.0684 56.4933 31.0723 56.4696 31.0811C56.4458 31.0908 56.425 31.1035 56.4067 31.1201C56.3883 31.1377 56.3738 31.1582 56.363 31.1816C56.3424 31.2295 56.3408 31.2783 56.3593 31.3271C56.3776 31.376 56.4105 31.4121 56.458 31.4336L57.0234 31.6914L57.0234 39.876L32.2728 28.6094L32.2728 20.4238L32.4789 20.5186C32.5272 20.541 32.5762 20.543 32.626 20.5244C32.6758 20.5068 32.7118 20.4736 32.734 20.4258C32.7555 20.3779 32.757 20.3291 32.7386 20.2793C32.7202 20.2295 32.6865 20.1934 32.639 20.1709L32.2728 20.0039L32.2728 10.1523L32.4789 10.2471C32.5272 10.2695 32.5762 10.2715 32.626 10.2529C32.6758 10.2334 32.7118 10.2002 32.734 10.1523C32.7548 10.1045 32.7555 10.0557 32.7371 10.0068C32.7188 9.95801 32.6865 9.92285 32.639 9.89941L32.2728 9.72656L32.2728 1.06641L57.0234 12.334L57.0234 21ZM31.5082 0.976562L31.5082 9.54297L30.7435 9.89258C30.7037 9.91211 30.6738 9.94141 30.6539 9.98145C30.634 10.0215 30.6287 10.0635 30.6378 10.1074C30.6478 10.1504 30.6692 10.1865 30.7037 10.2148C30.7382 10.2432 30.7781 10.2578 30.8225 10.2588C30.8501 10.2578 30.8768 10.252 30.9014 10.2402L31.5082 9.96191L31.5082 19.8242L30.7435 20.1758C30.7206 20.1865 30.7007 20.2002 30.683 20.2188C30.6661 20.2373 30.6523 20.2588 30.6439 20.2822C30.6348 20.3066 30.631 20.3311 30.6317 20.3564C30.6324 20.3809 30.6385 20.4053 30.6486 20.4277C30.683 20.502 30.7412 20.5391 30.8225 20.54C30.8501 20.5391 30.8768 20.5332 30.9014 20.5205L31.5082 20.2432L31.5082 28.4287L6.55603 39.874L6.55603 31.6914L7.12146 31.4316C7.16968 31.4092 7.20264 31.373 7.22021 31.3232C7.23865 31.2734 7.23633 31.2246 7.21411 31.1768C7.19189 31.1289 7.15662 31.0957 7.10681 31.0781C7.05786 31.0596 7.00952 31.0625 6.96204 31.085L6.55603 31.2695L6.55603 21.4189L7.12146 21.1602C7.16968 21.1377 7.20264 21.1016 7.22021 21.0518C7.23865 21.002 7.23633 20.9531 7.21411 20.9053C7.19189 20.8574 7.15662 20.8252 7.10681 20.8066C7.05786 20.7891 7.00952 20.79 6.96204 20.8125L6.55603 20.998L6.55603 12.334L31.5082 0.976562ZM31.6913 52.3799L23.7869 48.5566L31.7886 44.7432L39.7236 48.5244L31.6913 52.3799ZM23.3325 13.5117C23.3103 13.4648 23.308 13.416 23.3264 13.3662C23.3447 13.3174 23.377 13.2812 23.4252 13.2598L25.2556 12.4219C25.3024 12.4053 25.3483 12.4072 25.3934 12.4268C25.4387 12.4463 25.4717 12.4785 25.4916 12.5225C25.5122 12.5684 25.5153 12.6133 25.5007 12.6611C25.4862 12.707 25.4579 12.7432 25.4149 12.7686L23.5846 13.6074C23.5601 13.6172 23.5332 13.623 23.5065 13.623C23.4244 13.624 23.3662 13.5859 23.3325 13.5117ZM26.991 11.8359C26.9688 11.7871 26.9664 11.7393 26.9847 11.6895C27.0024 11.6396 27.0354 11.6035 27.0836 11.5811L28.9139 10.7422C28.96 10.7266 29.0059 10.7285 29.0511 10.748C29.0963 10.7676 29.1293 10.7998 29.1499 10.8438C29.1707 10.8896 29.1737 10.9346 29.1592 10.9824C29.1445 11.0293 29.1155 11.0645 29.0734 11.0898L27.243 11.9287C27.2185 11.9395 27.1917 11.9463 27.1641 11.9463C27.0829 11.9463 27.0247 11.9092 26.991 11.8359ZM8.6875 20.2275C8.67749 20.2031 8.67212 20.1777 8.67285 20.1504C8.67285 20.125 8.67908 20.0996 8.6897 20.0752C8.70044 20.0508 8.71655 20.0303 8.73572 20.0127C8.75562 19.9951 8.77856 19.9824 8.80396 19.9746L10.6312 19.1338C10.6549 19.1201 10.6802 19.1113 10.707 19.1084C10.7346 19.1055 10.7606 19.1084 10.7867 19.1152C10.8127 19.124 10.8357 19.1367 10.8564 19.1543C10.8771 19.1729 10.8932 19.1943 10.9039 19.2188C10.9154 19.2432 10.9215 19.2695 10.9215 19.2969C10.9224 19.3242 10.917 19.3496 10.9062 19.375C10.8955 19.4004 10.8801 19.4219 10.8602 19.4404C10.8403 19.459 10.8174 19.4727 10.7913 19.4814L8.96094 20.3193C8.9364 20.3311 8.90967 20.3379 8.88208 20.3389C8.84302 20.3398 8.80615 20.3311 8.77246 20.3105C8.73877 20.291 8.7135 20.2627 8.69666 20.2275L8.6875 20.2275ZM12.355 18.5479C12.3444 18.5244 12.3381 18.5 12.3374 18.4746C12.3359 18.4502 12.3405 18.4248 12.3489 18.4004C12.3582 18.377 12.3711 18.3555 12.3888 18.3369C12.4064 18.3184 12.427 18.3037 12.4501 18.2939L14.2781 17.4531C14.3019 17.4395 14.3271 17.4307 14.3539 17.4277C14.3807 17.4238 14.4076 17.4268 14.4336 17.4346C14.4597 17.4434 14.4827 17.4561 14.5033 17.4736C14.5233 17.4922 14.5393 17.5137 14.5508 17.5381C14.5624 17.5625 14.5685 17.5889 14.5685 17.6162C14.5692 17.6426 14.5638 17.6689 14.5531 17.6943C14.5424 17.7188 14.5271 17.7412 14.5063 17.7598C14.4865 17.7783 14.4635 17.792 14.4382 17.7998L12.6101 18.6406C12.5841 18.6523 12.5573 18.6572 12.5289 18.6562C12.4485 18.6572 12.3903 18.6211 12.355 18.5479ZM16.0134 16.8691C15.9919 16.8213 15.9905 16.7725 16.0096 16.7236C16.028 16.6748 16.0609 16.6396 16.1084 16.6172L17.9387 15.7764C17.9871 15.7549 18.0353 15.7539 18.0844 15.7725C18.1334 15.79 18.1694 15.8242 18.1917 15.8721C18.2015 15.8945 18.2078 15.918 18.2085 15.9434C18.2092 15.9688 18.2054 15.9932 18.1962 16.0176C18.1877 16.041 18.1748 16.0625 18.1571 16.0811C18.1395 16.0996 18.1196 16.1143 18.0966 16.124L16.2686 16.9639C16.2203 16.9854 16.1713 16.9863 16.1222 16.9678C16.0724 16.9492 16.0364 16.917 16.0134 16.8691ZM19.6741 15.1904C19.6519 15.1436 19.6497 15.0947 19.668 15.0449C19.6864 14.9961 19.7194 14.96 19.7668 14.9385L21.5972 14.1006C21.6201 14.0879 21.6447 14.0811 21.6708 14.0791C21.6968 14.0771 21.722 14.0801 21.7466 14.0889C21.7711 14.0977 21.7933 14.1104 21.8125 14.1279C21.8317 14.1455 21.8469 14.166 21.8577 14.1904C21.8684 14.2139 21.8738 14.2383 21.8745 14.2646C21.8752 14.29 21.8707 14.3154 21.8607 14.3398C21.8516 14.3643 21.837 14.3848 21.8186 14.4033C21.8002 14.4209 21.7788 14.4355 21.7543 14.4453L19.9247 15.2832C19.8994 15.2939 19.8733 15.2998 19.8457 15.2998C19.809 15.2998 19.7745 15.29 19.7439 15.2715C19.7124 15.251 19.6895 15.2246 19.6741 15.1904ZM45.2959 15.8721C45.3181 15.8232 45.3541 15.79 45.4039 15.7725C45.4537 15.7539 45.5021 15.7549 45.551 15.7764L47.4044 16.6172C47.4512 16.6396 47.484 16.6758 47.5024 16.7246C47.5209 16.7725 47.52 16.8213 47.4994 16.8691C47.4833 16.9033 47.4596 16.9316 47.4274 16.9512C47.396 16.9707 47.3607 16.9814 47.3231 16.9805C47.2955 16.9805 47.2695 16.9746 47.2443 16.9639L45.3909 16.124C45.3434 16.1016 45.3104 16.0664 45.2914 16.0176C45.2729 15.9678 45.2744 15.9189 45.2959 15.8721ZM52.6748 19.2314C52.6855 19.208 52.7001 19.1875 52.7185 19.1709C52.7368 19.1533 52.7576 19.1396 52.7812 19.1309C52.8051 19.1221 52.8296 19.1182 52.8549 19.1191C52.8801 19.1201 52.9047 19.126 52.9276 19.1367L54.7809 19.9746C54.8215 19.9932 54.8514 20.0234 54.8713 20.0635C54.8905 20.1035 54.8959 20.1455 54.8867 20.1895C54.8774 20.2324 54.8552 20.2676 54.8208 20.2959C54.7863 20.3242 54.7465 20.3398 54.702 20.3408C54.6744 20.3398 54.6484 20.334 54.6232 20.3213L52.7698 19.4834C52.7468 19.4736 52.7269 19.459 52.7092 19.4404C52.6917 19.4219 52.6786 19.4004 52.6702 19.377C52.661 19.3535 52.6571 19.3291 52.658 19.3037C52.6587 19.2783 52.6641 19.2539 52.6748 19.2314ZM41.6077 14.1934C41.6299 14.1445 41.6652 14.1123 41.7141 14.0938C41.7632 14.0752 41.8123 14.0762 41.8597 14.0977L43.7139 14.9385C43.7614 14.96 43.7943 14.9961 43.8119 15.0449C43.8303 15.0947 43.828 15.1436 43.8065 15.1904C43.7911 15.2246 43.7675 15.252 43.7361 15.2725C43.7046 15.292 43.6702 15.3027 43.6326 15.3018C43.6058 15.3008 43.5804 15.2949 43.556 15.2832L41.7026 14.4424C41.6552 14.4209 41.6229 14.3857 41.6046 14.3369C41.5862 14.2891 41.5869 14.2402 41.6077 14.1934ZM48.9865 17.5508C49.0087 17.5029 49.0439 17.4697 49.0938 17.4512C49.1428 17.4336 49.191 17.4355 49.2394 17.458L51.0927 18.2959C51.1333 18.3154 51.1631 18.3438 51.1831 18.3848C51.2023 18.4248 51.2076 18.4668 51.1984 18.5098C51.1892 18.5537 51.167 18.5889 51.1324 18.6172C51.098 18.6455 51.0582 18.6602 51.0138 18.6611C50.9862 18.6611 50.9601 18.6553 50.9348 18.6426L49.0815 17.8047C49.0332 17.7822 48.9995 17.7471 48.9811 17.6973C48.9628 17.6475 48.9642 17.5986 48.9865 17.5508ZM34.2311 10.835C34.2411 10.8115 34.2549 10.791 34.2732 10.7734C34.2916 10.7568 34.3131 10.7432 34.3368 10.7344C34.3606 10.7256 34.3851 10.7217 34.4104 10.7227C34.4364 10.7227 34.4602 10.7295 34.4832 10.7402L36.3365 11.5791C36.3771 11.5977 36.407 11.627 36.4269 11.667C36.4468 11.707 36.4514 11.749 36.4423 11.793C36.433 11.8359 36.4108 11.8721 36.3763 11.9004C36.3418 11.9287 36.3027 11.9434 36.2576 11.9443C36.23 11.9443 36.204 11.9375 36.1794 11.9258L34.3253 11.0879C34.3024 11.0771 34.2825 11.0625 34.2648 11.0439C34.2479 11.0254 34.2341 11.0049 34.2257 10.9814C34.2166 10.958 34.2126 10.9326 34.2135 10.9082C34.2142 10.8828 34.2203 10.8584 34.2311 10.835ZM37.9193 12.5049C37.9293 12.4814 37.9438 12.4619 37.9623 12.4443C37.9807 12.4268 38.0021 12.4131 38.0259 12.4053C38.0496 12.3955 38.0741 12.3916 38.0994 12.3926C38.1248 12.3936 38.1484 12.3994 38.1714 12.4092L40.0248 13.251C40.0485 13.2607 40.0692 13.2744 40.0861 13.293C40.1036 13.3115 40.1174 13.333 40.1259 13.3564C40.1351 13.3799 40.1389 13.4043 40.1382 13.4297C40.1366 13.4551 40.1312 13.4795 40.1198 13.5029C40.0983 13.5498 40.0623 13.583 40.0133 13.6016C39.9642 13.6211 39.9152 13.6191 39.8677 13.5977L38.0144 12.7568C37.9906 12.7461 37.9707 12.7324 37.9531 12.7139C37.9363 12.6953 37.9232 12.6748 37.9141 12.6504C37.9048 12.627 37.901 12.6025 37.9017 12.5771C37.9025 12.5518 37.9087 12.5273 37.9193 12.5049ZM23.3234 23.7773C23.3011 23.7285 23.2988 23.6797 23.3171 23.6299C23.3348 23.5811 23.3678 23.5439 23.416 23.5215L25.2533 22.6924C25.3 22.6777 25.3452 22.6787 25.3912 22.6982C25.4364 22.7178 25.4694 22.749 25.4893 22.7949C25.5099 22.8389 25.5131 22.8848 25.4984 22.9316C25.4839 22.9795 25.4556 23.0156 25.4126 23.041L23.5823 23.8789C23.5577 23.8906 23.5317 23.8965 23.5042 23.8975C23.4237 23.8955 23.3662 23.8584 23.3325 23.7861L23.3234 23.7773ZM19.6741 25.4717C19.6519 25.4238 19.6497 25.375 19.668 25.3262C19.6864 25.2773 19.7194 25.2412 19.7668 25.2188L21.5972 24.3809C21.6447 24.3594 21.693 24.3564 21.7428 24.375C21.7917 24.3926 21.8278 24.4258 21.8492 24.4736C21.8715 24.5205 21.8738 24.5703 21.8553 24.6191C21.8378 24.668 21.8048 24.7041 21.7573 24.7266L19.9247 25.5576C19.8994 25.5684 19.8733 25.5732 19.8457 25.5732C19.7668 25.5762 19.7094 25.542 19.6741 25.4717ZM16.0134 27.1504C15.9919 27.1016 15.9905 27.0537 16.0096 27.0049C16.028 26.9561 16.0609 26.9199 16.1084 26.8984L17.9387 26.0566C17.9871 26.0361 18.0353 26.0352 18.0844 26.0527C18.1334 26.0713 18.1694 26.1045 18.1917 26.1523C18.2015 26.1748 18.2078 26.1992 18.2085 26.2246C18.2092 26.25 18.2054 26.2744 18.1962 26.2979C18.1877 26.3223 18.1748 26.3428 18.1571 26.3613C18.1395 26.3799 18.1196 26.3945 18.0966 26.4053L16.2686 27.2451C16.2203 27.2656 16.1713 27.2666 16.1222 27.249C16.0724 27.2305 16.0364 27.1982 16.0134 27.1504ZM12.355 28.8291C12.3451 28.8057 12.339 28.7822 12.3381 28.7559C12.3374 28.7305 12.3412 28.7061 12.3505 28.6836C12.3589 28.6592 12.3719 28.6377 12.3895 28.6201C12.4071 28.6016 12.427 28.5869 12.4501 28.5771L14.2781 27.7363C14.3019 27.7217 14.3271 27.7139 14.3539 27.71C14.3807 27.707 14.4076 27.71 14.4336 27.7178C14.4597 27.7266 14.4827 27.7393 14.5033 27.7568C14.5233 27.7744 14.5393 27.7959 14.5508 27.8213C14.5624 27.8457 14.5685 27.8721 14.5685 27.8984C14.5692 27.9268 14.5638 27.9521 14.5531 27.9766C14.5424 28.002 14.5271 28.0234 14.5063 28.043C14.4865 28.0615 14.4635 28.0742 14.4382 28.083L12.6101 28.9238C12.5841 28.9346 12.5573 28.9404 12.5289 28.9404C12.4906 28.9395 12.4554 28.9277 12.424 28.9062C12.3926 28.8838 12.3696 28.8545 12.355 28.8193L12.355 28.8291ZM8.69666 30.5078C8.68591 30.4844 8.67981 30.4609 8.67908 30.4346C8.67822 30.4092 8.68213 30.3848 8.69128 30.3613C8.69971 30.3379 8.7135 30.3164 8.73035 30.2988C8.74792 30.2803 8.76868 30.2656 8.79163 30.2559L10.6198 29.4082C10.6434 29.3945 10.6687 29.3848 10.6956 29.3818C10.7224 29.3789 10.7491 29.3809 10.7753 29.3896C10.8013 29.3984 10.8242 29.4111 10.845 29.4287C10.8656 29.4463 10.881 29.4678 10.8925 29.4932C10.9039 29.5176 10.91 29.5439 10.91 29.5703C10.9109 29.5986 10.9055 29.624 10.8948 29.6494C10.884 29.6738 10.8687 29.6963 10.8488 29.7148C10.8289 29.7334 10.8059 29.7471 10.7798 29.7549L8.94946 30.5938C8.92493 30.6055 8.89819 30.6113 8.87061 30.6113C8.78857 30.6113 8.73035 30.5732 8.69666 30.498L8.69666 30.5078ZM27.0001 22.1162C26.9779 22.0684 26.9756 22.0195 26.994 21.9697C27.0116 21.9209 27.0446 21.8848 27.0928 21.8613L28.9232 21.0234C28.9691 21.0068 29.0151 21.0098 29.0603 21.0283C29.1063 21.0488 29.1392 21.0801 29.1592 21.125C29.1798 21.1699 29.1829 21.2158 29.1683 21.2627C29.1538 21.3096 29.1255 21.3457 29.0825 21.3701L27.2522 22.209C27.2277 22.2207 27.2017 22.2266 27.1741 22.2275C27.1334 22.2285 27.0967 22.2178 27.063 22.1953C27.03 22.1738 27.0055 22.1445 26.991 22.1074L27.0001 22.1162ZM48.9957 27.8311C49.0179 27.7832 49.054 27.75 49.1029 27.7324C49.152 27.7139 49.201 27.7168 49.2485 27.7383L51.1018 28.5771C51.1425 28.5957 51.1724 28.625 51.1923 28.665C51.2114 28.7061 51.2168 28.7471 51.2076 28.791C51.1984 28.834 51.1761 28.8701 51.1417 28.8984C51.1072 28.9268 51.0674 28.9414 51.0229 28.9424C50.9954 28.9424 50.9694 28.9365 50.944 28.9238L49.0907 28.0859C49.0654 28.0762 49.0432 28.0615 49.024 28.043C49.0049 28.0234 48.9904 28.002 48.9803 27.9766C48.9705 27.9521 48.9658 27.9258 48.9673 27.8984C48.9681 27.8711 48.975 27.8457 48.9865 27.8213L48.9957 27.8311ZM37.9193 22.7852C37.9293 22.7627 37.9438 22.7422 37.9623 22.7246C37.9807 22.707 38.0021 22.6943 38.0259 22.6855C38.0496 22.6768 38.0741 22.6729 38.0994 22.6738C38.1248 22.6748 38.1484 22.6797 38.1714 22.6904L40.0248 23.5312C40.0485 23.542 40.0685 23.5566 40.0861 23.5742C40.1029 23.5928 40.116 23.6133 40.1251 23.6377C40.1343 23.6611 40.1382 23.6855 40.1375 23.7109C40.1366 23.7363 40.1305 23.7607 40.1198 23.7842C40.0983 23.8311 40.0623 23.8643 40.0133 23.8828C39.9642 23.9014 39.9152 23.8994 39.8677 23.8789L38.0144 23.0371C37.9906 23.0273 37.9707 23.0127 37.9531 22.9951C37.9363 22.9766 37.9232 22.9561 37.9141 22.9316C37.9048 22.9082 37.901 22.8838 37.9017 22.8584C37.9025 22.833 37.9087 22.8086 37.9193 22.7852ZM41.6077 24.4639C41.6299 24.417 41.6652 24.3838 41.7141 24.3652C41.7632 24.3467 41.8123 24.3477 41.8597 24.3691L43.7139 25.21C43.7614 25.2314 43.7943 25.2676 43.8119 25.3164C43.8303 25.3662 43.828 25.415 43.8065 25.4629C43.7911 25.4961 43.7675 25.5234 43.7361 25.5439C43.7046 25.5645 43.6702 25.5732 43.6326 25.5732C43.605 25.5732 43.579 25.5684 43.5537 25.5576L41.7003 24.7168C41.6528 24.6943 41.6207 24.6592 41.6023 24.6094C41.5847 24.5605 41.5862 24.5117 41.6077 24.4639ZM34.2311 21.1064C34.2411 21.084 34.2549 21.0635 34.2732 21.0459C34.2916 21.0283 34.3131 21.0146 34.3368 21.0059C34.3606 20.9961 34.3851 20.9932 34.4104 20.9941C34.4364 20.9951 34.4602 21.001 34.4832 21.0117L36.3365 21.8525C36.3595 21.8633 36.3801 21.877 36.3978 21.8955C36.4147 21.9141 36.4276 21.9346 36.4369 21.959C36.446 21.9824 36.4498 22.0068 36.4491 22.0322C36.4484 22.0576 36.4423 22.0811 36.4315 22.1055C36.397 22.1787 36.3396 22.2158 36.2576 22.2158C36.2307 22.2158 36.204 22.2109 36.1794 22.1992L34.3253 21.3594C34.3024 21.3486 34.2825 21.334 34.2648 21.3164C34.2479 21.2979 34.2341 21.2764 34.2257 21.252C34.2166 21.2295 34.2126 21.2051 34.2135 21.1797C34.2142 21.1543 34.2203 21.1299 34.2311 21.1064ZM45.2959 26.1426C45.3181 26.0957 45.3541 26.0625 45.4039 26.0439C45.4537 26.0254 45.5021 26.0264 45.551 26.0479L47.4044 26.8887C47.4512 26.9111 47.484 26.9463 47.5024 26.9951C47.5209 27.0449 47.52 27.0928 47.4994 27.1406C47.4833 27.1758 47.4596 27.2021 47.4274 27.2227C47.396 27.2432 47.3607 27.2529 47.3231 27.252C47.2955 27.252 47.2695 27.2471 47.2443 27.2363L45.3909 26.3955C45.3434 26.373 45.3104 26.3369 45.2914 26.2881C45.2729 26.2393 45.2744 26.1914 45.2959 26.1426ZM54.8667 30.501C54.8323 30.5742 54.774 30.6113 54.6929 30.6113C54.6653 30.6123 54.6392 30.6064 54.6139 30.5938L52.7606 29.7549C52.7131 29.7334 52.6793 29.6973 52.661 29.6484C52.6426 29.5996 52.6442 29.5508 52.6655 29.5029C52.6877 29.4551 52.723 29.4219 52.7721 29.4023C52.8219 29.3848 52.8701 29.3857 52.9185 29.4082L54.7717 30.2461C54.8201 30.2676 54.8538 30.3037 54.8721 30.3535C54.8905 30.4033 54.8889 30.4521 54.8667 30.501ZM63.5266 44.5879C63.5266 48.0283 60.557 51.29 55.1678 53.7666C49.9664 56.1562 42.8887 57.666 35.2225 58.0137L35.1964 58.0137C35.1206 58.0146 35.0479 58.002 34.9773 57.9746C34.9061 57.9473 34.8433 57.9072 34.7888 57.8545C34.7336 57.8027 34.6908 57.7412 34.6609 57.6729C34.6302 57.6025 34.6141 57.5303 34.6118 57.4541C34.6104 57.3779 34.6234 57.3057 34.651 57.2344C34.6785 57.1641 34.7184 57.1006 34.7705 57.0469C34.8234 56.9912 34.8839 56.9482 34.9536 56.918C35.0226 56.8877 35.0953 56.8711 35.1711 56.8691C50.4276 56.1758 62.3805 50.7822 62.3805 44.5977C62.3805 42.6621 61.1936 40.7139 58.9489 38.9707C58.8829 38.9268 58.8285 38.8721 58.7849 38.8047C58.7419 38.7393 58.7136 38.666 58.7006 38.5879C58.6876 38.5098 58.6907 38.4326 58.7098 38.3564C58.7289 38.2783 58.7627 38.209 58.8109 38.1465C58.8591 38.083 58.9182 38.0332 58.9879 37.9941C59.0569 37.9551 59.1312 37.9326 59.2101 37.9248C59.2891 37.917 59.3663 37.9258 59.4414 37.9502C59.5173 37.9746 59.5847 38.0127 59.6437 38.0654C62.1858 40.0273 63.5266 42.2842 63.5266 44.5879ZM30.234 57.4902C30.2286 57.5908 30.1989 57.6836 30.1437 57.7686C30.0892 57.8525 30.0172 57.918 29.9283 57.9648L26.2469 59.8887C26.1803 59.9248 26.1091 59.9473 26.0339 59.9551C25.9581 59.9629 25.8846 59.9551 25.8118 59.9346C25.739 59.9121 25.674 59.877 25.6149 59.8291C25.5559 59.7812 25.5092 59.7246 25.4731 59.6572C25.4379 59.5908 25.4165 59.5195 25.4088 59.4443C25.4011 59.3691 25.4081 59.2959 25.4303 59.2227C25.4517 59.1514 25.4862 59.085 25.5337 59.0264C25.5812 58.9678 25.6387 58.9209 25.7046 58.8848L27.4376 57.9785C11.7137 57.0752 0 51.4053 0 44.5879C0 42.1338 1.51013 39.749 4.36938 37.6885C4.43066 37.6396 4.4989 37.6045 4.57397 37.585C4.64978 37.5635 4.72571 37.5586 4.80298 37.5693C4.88037 37.5801 4.95325 37.6055 5.0199 37.6455C5.08728 37.6855 5.14319 37.7383 5.18921 37.8008C5.23511 37.8643 5.2666 37.9336 5.28345 38.0098C5.30103 38.0859 5.30176 38.1631 5.28796 38.2393C5.27344 38.3164 5.24512 38.3877 5.20142 38.4521C5.15857 38.5176 5.10413 38.5713 5.03906 38.6143C2.49231 40.4531 1.15845 42.5176 1.15845 44.5879C1.15845 50.7246 12.7419 56.0361 27.7295 56.8369L25.9666 55.6377C25.9037 55.5957 25.8517 55.542 25.8094 55.4785C25.7682 55.415 25.7397 55.3467 25.726 55.2715C25.7114 55.1973 25.7122 55.123 25.7275 55.0479C25.7428 54.9736 25.772 54.9053 25.8148 54.8418C25.8578 54.7793 25.9106 54.7275 25.9742 54.6855C26.0378 54.6436 26.1068 54.6162 26.1812 54.6016C26.2562 54.5879 26.3304 54.5879 26.4048 54.6035C26.4791 54.6191 26.5481 54.6484 26.611 54.6904L29.9843 56.9824C30.067 57.04 30.1313 57.1133 30.1758 57.2031C30.2202 57.2939 30.2402 57.3896 30.234 57.4902Z" fill="url(#paint_linear_9_190_0)" fill-opacity="1.000000" fill-rule="nonzero"/>
</svg>
