<svg width="47.639648" height="6.950195" viewBox="0 0 47.6396 6.9502" fill="none" xmlns="http://www.w3.org/2000/svg" xmlns:xlink="http://www.w3.org/1999/xlink">
	<desc>
			Created with Pixso.
	</desc>
	<defs>
		<linearGradient id="paint_linear_10_222_0" x1="0.000000" y1="3.475342" x2="47.639614" y2="3.475342" gradientUnits="userSpaceOnUse">
			<stop stop-color="#0CBAF1"/>
			<stop offset="1.000000" stop-color="#E95CE9"/>
		</linearGradient>
	</defs>
	<path id="Vector" d="M43.4712 1.85059C42.9618 1.875 42.4524 1.89844 41.9434 1.9248C40.7842 1.98535 39.6243 2.03613 38.4666 2.11328C37.5983 2.1709 36.7351 2.27734 35.8738 2.3916C35.6444 2.42285 35.4077 2.40723 35.1798 2.44336C33.0256 2.77637 30.8406 2.87891 28.6801 3.16602C27.7031 3.29688 26.7185 3.37305 25.7456 3.52832C23.5829 3.87305 21.396 4.07812 19.2278 4.39551C17.7826 4.60645 16.337 4.81738 14.8911 5.02637C13.4219 5.23828 11.9519 5.44434 10.483 5.65723C9.30151 5.83008 8.12048 6.00391 6.94177 6.18945C6.35718 6.28125 5.76514 6.29883 5.17761 6.36035C4.104 6.47168 3.03784 6.63672 1.96045 6.72168C1.79932 6.74902 1.64148 6.7373 1.48669 6.68945C1.31885 6.62598 1.12024 6.69238 0.935059 6.69922L0 6.73145C0.223022 6.6377 0.45752 6.5918 0.703125 6.5918C0.924316 6.56445 1.08545 6.5166 1.08984 6.28027C1.09021 6.25586 1.12585 6.23145 1.17175 6.17383L0.0325928 6.28418C0.209351 6.14355 0.259644 6.12988 0.794678 6.0791C1.05066 6.07129 1.30212 6.03418 1.54858 5.9707C1.79675 5.88965 1.99902 5.71875 2.28906 5.68457C2.19165 5.61133 2.10608 5.64453 1.979 5.62012C2.35693 5.5498 2.68884 5.48828 3.02075 5.42676C3.07556 5.41602 3.13708 5.4209 3.17151 5.36621C3.21936 5.29004 2.9718 5.15723 3.24304 5.11426C3.36011 5.09668 3.36377 4.91406 3.50232 4.87305C3.57349 4.85254 3.62683 4.79883 3.59387 4.72852C3.5575 4.64844 3.47229 4.68848 3.41016 4.69531C2.96143 4.74707 2.51318 4.80273 2.06458 4.85742C1.89783 4.89258 1.73596 4.87891 1.57971 4.81543C1.73889 4.78906 1.89856 4.76465 2.0575 4.73633C2.22949 4.70508 2.39795 4.66797 2.56958 4.63867C3.38159 4.50586 4.19324 4.37109 5.00647 4.24414C6.35901 4.03125 7.71228 3.82715 9.06262 3.61719C10.0703 3.45996 11.0742 3.28418 12.0848 3.14551C12.8073 3.0459 13.5275 2.92773 14.2479 2.81836C14.9907 2.70605 15.7328 2.57715 16.4767 2.46973C17.2435 2.3584 18.0115 2.24121 18.7803 2.13477C19.5712 2.02441 20.3632 1.9248 21.1534 1.81152C22.5426 1.61328 23.9393 1.47559 25.3337 1.32324C26.8911 1.1543 28.4508 1 30.0111 0.853516C31.2711 0.734375 32.5333 0.634766 33.7943 0.529297C34.6489 0.458008 35.5066 0.407227 36.3624 0.371094C38.0325 0.298828 39.7002 0.19043 41.3713 0.132812C43.264 0.0683594 45.1575 0.0488281 47.0505 0.000976562C47.2495 -0.00488281 47.4459 0.0136719 47.6396 0.0556641C47.354 0.0839844 47.0687 0.126953 46.782 0.136719C46.1788 0.15625 45.5717 0.12207 44.9719 0.177734C44.1843 0.25 43.3918 0.168945 42.6095 0.266602C42.1727 0.322266 41.7333 0.350586 41.2921 0.352539C41.2692 0.352539 41.2384 0.348633 41.2244 0.359375C40.8943 0.629883 40.4752 0.485352 40.1029 0.556641C39.6725 0.640625 39.2375 0.698242 38.7986 0.729492C37.3867 0.826172 35.9752 0.927734 34.5649 1.04492C32.8638 1.1875 31.1615 1.32227 29.4673 1.52441C29.3695 1.53613 29.2546 1.51758 29.1665 1.62207C29.2672 1.7002 29.3848 1.66699 29.4858 1.66016C30.755 1.58398 32.0239 1.50391 33.2927 1.4209C33.6283 1.39941 33.9655 1.38477 34.299 1.34668C34.7272 1.31641 35.1536 1.32715 35.5792 1.37988C35.6945 1.39062 35.8104 1.39355 35.9264 1.38574C37.5123 1.26465 39.1045 1.22363 40.692 1.12793C41.0498 1.08496 41.4088 1.07617 41.7689 1.09961C42.1505 1.14941 42.5472 1.10059 42.9192 1.27539C43.1823 1.38184 43.4556 1.41406 43.7397 1.37305C43.875 1.35449 44.0083 1.3623 44.1395 1.39746C44.0117 1.47461 43.8716 1.50586 43.7194 1.49316C43.6494 1.48828 43.5819 1.49805 43.5164 1.52148C43.2771 1.58398 43.2704 1.61621 43.449 1.79102C43.4626 1.80469 43.4615 1.83008 43.4679 1.84961L43.4712 1.85059ZM16.3448 5.15039C16.2426 5.10059 16.1337 5.06934 16.0181 5.05859C15.9025 5.04785 15.7891 5.05762 15.6776 5.08691C15.4067 5.14551 15.1338 5.19141 14.8578 5.22266C13.8308 5.33496 12.8147 5.50977 11.793 5.65332C9.11743 6.02832 6.44531 6.4248 3.76025 6.74121C3.69604 6.74902 3.61609 6.73535 3.58533 6.7959C3.59424 6.82324 3.60828 6.84668 3.6272 6.86914C3.64648 6.89062 3.66907 6.9082 3.69568 6.92188C3.72241 6.93555 3.75061 6.94434 3.78088 6.94824C3.81128 6.95215 3.84131 6.95117 3.87097 6.94434C4.24915 6.88965 4.63269 6.86328 5.01196 6.8125C7.14807 6.52832 9.27234 6.1709 11.4165 5.93652C11.5199 5.9248 11.6215 5.89844 11.7244 5.88477C12.5254 5.78125 13.313 5.60938 14.1146 5.50879C14.77 5.42578 15.4224 5.32422 16.0754 5.22656C16.1714 5.22363 16.2577 5.19531 16.3341 5.14258L16.3448 5.15039ZM14.6763 5.33887C14.6437 5.36426 14.6062 5.37891 14.5636 5.38379C14.5214 5.3877 14.481 5.38086 14.4432 5.3623C14.5173 5.32617 14.5951 5.31836 14.6763 5.33887ZM16.3341 5.14258C16.4119 5.16895 16.4911 5.17188 16.5715 5.15234C17.0846 5.07422 17.5984 4.99707 18.113 4.92773C19.3396 4.7627 20.5667 4.60059 21.7939 4.44043C22.1136 4.39844 22.4337 4.35645 22.7623 4.31348C22.6678 4.27246 22.5686 4.25098 22.4637 4.25C22.3593 4.24805 22.2593 4.26758 22.1637 4.30566C21.9254 4.39258 21.6394 4.36719 21.3754 4.40137C21.006 4.4248 20.6406 4.47461 20.2799 4.5498C20.0012 4.63086 19.7183 4.64844 19.4304 4.60254L19.9631 4.52148C19.3629 4.56348 18.7668 4.63477 18.1753 4.73535C17.6648 4.7959 17.1558 4.87988 16.6445 4.94336C16.5522 4.9541 16.4623 4.97266 16.3744 4.99902C16.2852 5.02832 16.2941 5.08984 16.3436 5.15039L16.3341 5.14258ZM17.7633 4.86035C17.9811 4.78516 18.2064 4.75781 18.4382 4.78027C18.2186 4.84277 17.9938 4.87012 17.7637 4.86035L17.7633 4.86035ZM35.2692 2.77344L37.5945 2.54785L37.5923 2.52734L35.2758 2.75195L35.2692 2.77344ZM44.5426 1.74023C44.5848 1.83105 44.6726 1.81738 44.7507 1.80762C44.9701 1.79785 45.1868 1.77051 45.4001 1.72363L44.5414 1.74023L44.5426 1.74023ZM21.984 4.24512L21.2068 4.32031L21.2101 4.34863L21.9873 4.27246L21.984 4.24512ZM44.5414 1.74023C44.1825 1.77344 43.8135 1.71875 43.4679 1.85059C43.4697 1.85059 43.4712 1.84961 43.4727 1.84961C43.8353 1.85938 44.1921 1.82324 44.5433 1.74023L44.5414 1.74023ZM33.7828 2.91211L34.2504 2.86719L34.2482 2.85156L33.7739 2.89746L33.7828 2.91211ZM29.6484 3.30957L29.178 3.35547L29.1802 3.375L29.6473 3.3291L29.6484 3.30957ZM24.795 3.89551C24.6024 3.92383 24.4624 3.88574 24.3386 3.96191C24.499 3.98828 24.6514 3.9668 24.795 3.89551ZM30.0737 3.28125L30.4772 3.24219C30.3394 3.22559 30.205 3.23828 30.0737 3.28125ZM24.5787 4.07129L24.9703 4.0332C24.8398 4.02051 24.6995 3.94336 24.5787 4.07129ZM31.912 3.07324C31.776 3.07227 31.6482 3.10059 31.5286 3.1582C31.6857 3.12402 31.786 3.14844 31.912 3.07324ZM34.6163 2.83691C34.6975 2.84766 34.7745 2.83594 34.8475 2.80176C34.7667 2.80469 34.6849 2.78516 34.6171 2.83691L34.6163 2.83691ZM23.6329 4.05078C23.6692 4.04688 23.6692 4.02637 23.6211 4.00879L23.2854 4.06348C23.451 4.05762 23.5425 4.05859 23.6329 4.05078ZM23.4822 4.18066C23.6122 4.19336 23.7371 4.17383 23.856 4.12402C23.7018 4.13867 23.6096 4.08594 23.4822 4.18066ZM27.9587 3.53906C27.895 3.52441 27.8347 3.53125 27.7772 3.56055C27.8422 3.56445 27.9025 3.5791 27.9587 3.53906ZM26.0323 3.73926L26.1984 3.72266L26.0327 3.7168L26.0323 3.73926ZM31.1089 3.17383C31.1344 3.18359 31.1615 3.18652 31.1892 3.18359C31.217 3.18066 31.2418 3.1709 31.264 3.1543C31.2063 3.14746 31.1504 3.12891 31.1082 3.17383L31.1089 3.17383ZM28.8483 3.39258C28.826 3.39062 28.8042 3.39062 28.782 3.39258C28.7664 3.39551 28.7516 3.40234 28.7379 3.41016L28.8049 3.41406C28.8193 3.40723 28.8335 3.39941 28.8479 3.39258L28.8483 3.39258Z" fill="url(#paint_linear_10_222_0)" fill-opacity="1.000000" fill-rule="nonzero"/>
</svg>
