<svg width="21.500000" height="19.500000" viewBox="0 0 21.5 19.5" fill="none" xmlns="http://www.w3.org/2000/svg" xmlns:xlink="http://www.w3.org/1999/xlink">
	<desc>
			Created with Pixso.
	</desc>
	<defs/>
	<path id="Combined-Shape" d="M15.659 0C18.989 0 21.5 2.7168 21.5 6.32031L21.5 13.1875C21.5 15.0312 20.848 16.6973 19.663 17.8809C18.6 18.9395 17.221 19.5 15.675 19.5L5.82202 19.5C4.27899 19.5 2.901 18.9395 1.83698 17.8809C0.651978 16.6973 0 15.0312 0 13.1875L0 6.32031C0 2.7168 2.51099 0 5.841 0L15.659 0ZM15.659 1.5L5.841 1.5C3.32599 1.5 1.5 3.52734 1.5 6.32031L1.5 13.1875C1.5 14.6309 1.99597 15.9199 2.896 16.8164C3.672 17.5918 4.685 18 5.82501 18L15.659 18C15.661 17.998 15.669 18 15.675 18C16.816 18 17.828 17.5918 18.604 16.8164C19.505 15.9199 20 14.6309 20 13.1875L20 6.32031C20 3.52734 18.174 1.5 15.659 1.5ZM17.235 6.12891C17.496 6.44922 17.447 6.92188 17.126 7.18359L12.682 10.7949C12.12 11.2422 11.448 11.4648 10.777 11.4648C10.108 11.4648 9.44098 11.2441 8.883 10.8027L4.39801 7.18555C4.07501 6.92578 4.02502 6.45312 4.284 6.13086C4.54498 5.81055 5.01703 5.75977 5.33899 6.01758L9.82001 9.62891C10.383 10.0762 11.176 10.0762 11.743 9.625L16.179 6.01953C16.501 5.75586 16.973 5.80664 17.235 6.12891Z" fill="#FFFFFF" fill-opacity="1.000000" fill-rule="evenodd"/>
</svg>
