<svg width="68.988892" height="44.801758" viewBox="0 0 68.9889 44.8018" fill="none" xmlns="http://www.w3.org/2000/svg" xmlns:xlink="http://www.w3.org/1999/xlink">
	<desc>
			Created with Pixso.
	</desc>
	<defs>
		<linearGradient id="paint_linear_9_173_0" x1="0.000000" y1="22.401039" x2="68.988907" y2="22.401039" gradientUnits="userSpaceOnUse">
			<stop stop-color="#0CBAF1"/>
			<stop offset="1.000000" stop-color="#E95CE9"/>
		</linearGradient>
	</defs>
	<path id="Vector" d="M19.863 23.0498C16.4706 23.0498 13.7063 25.457 13.7063 28.415C13.7063 31.373 16.4656 33.7812 19.863 33.7812C23.2605 33.7812 26.0199 31.375 26.0199 28.415C26.0199 25.4551 23.2588 23.0498 19.863 23.0498ZM19.863 23.9385C22.4968 23.9385 24.6838 25.5918 25.0665 27.7432C24.8727 30.0586 22.6133 31.8916 19.863 31.8916C17.1136 31.8916 14.8468 30.0586 14.6597 27.7432C15.0498 25.5918 17.2292 23.9385 19.863 23.9385ZM19.863 32.8936C17.444 32.8936 15.4009 31.4951 14.7894 29.6006C15.7153 31.2197 17.642 32.334 19.863 32.334C22.0842 32.334 24.0109 31.2178 24.9368 29.6006C24.3253 31.4951 22.2822 32.8936 19.863 32.8936ZM48.5415 23.0498C45.149 23.0498 42.3855 25.457 42.3855 28.415C42.3855 31.373 45.144 33.7812 48.5415 33.7812C51.9398 33.7812 54.6984 31.375 54.6984 28.415C54.6984 25.4551 51.9323 23.0498 48.5415 23.0498ZM48.5415 23.9385C51.1753 23.9385 53.3623 25.5918 53.745 27.7432C53.5511 30.0586 51.2917 31.8916 48.5415 31.8916C45.7921 31.8916 43.5253 30.0586 43.338 27.7432C43.7216 25.5918 45.9077 23.9385 48.5415 23.9385ZM48.5415 32.8936C46.1224 32.8936 44.0792 31.4951 43.4686 29.6006C44.3937 31.2197 46.3212 32.334 48.5415 32.334C50.7627 32.334 52.6876 31.2178 53.6152 29.6006C53.0021 31.4951 50.9614 32.8936 48.5415 32.8936ZM68.9884 3.49805C68.9884 3.47949 68.9884 3.46191 68.9884 3.44336L68.9884 3.26074C68.9926 3.16504 68.9677 3.07812 68.9136 3C68.3412 0.107422 65.8489 0.294922 65.8214 0.296875C65.759 0.301758 65.7025 0.322266 65.6509 0.358398C65.5994 0.394531 65.5603 0.44043 65.5344 0.49707L64.7816 2.06836C64.3765 1.74023 63.9298 1.4873 63.4398 1.30859C62.9507 1.13086 62.4457 1.03613 61.9249 1.02441L6.65356 1.02441C6.23254 1.03613 5.82495 1.11719 5.43066 1.26855C5.03723 1.41992 4.6803 1.63281 4.35999 1.90625L3.54565 0.205078C3.51904 0.148438 3.479 0.102539 3.42749 0.0664062C3.37585 0.0302734 3.31934 0.00878906 3.2561 0.00292969C3.22864 0.00292969 0.609009 -0.195312 0.127441 2.93555C0.0400391 3.02637 -0.00244141 3.13574 0.00012207 3.26074L0.889404 28.4307C0.891113 28.4756 0.899414 28.5186 0.914307 28.5605L5.64856 42.2852C5.68274 42.3818 5.74268 42.458 5.82825 42.5137C6.0105 42.9561 6.28088 43.3359 6.64026 43.6523C7.28748 44.2168 8.16345 44.502 9.25317 44.502C9.5177 44.501 9.78137 44.4854 10.0443 44.4531C10.0892 44.4482 10.1316 44.4365 10.1716 44.415C10.2115 44.3945 10.2456 44.3672 10.2755 44.333C10.3047 44.2988 10.3271 44.2607 10.3422 44.2178C10.3562 44.1758 10.3629 44.1318 10.3612 44.0869L10.2015 40.4434L24.8295 40.4434C24.9135 40.4434 24.9908 40.4219 25.0624 40.3779C25.1339 40.335 25.1888 40.2754 25.2262 40.2002L29.048 32.5635L39.5031 32.5635C39.5288 32.5654 39.5547 32.5654 39.5804 32.5635L43.4047 40.2051C43.4437 40.2793 43.4987 40.3379 43.5702 40.3818C43.6417 40.4258 43.7198 40.4482 43.8031 40.4492L58.8868 40.4492L58.7189 44.3877C58.7163 44.4326 58.723 44.4756 58.7371 44.5186C58.7521 44.5615 58.7737 44.5996 58.8029 44.6338C58.8319 44.668 58.8669 44.6953 58.9069 44.7168C58.9459 44.7383 58.9884 44.751 59.0333 44.7559C59.2961 44.7852 59.5598 44.8008 59.8243 44.8018C60.9142 44.8018 61.7926 44.5176 62.4374 43.9551C62.741 43.6797 62.9847 43.3594 63.1686 42.9932C63.3516 42.6279 63.4623 42.2402 63.5005 41.833L68.0609 28.5742C68.0759 28.5322 68.0842 28.4893 68.0858 28.4443L68.9611 3.64648C68.9818 3.59863 68.991 3.5498 68.9884 3.49805ZM6.67017 1.9043L61.9332 1.9043C62.3883 1.91406 62.8267 2.00391 63.2484 2.17578C63.6693 2.3457 64.047 2.58594 64.3806 2.89453L63.7509 4.21484L5.47314 4.21484L4.75928 2.73535C5.01306 2.48145 5.30505 2.2832 5.63525 2.1416C5.96558 1.99902 6.31079 1.92285 6.67017 1.91309L6.67017 1.9043ZM60.1281 11.8564L59.9957 14.9033L59.2039 14.9033C59.2096 12.3418 59.0574 9.79004 58.7479 7.24805C58.7413 7.20117 58.7205 7.16016 58.688 7.125C58.6548 7.09082 58.6149 7.06836 58.5682 7.05957C46.2847 4.93066 37.3618 7.04395 37.2794 7.05957C37.1963 7.08105 37.1422 7.13379 37.118 7.2168C36.9442 7.94238 36.8252 8.67676 36.7595 9.41992L32.3929 9.41992C32.2789 8.0752 32.165 7.25195 32.165 7.24316C32.1575 7.19629 32.1376 7.15527 32.1042 7.12012C32.0702 7.08496 32.0303 7.06348 31.9828 7.05469C19.7017 4.92578 10.7764 7.03613 10.694 7.05469C10.6108 7.07617 10.5568 7.12891 10.5326 7.21191C10.5051 7.3125 9.86877 9.68262 9.97607 14.8945L9.09351 14.8945L8.95032 11.5566C8.94788 11.5088 8.93628 11.4629 8.91541 11.4189L5.8075 4.93262L63.4115 4.93262L60.1621 11.7207C60.1422 11.7637 60.1313 11.8096 60.1281 11.8564ZM47.0641 9.62305C47.0225 9.56152 46.9692 9.51465 46.9036 9.47949C46.8386 9.44434 46.7688 9.42578 46.6947 9.4248L37.1979 9.4248C37.2628 8.7666 37.366 8.11328 37.5057 7.4668C38.6454 7.2168 47.0233 5.54004 58.3195 7.4668C58.6099 9.93652 58.7571 12.4141 58.7595 14.9004L45.9535 14.9004L45.9535 12.7715L47.094 10.04C47.1556 9.89648 47.1456 9.75684 47.0641 9.62305ZM21.5251 10.042L22.6656 12.7744L22.6656 14.9053L10.4211 14.9053C10.3271 10.4199 10.8013 8.02441 10.9294 7.46875C12.0691 7.21875 20.447 5.54297 31.7457 7.46875C31.7823 7.76465 31.8639 8.45508 31.9462 9.4248L21.9386 9.4248C21.902 9.42578 21.8662 9.43164 21.8313 9.44141C21.7964 9.45117 21.7631 9.46484 21.7314 9.48242C21.6998 9.5 21.6708 9.52051 21.6442 9.5459C21.6176 9.57129 21.5942 9.59863 21.5742 9.62793C21.5543 9.6582 21.5376 9.69043 21.5251 9.72461C21.5127 9.75781 21.5052 9.79395 21.5011 9.8291C21.4968 9.86523 21.4968 9.90137 21.5018 9.9375C21.506 9.97363 21.5151 10.0088 21.5277 10.042L21.5251 10.042ZM2.99658 0.706055L3.85596 2.50684C3.84094 2.58496 3.84595 2.66016 3.87 2.73438C3.89502 2.80957 3.93579 2.87305 3.99316 2.92676C4.02063 2.95117 4.05139 2.9707 4.08386 2.98828L4.91406 4.72266L8.24329 11.6699L8.3822 14.9033L5.92896 14.9033C5.86902 14.9053 5.8125 14.917 5.75757 14.9414C5.70349 14.9648 5.65527 14.998 5.61365 15.04C5.57202 15.083 5.54053 15.1318 5.51807 15.1865C5.49561 15.2422 5.48389 15.2988 5.48389 15.3584L5.48389 20.9824C5.48804 21.082 5.52051 21.1719 5.58289 21.25C5.64526 21.3281 5.7251 21.3799 5.82166 21.4062C6.80322 21.6836 7.73828 22.0742 8.62598 22.5762L9.06433 32.6406C8.1925 33.0234 7.27991 33.2061 6.32739 33.1875C6.20178 33.1826 6.09204 33.2227 5.99963 33.3076C5.98474 33.3213 5.97144 33.3369 5.96057 33.3535L5.09875 12.2988C5.09619 12.25 5.08545 12.2041 5.06458 12.1602L0.893555 3.36328L0.893555 3.23145C0.891846 3.16211 0.873535 3.09668 0.839478 3.03516C1.15393 1.01855 2.49243 0.743164 2.99817 0.712891L2.99658 0.706055ZM9.9303 32.1279L9.54102 23.1416C11.4968 24.541 12.3519 26.2744 12.0833 28.2969C11.8229 30.2705 10.9452 31.4414 9.93286 32.1445L9.9303 32.1279ZM0.957642 5.15723L4.3916 12.3984L5.47314 39.0625L1.77612 28.332L0.957642 5.15723ZM9.63672 43.7754C8.54602 43.8438 7.69836 43.625 7.12854 43.1221C6.85486 42.8828 6.64771 42.5957 6.50793 42.2607C6.53455 42.1729 6.53455 42.085 6.50793 41.9971L6.30249 41.4023L6.26416 40.4307L9.51111 40.4307L9.63672 43.7754ZM29.4929 31.668L29.8208 31.0127C29.8348 30.9873 29.8457 30.9609 29.8531 30.9326L29.864 30.8926L38.7577 30.8926L38.7827 30.9561C38.7885 30.9756 38.796 30.9941 38.8052 31.0127L39.1337 31.668L29.4929 31.668ZM30.2882 30.0049C30.4755 29.6904 30.7009 29.4062 30.9637 29.1514C31.2274 28.8984 31.5187 28.6836 31.8397 28.5068C32.1609 28.332 32.4985 28.2002 32.8546 28.1152C33.2107 28.0293 33.5709 27.9922 33.9369 28.0029C35.5059 27.9639 36.792 28.4395 37.7587 29.4258C37.9341 29.6064 38.0956 29.7988 38.2419 30.0049L30.2882 30.0049ZM39.6171 30.6367C39.4706 30.2549 38.1122 27.0068 33.9395 27.1143C30.8855 27.1143 29.5928 29.2773 29.1686 30.2412C29.1577 30.2627 29.1477 30.2842 29.1394 30.3076C29.0729 30.4658 29.0297 30.584 29.0114 30.6484L24.5541 39.5469L6.745 39.5469L6.745 34.0615C7.7583 34.0059 8.72241 33.7617 9.63831 33.3262C9.69995 33.3125 9.75562 33.2852 9.80469 33.2461C11.228 32.502 12.619 31.0947 12.9751 28.4307C13.401 25.2432 11.3488 23.1934 9.36963 21.9922C9.32471 21.9492 9.27319 21.918 9.21497 21.8975C8.31812 21.374 7.37476 20.9541 6.38489 20.6387L6.38489 15.792L23.1357 15.792C23.1956 15.792 23.2538 15.7803 23.3096 15.7568C23.3661 15.7334 23.4152 15.7012 23.4576 15.6582C23.5009 15.6152 23.5333 15.5664 23.5566 15.5107C23.58 15.4551 23.5916 15.3965 23.5916 15.3359L23.5916 12.6826C23.5916 12.623 23.58 12.5654 23.5575 12.5098L22.6316 10.3125L46.0242 10.3125L45.0984 12.5098C45.0759 12.5654 45.0642 12.623 45.0642 12.6826L45.0642 15.3477C45.0642 15.4072 45.0759 15.4658 45.0991 15.5215C45.1224 15.5771 45.1549 15.627 45.1981 15.6689C45.2406 15.7119 45.2897 15.7451 45.3462 15.7686C45.402 15.791 45.4602 15.8027 45.5201 15.8027L60.0116 15.8027C60.0398 15.8623 60.0814 15.9102 60.1364 15.9453C60.1913 15.9814 60.2511 16.001 60.3169 16.0029C60.3884 16.0068 60.4541 15.9912 60.5157 15.9551C60.5764 15.918 60.6222 15.8672 60.6521 15.8027L62.251 15.8027L62.251 20.6387C61.4042 20.9092 60.5897 21.2568 59.8086 21.6797C59.7379 21.6973 59.6763 21.7305 59.6239 21.7793C57.5442 22.9541 55.2065 25.0498 55.6583 28.4307C56.0435 31.3203 57.6465 32.7324 59.188 33.4189C59.2429 33.46 59.3036 33.4863 59.371 33.4971C60.1754 33.8242 61.0115 34.0127 61.8792 34.0615L61.8792 39.5469L44.0768 39.5469L39.6171 30.6367ZM56.55 28.3125C56.2672 26.1992 57.2114 24.4023 59.3569 22.9727L59.4575 22.9072L59.0466 32.3721C57.9186 31.7051 56.8396 30.498 56.55 28.3125ZM61.9657 43.4111C61.3817 43.916 60.5382 44.1348 59.4459 44.0664L59.6031 40.4229L62.3392 40.4229C62.3983 40.4219 62.454 40.4102 62.5081 40.3867C62.5621 40.3643 62.6095 40.3311 62.6511 40.29C62.6919 40.249 62.7244 40.2021 62.7477 40.1475C62.7701 40.0938 62.7826 40.0381 62.7843 39.9795L62.7843 33.6045C62.7843 33.543 62.7726 33.4844 62.7485 33.4287C62.7244 33.373 62.6902 33.3232 62.6461 33.2812C62.6021 33.2393 62.5513 33.208 62.4939 33.1875C62.4365 33.166 62.3774 33.1562 62.3168 33.1602C61.4932 33.1807 60.6946 33.0488 59.9226 32.7617L60.3784 22.3516C61.1571 21.9531 61.9681 21.6377 62.8116 21.4062C62.9091 21.3799 62.9889 21.3262 63.0504 21.2461C63.1128 21.167 63.1444 21.0771 63.147 20.9756L63.147 15.3477C63.147 15.2871 63.1353 15.2314 63.1128 15.1748C63.0903 15.1201 63.0587 15.0723 63.0172 15.0293C62.9756 14.9863 62.9274 14.9531 62.8733 14.9297C62.8184 14.9053 62.7618 14.8936 62.7019 14.8916L60.7095 14.8916L60.8368 11.9473L66.0811 0.991211C66.5602 1.01367 67.7755 1.25293 68.1815 2.97852C68.1307 3.05176 68.1034 3.13184 68.0991 3.2207L68.0767 3.87598L64.0129 12.4512C63.993 12.4941 63.9813 12.54 63.9789 12.5869L62.8208 41.0498L62.4972 41.9854C62.4698 42.0693 62.4673 42.1533 62.4889 42.2383C62.5106 42.3242 62.5538 42.3965 62.6179 42.457C62.479 42.8291 62.261 43.1465 61.9631 43.4111L61.9657 43.4111ZM63.6187 38.7109L64.6793 12.6816L68.001 5.67285L67.2007 28.3242L63.6187 38.7109Z" fill="url(#paint_linear_9_173_0)" fill-opacity="1.000000" fill-rule="nonzero"/>
</svg>
