<svg width="2994.513672" height="1458.003906" viewBox="0 0 2994.51 1458" fill="none" xmlns="http://www.w3.org/2000/svg" xmlns:xlink="http://www.w3.org/1999/xlink">
	<desc>
			Created with Pixso.
	</desc>
	<defs/>
	<g opacity="0.200000">
		<path id="Vector" d="" fill="#FFFFFF" fill-opacity="0.400000" fill-rule="nonzero"/>
		<path id="Vector" d="M1496.81 0.4375L2993.61 729.221L2994.51 728.782L1497.71 0L1496.81 0.4375Z" fill="#FFFFFF" fill-opacity="0.400000" fill-rule="evenodd"/>
	</g>
	<g opacity="0.200000">
		<path id="Vector" d="" fill="#FFFFFF" fill-opacity="0.400000" fill-rule="nonzero"/>
		<path id="Vector" d="M1408.76 43.3066L2905.57 772.09L2906.47 771.651L1409.66 42.8691L1408.76 43.3066Z" fill="#FFFFFF" fill-opacity="0.400000" fill-rule="evenodd"/>
	</g>
	<g opacity="0.200000">
		<path id="Vector" d="" fill="#FFFFFF" fill-opacity="0.400000" fill-rule="nonzero"/>
		<path id="Vector" d="M1320.71 86.1768L2817.52 814.96L2818.42 814.521L1321.61 85.7393L1320.71 86.1768Z" fill="#FFFFFF" fill-opacity="0.400000" fill-rule="evenodd"/>
	</g>
	<g opacity="0.200000">
		<path id="Vector" d="" fill="#FFFFFF" fill-opacity="0.400000" fill-rule="nonzero"/>
		<path id="Vector" d="M1232.66 129.046L2729.47 857.829L2730.37 857.391L1233.56 128.608L1232.66 129.046Z" fill="#FFFFFF" fill-opacity="0.400000" fill-rule="evenodd"/>
	</g>
	<g opacity="0.200000">
		<path id="Vector" d="" fill="#FFFFFF" fill-opacity="0.400000" fill-rule="nonzero"/>
		<path id="Vector" d="M1144.62 171.916L2641.42 900.699L2642.32 900.261L1145.52 171.479L1144.62 171.916Z" fill="#FFFFFF" fill-opacity="0.400000" fill-rule="evenodd"/>
	</g>
	<g opacity="0.200000">
		<path id="Vector" d="" fill="#FFFFFF" fill-opacity="0.400000" fill-rule="nonzero"/>
		<path id="Vector" d="M1056.57 214.785L2553.38 943.568L2554.28 943.13L1057.47 214.348L1056.57 214.785Z" fill="#FFFFFF" fill-opacity="0.400000" fill-rule="evenodd"/>
	</g>
	<g opacity="0.200000">
		<path id="Vector" d="" fill="#FFFFFF" fill-opacity="0.400000" fill-rule="nonzero"/>
		<path id="Vector" d="M968.522 257.655L2465.33 986.438L2466.23 986L969.421 257.218L968.522 257.655Z" fill="#FFFFFF" fill-opacity="0.400000" fill-rule="evenodd"/>
	</g>
	<g opacity="0.200000">
		<path id="Vector" d="" fill="#FFFFFF" fill-opacity="0.400000" fill-rule="nonzero"/>
		<path id="Vector" d="M880.474 300.524L2377.28 1029.31L2378.18 1028.87L881.373 300.087L880.474 300.524Z" fill="#FFFFFF" fill-opacity="0.400000" fill-rule="evenodd"/>
	</g>
	<g opacity="0.200000">
		<path id="Vector" d="" fill="#FFFFFF" fill-opacity="0.400000" fill-rule="nonzero"/>
		<path id="Vector" d="M792.426 343.395L2289.23 1072.18L2290.13 1071.74L793.325 342.957L792.426 343.395Z" fill="#FFFFFF" fill-opacity="0.400000" fill-rule="evenodd"/>
	</g>
	<g opacity="0.200000">
		<path id="Vector" d="" fill="#FFFFFF" fill-opacity="0.400000" fill-rule="nonzero"/>
		<path id="Vector" d="M704.38 386.264L2201.19 1115.05L2202.09 1114.61L705.279 385.826L704.38 386.264Z" fill="#FFFFFF" fill-opacity="0.400000" fill-rule="evenodd"/>
	</g>
	<g opacity="0.200000">
		<path id="Vector" d="" fill="#FFFFFF" fill-opacity="0.400000" fill-rule="nonzero"/>
		<path id="Vector" d="M616.332 429.133L2113.14 1157.92L2114.04 1157.48L617.231 428.695L616.332 429.133Z" fill="#FFFFFF" fill-opacity="0.400000" fill-rule="evenodd"/>
	</g>
	<g opacity="0.200000">
		<path id="Vector" d="" fill="#FFFFFF" fill-opacity="0.400000" fill-rule="nonzero"/>
		<path id="Vector" d="M528.285 472.003L2025.09 1200.79L2025.99 1200.35L529.184 471.565L528.285 472.003Z" fill="#FFFFFF" fill-opacity="0.400000" fill-rule="evenodd"/>
	</g>
	<g opacity="0.200000">
		<path id="Vector" d="" fill="#FFFFFF" fill-opacity="0.400000" fill-rule="nonzero"/>
		<path id="Vector" d="M440.237 514.872L1937.04 1243.66L1937.94 1243.22L441.136 514.435L440.237 514.872Z" fill="#FFFFFF" fill-opacity="0.400000" fill-rule="evenodd"/>
	</g>
	<g opacity="0.200000">
		<path id="Vector" d="" fill="#FFFFFF" fill-opacity="0.400000" fill-rule="nonzero"/>
		<path id="Vector" d="M352.189 557.742L1849 1286.53L1849.9 1286.09L353.088 557.305L352.189 557.742Z" fill="#FFFFFF" fill-opacity="0.400000" fill-rule="evenodd"/>
	</g>
	<g opacity="0.200000">
		<path id="Vector" d="" fill="#FFFFFF" fill-opacity="0.400000" fill-rule="nonzero"/>
		<path id="Vector" d="M264.142 600.611L1760.95 1329.39L1761.85 1328.96L265.041 600.174L264.142 600.611Z" fill="#FFFFFF" fill-opacity="0.400000" fill-rule="evenodd"/>
	</g>
	<g opacity="0.200000">
		<path id="Vector" d="" fill="#FFFFFF" fill-opacity="0.400000" fill-rule="nonzero"/>
		<path id="Vector" d="M176.094 643.481L1672.9 1372.26L1673.8 1371.83L176.993 643.044L176.094 643.481Z" fill="#FFFFFF" fill-opacity="0.400000" fill-rule="evenodd"/>
	</g>
	<g opacity="0.200000">
		<path id="Vector" d="" fill="#FFFFFF" fill-opacity="0.400000" fill-rule="nonzero"/>
		<path id="Vector" d="M88.0474 686.351L1584.85 1415.13L1585.75 1414.7L88.9463 685.913L88.0474 686.351Z" fill="#FFFFFF" fill-opacity="0.400000" fill-rule="evenodd"/>
	</g>
	<g opacity="0.200000">
		<path id="Vector" d="" fill="#FFFFFF" fill-opacity="0.400000" fill-rule="nonzero"/>
		<path id="Vector" d="M0 729.221L1496.81 1458L1497.71 1457.57L0.898926 728.783L0 729.221Z" fill="#FFFFFF" fill-opacity="0.400000" fill-rule="evenodd"/>
	</g>
	<g opacity="0.200000">
		<path id="Vector" d="" fill="#FFFFFF" fill-opacity="0.400000" fill-rule="nonzero"/>
		<path id="Vector" d="M1672.9 85.7393L176.095 814.521L176.994 814.96L1673.8 86.1768L1672.9 85.7393Z" fill="#FFFFFF" fill-opacity="0.400000" fill-rule="evenodd"/>
	</g>
	<g opacity="0.200000">
		<path id="Vector" d="" fill="#FFFFFF" fill-opacity="0.400000" fill-rule="nonzero"/>
		<path id="Vector" d="M1760.95 128.608L264.142 857.391L265.041 857.829L1761.85 129.046L1760.95 128.608Z" fill="#FFFFFF" fill-opacity="0.400000" fill-rule="evenodd"/>
	</g>
	<g opacity="0.200000">
		<path id="Vector" d="" fill="#FFFFFF" fill-opacity="0.400000" fill-rule="nonzero"/>
		<path id="Vector" d="M1849 171.479L352.189 900.261L353.088 900.699L1849.9 171.916L1849 171.479Z" fill="#FFFFFF" fill-opacity="0.400000" fill-rule="evenodd"/>
	</g>
	<g opacity="0.200000">
		<path id="Vector" d="" fill="#FFFFFF" fill-opacity="0.400000" fill-rule="nonzero"/>
		<path id="Vector" d="M1937.04 214.348L440.237 943.13L441.136 943.568L1937.94 214.785L1937.04 214.348Z" fill="#FFFFFF" fill-opacity="0.400000" fill-rule="evenodd"/>
	</g>
	<g opacity="0.200000">
		<path id="Vector" d="" fill="#FFFFFF" fill-opacity="0.400000" fill-rule="nonzero"/>
		<path id="Vector" d="M2025.09 257.218L528.284 986L529.183 986.438L2025.99 257.655L2025.09 257.218Z" fill="#FFFFFF" fill-opacity="0.400000" fill-rule="evenodd"/>
	</g>
	<g opacity="0.200000">
		<path id="Vector" d="" fill="#FFFFFF" fill-opacity="0.400000" fill-rule="nonzero"/>
		<path id="Vector" d="M2113.14 300.087L616.332 1028.87L617.231 1029.31L2114.04 300.524L2113.14 300.087Z" fill="#FFFFFF" fill-opacity="0.400000" fill-rule="evenodd"/>
	</g>
	<g opacity="0.200000">
		<path id="Vector" d="" fill="#FFFFFF" fill-opacity="0.400000" fill-rule="nonzero"/>
		<path id="Vector" d="M2201.19 342.957L704.379 1071.74L705.279 1072.18L2202.09 343.395L2201.19 342.957Z" fill="#FFFFFF" fill-opacity="0.400000" fill-rule="evenodd"/>
	</g>
	<g opacity="0.200000">
		<path id="Vector" d="" fill="#FFFFFF" fill-opacity="0.400000" fill-rule="nonzero"/>
		<path id="Vector" d="M2289.22 385.826L792.409 1114.61L793.309 1115.05L2290.12 386.264L2289.22 385.826Z" fill="#FFFFFF" fill-opacity="0.400000" fill-rule="evenodd"/>
	</g>
	<g opacity="0.200000">
		<path id="Vector" d="" fill="#FFFFFF" fill-opacity="0.400000" fill-rule="nonzero"/>
		<path id="Vector" d="M2377.26 428.695L880.457 1157.48L881.356 1157.92L2378.16 429.133L2377.26 428.695Z" fill="#FFFFFF" fill-opacity="0.400000" fill-rule="evenodd"/>
	</g>
	<g opacity="0.200000">
		<path id="Vector" d="" fill="#FFFFFF" fill-opacity="0.400000" fill-rule="nonzero"/>
		<path id="Vector" d="M2465.31 471.565L968.504 1200.35L969.404 1200.79L2466.21 472.003L2465.31 471.565Z" fill="#FFFFFF" fill-opacity="0.400000" fill-rule="evenodd"/>
	</g>
	<g opacity="0.200000">
		<path id="Vector" d="" fill="#FFFFFF" fill-opacity="0.400000" fill-rule="nonzero"/>
		<path id="Vector" d="M2553.36 514.435L1056.55 1243.22L1057.45 1243.66L2554.26 514.872L2553.36 514.435Z" fill="#FFFFFF" fill-opacity="0.400000" fill-rule="evenodd"/>
	</g>
	<g opacity="0.200000">
		<path id="Vector" d="" fill="#FFFFFF" fill-opacity="0.400000" fill-rule="nonzero"/>
		<path id="Vector" d="M2641.41 557.305L1144.6 1286.09L1145.5 1286.53L2642.31 557.742L2641.41 557.305Z" fill="#FFFFFF" fill-opacity="0.400000" fill-rule="evenodd"/>
	</g>
	<g opacity="0.200000">
		<path id="Vector" d="" fill="#FFFFFF" fill-opacity="0.400000" fill-rule="nonzero"/>
		<path id="Vector" d="M2729.45 600.174L1232.65 1328.96L1233.55 1329.39L2730.35 600.611L2729.45 600.174Z" fill="#FFFFFF" fill-opacity="0.400000" fill-rule="evenodd"/>
	</g>
	<g opacity="0.200000">
		<path id="Vector" d="" fill="#FFFFFF" fill-opacity="0.400000" fill-rule="nonzero"/>
		<path id="Vector" d="M2817.5 643.044L1320.69 1371.83L1321.59 1372.26L2818.4 643.481L2817.5 643.044Z" fill="#FFFFFF" fill-opacity="0.400000" fill-rule="evenodd"/>
	</g>
</svg>
