<svg width="101.000000" height="30.000000" viewBox="0 0 101 30" fill="none" xmlns="http://www.w3.org/2000/svg" xmlns:xlink="http://www.w3.org/1999/xlink">
	<desc>
			Created with Pixso.
	</desc>
	<defs>
		<clipPath id="clip52_1457">
			<rect id="Logo" width="38.000000" height="30.000000" fill="white" fill-opacity="0"/>
		</clipPath>
		<linearGradient id="paint_linear_52_1460_0" x1="42.000000" y1="13.500000" x2="103.999985" y2="20.500000" gradientUnits="userSpaceOnUse">
			<stop stop-color="#FFFFFF"/>
			<stop offset="1.000000" stop-color="#FFFFFF" stop-opacity="0.000000"/>
		</linearGradient>
	</defs>
	<rect id="Logo" width="38.000000" height="30.000000" fill="#FFFFFF" fill-opacity="0"/>
	<g clip-path="url(#clip52_1457)">
		<path id="Vector" d="M12.5394 1.53906L28.5614 1.53906L16.782 19.2109L0.76001 19.2109L12.5394 1.53906Z" fill="#19B5F1" fill-opacity="1.000000" fill-rule="nonzero"/>
		<path id="Vector" d="M13.241 20.8457L8.67859 27.6914L25.4606 27.6914L37.24 10.0195L24.8538 10.0195L17.6368 20.8457L13.241 20.8457Z" fill="#CA6AEB" fill-opacity="1.000000" fill-rule="nonzero"/>
	</g>
	<path id="VRNas" d="M42 7L44.6238 7L48.6687 19.8457L48.7124 19.8457L52.7573 7L64.6868 7L66.9169 9.35352L66.9169 14.2695L65.3208 15.9375L67.0044 17.834L67.0044 23L64.468 23L64.468 18.4746L62.8938 16.668L57.9087 16.668L57.9087 23L55.3724 23L55.3724 7.02539L49.9587 23L47.4224 23L42 7ZM70.415 7L68.0974 7L68.0974 23L70.5244 23L70.5244 11.3887L70.5681 11.3887L77.7834 23L80.1011 23L80.1011 7L77.6741 7L77.6741 18.6348L77.6304 18.6348L70.415 7ZM57.9087 14.4746L63.5498 14.4746L64.4243 13.5605L64.4243 10.1543L63.5498 9.24023L57.9087 9.24023L57.9087 14.4746ZM80.8762 20.9648L80.8762 18.2695L82.8221 16.2578L88.4414 16.2578L88.4414 14.5664L87.6323 13.7207L84.1996 13.7207L83.3906 14.5664L83.3906 15.2969L80.9636 15.2969L80.9636 13.9707L83.1938 11.6172L88.6382 11.6172L90.8683 13.9707L90.8683 23L88.6163 23L88.6163 21.2402L86.8671 23L82.8221 23L80.8762 20.9648ZM91.2047 19.4805L91.2047 20.875L93.2162 23L99.0104 23L101 20.9199L101 18.291L99.0322 16.2109L94.3531 16.2109L93.7191 15.5488L93.7191 14.4062L94.3313 13.7422L97.7422 13.7422L98.3544 14.4062L98.3544 15.1367L100.781 15.1367L100.781 13.7422L98.7698 11.6172L93.2819 11.6172L91.2921 13.6973L91.2921 16.2578L93.238 18.3145L97.939 18.3145L98.573 18.9766L98.573 20.2109L97.9608 20.875L94.2439 20.875L93.6316 20.2109L93.6316 19.4805L91.2047 19.4805ZM86.6266 20.9648L88.4414 19.1367L88.4414 18.1777L84.0028 18.1777L83.3032 18.8848L83.3032 20.2793L83.9591 20.9648L86.6266 20.9648Z" fill="url(#paint_linear_52_1460_0)" fill-opacity="1.000000" fill-rule="evenodd"/>
</svg>
