<svg width="48.000000" height="48.000000" viewBox="0 0 48 48" fill="none" xmlns="http://www.w3.org/2000/svg" xmlns:xlink="http://www.w3.org/1999/xlink">
	<desc>
			Created with Pixso.
	</desc>
	<defs>
		<linearGradient id="paint_linear_84_3465_0" x1="0.000000" y1="24.000000" x2="48.000000" y2="24.000000" gradientUnits="userSpaceOnUse">
			<stop stop-color="#0CBAF1"/>
			<stop offset="1.000000" stop-color="#E95CE9"/>
		</linearGradient>
	</defs>
	<path id="Vector" d="M45.835 7.875L36 7.875C35.6115 7.875 35.2969 8.18945 35.2969 8.57812C35.2969 8.9668 35.6115 9.28125 36 9.28125L45.835 9.28125C46.2535 9.28125 46.5938 9.62109 46.5938 10.04L46.5938 37.1162C46.5938 37.5352 46.2535 37.875 45.835 37.875L2.16504 37.875C1.74646 37.875 1.40625 37.5352 1.40625 37.1162L1.40625 10.04C1.40625 9.62109 1.74646 9.28125 2.16504 9.28125L17.6133 9.28125L17.6133 10.6875L3.51562 10.6875C3.12708 10.6875 2.8125 11.002 2.8125 11.3906L2.8125 29.9688C2.8125 30.3574 3.12708 30.6719 3.51562 30.6719C3.90417 30.6719 4.21875 30.3574 4.21875 29.9688L4.21875 12.0938L17.6133 12.0938L17.6133 15.8652L14.603 17.3037C14.3628 17.4189 14.2031 17.667 14.2031 17.9385L14.2031 29.4053C14.2031 29.6758 14.3588 29.9229 14.603 30.04L23.6968 34.3848C23.8938 34.4775 24.1161 34.4727 24.3032 34.3848L29.4155 31.9424C29.766 31.7744 29.9143 31.3545 29.7469 31.0049C29.5796 30.6543 29.1592 30.5059 28.8091 30.6729L24.7031 32.6348L24.7031 22.7266L32.3906 19.0537L32.3906 28.9619L31.3462 29.4609C30.9957 29.6279 30.8474 30.0488 31.0148 30.3984C31.1821 30.749 31.6022 30.8975 31.9523 30.7295L33.397 30.04C33.6412 29.9229 33.7969 29.6758 33.7969 29.4053L33.7969 17.9385C33.7969 17.6699 33.6409 17.4209 33.397 17.3037L30.3867 15.8652L30.3867 12.0938L43.7812 12.0938L43.7812 35.0625L4.21875 35.0625L4.21875 32.9688C4.21875 32.5801 3.90417 32.2656 3.51562 32.2656C3.12708 32.2656 2.8125 32.5801 2.8125 32.9688L2.8125 35.7656C2.8125 36.1543 3.12708 36.4688 3.51562 36.4688L44.4844 36.4688C44.8729 36.4688 45.1875 36.1543 45.1875 35.7656L45.1875 11.3906C45.1875 11.002 44.8729 10.6875 44.4844 10.6875L30.3867 10.6875L30.3867 9.28125L33 9.28125C33.3885 9.28125 33.7031 8.9668 33.7031 8.57812C33.7031 8.18945 33.3885 7.875 33 7.875L30.3867 7.875L30.3867 6.46875L36.6914 6.46875C37.08 6.46875 37.3945 6.1543 37.3945 5.76562L37.3945 4.09766C38.213 3.80762 38.8008 3.02637 38.8008 2.10938C38.8008 0.946289 37.8545 0 36.6914 0C35.5283 0 34.582 0.946289 34.582 2.10938C34.582 3.02637 35.1698 3.80762 35.9883 4.09766L35.9883 5.0625L29.6836 5.0625C29.295 5.0625 28.9805 5.37695 28.9805 5.76562L28.9805 7.875L24.7031 7.875L24.7031 4.09766C25.5216 3.80762 26.1094 3.02637 26.1094 2.10938C26.1094 0.946289 25.1631 0 24 0C22.8369 0 21.8906 0.946289 21.8906 2.10938C21.8906 3.02637 22.4784 3.80762 23.2969 4.09766L23.2969 7.875L19.0195 7.875L19.0195 5.76562C19.0195 5.37695 18.705 5.0625 18.3164 5.0625L12.0117 5.0625L12.0117 4.09766C12.8302 3.80762 13.418 3.02637 13.418 2.10938C13.418 0.946289 12.4717 0 11.3086 0C10.1455 0 9.19922 0.946289 9.19922 2.10938C9.19922 3.02637 9.78699 3.80762 10.6055 4.09766L10.6055 5.76562C10.6055 6.1543 10.92 6.46875 11.3086 6.46875L17.6133 6.46875L17.6133 7.875L2.16504 7.875C0.971191 7.875 0 8.8457 0 10.04L0 37.1162C0 38.3105 0.971191 39.2812 2.16504 39.2812L17.4089 39.2812C17.1368 41.8604 15.4314 43.3672 14.8938 43.7812L11.9062 43.7812C10.7432 43.7812 9.79688 44.7275 9.79688 45.8906C9.79688 47.0537 10.7432 48 11.9062 48L36.0938 48C37.2568 48 38.2031 47.0537 38.2031 45.8906C38.2031 44.7275 37.2568 43.7812 36.0938 43.7812L33.108 43.7812C32.5774 43.3682 30.8661 41.8486 30.5918 39.2812L45.835 39.2812C47.0288 39.2812 48 38.3105 48 37.1162L48 10.04C48 8.8457 47.0288 7.875 45.835 7.875ZM36.6914 1.40625C37.0792 1.40625 37.3945 1.72168 37.3945 2.10938C37.3945 2.49707 37.0792 2.8125 36.6914 2.8125C36.3036 2.8125 35.9883 2.49707 35.9883 2.10938C35.9883 1.72168 36.3036 1.40625 36.6914 1.40625ZM24 1.40625C24.3878 1.40625 24.7031 1.72168 24.7031 2.10938C24.7031 2.49707 24.3878 2.8125 24 2.8125C23.6122 2.8125 23.2969 2.49707 23.2969 2.10938C23.2969 1.72168 23.6122 1.40625 24 1.40625ZM11.3086 1.40625C11.6964 1.40625 12.0117 1.72168 12.0117 2.10938C12.0117 2.49707 11.6964 2.8125 11.3086 2.8125C10.9208 2.8125 10.6055 2.49707 10.6055 2.10938C10.6055 1.72168 10.9208 1.40625 11.3086 1.40625ZM19.0195 12.0938L23.2969 12.0938L23.2969 13.1504L19.0195 15.1943L19.0195 12.0938ZM31.4626 17.9385L24 21.5039L16.5374 17.9385L24 14.373L31.4626 17.9385ZM15.6094 19.0537L23.2969 22.7266L23.2969 32.6348L15.6094 28.9619L15.6094 19.0537ZM28.9805 15.1943L24.7031 13.1504L24.7031 12.0938L28.9805 12.0938L28.9805 15.1943ZM28.9805 9.28125L28.9805 10.6875L24.7031 10.6875L24.7031 9.28125L28.9805 9.28125ZM23.2969 9.28125L23.2969 10.6875L19.0195 10.6875L19.0195 9.28125L23.2969 9.28125ZM36.7969 45.8906C36.7969 46.2783 36.4816 46.5938 36.0938 46.5938L11.9062 46.5938C11.5184 46.5938 11.2031 46.2783 11.2031 45.8906C11.2031 45.5029 11.5184 45.1875 11.9062 45.1875L36.0938 45.1875C36.4816 45.1875 36.7969 45.5029 36.7969 45.8906ZM31.0913 43.7812L16.9087 43.7812C17.733 42.8184 18.6475 41.3184 18.8229 39.2812L29.1771 39.2812C29.3525 41.3184 30.267 42.8184 31.0913 43.7812Z" fill="url(#paint_linear_84_3465_0)" fill-opacity="1.000000" fill-rule="nonzero"/>
</svg>
