<svg width="38.345215" height="48.000000" viewBox="0 0 38.3452 48" fill="none" xmlns="http://www.w3.org/2000/svg" xmlns:xlink="http://www.w3.org/1999/xlink">
	<desc>
			Created with Pixso.
	</desc>
	<defs>
		<linearGradient id="paint_linear_84_3495_0" x1="4.265137" y1="22.750782" x2="34.080231" y2="22.750782" gradientUnits="userSpaceOnUse">
			<stop stop-color="#0CBAF1"/>
			<stop offset="1.000000" stop-color="#E95CE9"/>
		</linearGradient>
		<linearGradient id="paint_linear_84_3497_0" x1="13.457520" y1="43.825455" x2="24.894854" y2="43.825455" gradientUnits="userSpaceOnUse">
			<stop stop-color="#0CBAF1"/>
			<stop offset="1.000000" stop-color="#E95CE9"/>
		</linearGradient>
		<linearGradient id="paint_linear_84_3499_0" x1="13.303101" y1="17.798840" x2="25.042244" y2="17.798840" gradientUnits="userSpaceOnUse">
			<stop stop-color="#0CBAF1"/>
			<stop offset="1.000000" stop-color="#E95CE9"/>
		</linearGradient>
		<linearGradient id="paint_linear_84_3500_0" x1="15.367798" y1="25.150930" x2="22.977484" y2="25.150930" gradientUnits="userSpaceOnUse">
			<stop stop-color="#0CBAF1"/>
			<stop offset="1.000000" stop-color="#E95CE9"/>
		</linearGradient>
		<linearGradient id="paint_linear_84_3502_0" x1="14.604248" y1="33.462845" x2="23.741028" y2="33.462845" gradientUnits="userSpaceOnUse">
			<stop stop-color="#0CBAF1"/>
			<stop offset="1.000000" stop-color="#E95CE9"/>
		</linearGradient>
		<linearGradient id="paint_linear_84_3504_0" x1="18.469482" y1="15.706469" x2="19.875732" y2="15.706469" gradientUnits="userSpaceOnUse">
			<stop stop-color="#0CBAF1"/>
			<stop offset="1.000000" stop-color="#E95CE9"/>
		</linearGradient>
		<linearGradient id="paint_linear_84_3506_0" x1="14.604736" y1="29.828125" x2="23.740580" y2="29.828125" gradientUnits="userSpaceOnUse">
			<stop stop-color="#0CBAF1"/>
			<stop offset="1.000000" stop-color="#E95CE9"/>
		</linearGradient>
		<linearGradient id="paint_linear_84_3508_0" x1="18.463135" y1="1.353750" x2="19.869385" y2="1.353750" gradientUnits="userSpaceOnUse">
			<stop stop-color="#0CBAF1"/>
			<stop offset="1.000000" stop-color="#E95CE9"/>
		</linearGradient>
		<linearGradient id="paint_linear_84_3510_0" x1="35.679077" y1="19.765625" x2="38.345139" y2="19.765625" gradientUnits="userSpaceOnUse">
			<stop stop-color="#0CBAF1"/>
			<stop offset="1.000000" stop-color="#E95CE9"/>
		</linearGradient>
		<linearGradient id="paint_linear_84_3512_0" x1="0.000000" y1="19.765625" x2="2.666062" y2="19.765625" gradientUnits="userSpaceOnUse">
			<stop stop-color="#0CBAF1"/>
			<stop offset="1.000000" stop-color="#E95CE9"/>
		</linearGradient>
		<linearGradient id="paint_linear_84_3514_0" x1="30.638428" y1="6.746305" x2="32.935585" y2="6.746305" gradientUnits="userSpaceOnUse">
			<stop stop-color="#0CBAF1"/>
			<stop offset="1.000000" stop-color="#E95CE9"/>
		</linearGradient>
		<linearGradient id="paint_linear_84_3516_0" x1="5.409546" y1="32.784389" x2="7.706703" y2="32.784389" gradientUnits="userSpaceOnUse">
			<stop stop-color="#0CBAF1"/>
			<stop offset="1.000000" stop-color="#E95CE9"/>
		</linearGradient>
		<linearGradient id="paint_linear_84_3518_0" x1="30.638428" y1="32.784389" x2="32.935585" y2="32.784389" gradientUnits="userSpaceOnUse">
			<stop stop-color="#0CBAF1"/>
			<stop offset="1.000000" stop-color="#E95CE9"/>
		</linearGradient>
		<linearGradient id="paint_linear_84_3520_0" x1="5.409546" y1="6.746305" x2="7.706703" y2="6.746305" gradientUnits="userSpaceOnUse">
			<stop stop-color="#0CBAF1"/>
			<stop offset="1.000000" stop-color="#E95CE9"/>
		</linearGradient>
		<linearGradient id="paint_linear_84_3522_0" x1="13.457642" y1="43.591797" x2="22.164391" y2="43.591797" gradientUnits="userSpaceOnUse">
			<stop stop-color="#0CBAF1"/>
			<stop offset="1.000000" stop-color="#E95CE9"/>
		</linearGradient>
	</defs>
	<path id="path4161 (Stroke)" d="M14.1348 39.6504C13.106 39.6504 12.2716 38.8174 12.2703 37.7891L12.2703 37.7861L12.2606 36.0898C12.2606 36.0889 12.2606 36.0879 12.2606 36.0879C12.2563 33.3193 11.238 30.6221 9.33093 28.5928L9.33081 28.5928C7.08618 26.2041 5.70251 22.999 5.67188 19.4707C5.60803 12.0801 11.5906 5.95508 18.9801 5.85254C22.9186 5.79785 26.4755 7.42773 28.9779 10.0713C29.2449 10.3525 29.6899 10.3652 29.9719 10.0977C30.2539 9.83105 30.266 9.38574 29.999 9.10352C27.2377 6.1875 23.3083 4.38574 18.9604 4.44629C10.7965 4.56055 4.19519 11.3193 4.26575 19.4824C4.29944 23.3789 5.82874 26.9189 8.30603 29.5557C9.95764 31.3135 10.851 33.6621 10.8544 36.0918L10.8545 36.0947L10.864 37.791C10.864 37.791 10.864 37.792 10.864 37.793C10.8674 39.5967 12.3309 41.0566 14.1349 41.0566L24.2345 41.0557C26.0425 41.0557 27.5074 39.5889 27.5049 37.7803L27.5049 37.7773L27.4952 36.0156C27.4952 36.0156 27.4952 36.0146 27.4952 36.0146C27.4922 33.6279 28.369 31.3193 29.9973 29.5996L29.5223 29.1504L29.9973 29.5996C32.5272 26.9297 34.0802 23.3213 34.0802 19.3516C34.0802 16.4697 33.2616 13.7773 31.8442 11.4961C31.6394 11.166 31.2058 11.0645 30.876 11.2695C30.5461 11.4746 30.4448 11.9082 30.6498 12.2373C31.9327 14.3027 32.674 16.7393 32.674 19.3516C32.674 22.9473 31.2688 26.2129 28.9764 28.6328C27.0874 30.627 26.085 33.2891 26.089 36.0176L26.089 36.0205L26.0986 37.7822C26.0986 37.7832 26.0986 37.7832 26.0986 37.7842C26.0995 38.8135 25.2646 39.6494 24.2344 39.6494L14.1348 39.6504Z" fill="url(#paint_linear_84_3495_0)" fill-opacity="1.000000" fill-rule="evenodd"/>
	<path id="path4165 (Stroke)" d="M16.5944 48C14.8567 48 13.4501 46.5879 13.4575 44.8496L16.5944 48ZM16.5944 48L21.7389 47.999C23.4656 47.999 24.8677 46.6035 24.8751 44.877L24.8949 40.3574C24.8956 40.1699 24.8219 39.9902 24.6899 39.8574C24.558 39.7256 24.3787 39.6514 24.1917 39.6514L14.1803 39.6523C13.7932 39.6523 13.4789 39.9648 13.4773 40.3516L13.4575 44.8496L16.5944 48ZM14.8638 44.8564L14.8804 41.0586L23.4856 41.0576L23.4689 44.8711C23.4648 45.8232 22.6914 46.5928 21.7388 46.5928L16.5942 46.5938C15.6357 46.5938 14.8596 45.8145 14.8638 44.8564Z" fill="url(#paint_linear_84_3497_0)" fill-opacity="1.000000" fill-rule="evenodd"/>
	<path id="path4169 (Stroke)" d="M15.3655 23.7725C15.3878 24.1436 15.6954 24.4336 16.0673 24.4336L22.2708 24.4336C22.6212 24.4336 22.9181 24.1758 22.967 23.8281C23.0404 23.3076 23.1975 22.5986 23.5532 21.8193L23.5532 21.8193C23.9264 21.002 24.389 20.3896 24.7671 19.9697L24.7673 19.9697C25.067 19.6357 25.13 19.1484 24.9152 18.748L15.3655 23.7725ZM16.2787 21.4814C16.5028 22.0449 16.6288 22.5723 16.6987 23.0273L16.2787 21.4814ZM16.6987 23.0273L21.6816 23.0273C21.7932 22.5049 21.9746 21.8906 22.2739 21.2354C22.6689 20.3701 23.1478 19.6982 23.5652 19.208C23.0139 18.1934 22.3794 17.1221 21.6489 16.0166L21.6489 16.0166C20.8185 14.7598 19.9786 13.6309 19.1644 12.626C18.3319 13.6387 17.4692 14.7881 16.62 16.083C15.917 17.1543 15.3104 18.1914 14.7869 19.1719C15.2684 19.6738 15.8618 20.4346 16.2787 21.4814L16.6987 23.0273ZM14.6709 19.3906C14.6709 19.3906 14.6709 19.3906 14.6709 19.3906ZM23.7216 19.0293C23.7216 19.0293 23.7214 19.0293 23.7213 19.0293C23.7214 19.0293 23.7216 19.0293 23.7216 19.0293ZM23.6761 19.4131C23.6761 19.4131 23.6761 19.4131 23.6761 19.4131ZM15.3655 23.7725C15.3381 23.3193 15.2474 22.6934 14.972 22.002L15.3655 23.7725ZM14.972 22.002L14.972 22.002ZM14.972 22.002C14.5952 21.0547 14.0364 20.3975 13.6261 19.999L14.972 22.002ZM13.6259 19.999C13.2811 19.665 13.2091 19.1494 13.4263 18.7363L13.6259 19.999ZM24.9152 18.748C24.3198 17.6387 23.6274 16.4609 22.8223 15.2412C21.9388 13.9043 21.045 12.708 20.1807 11.6465L24.9152 18.748ZM13.4264 18.7363C13.9951 17.6553 14.6621 16.5039 15.4442 15.3115L13.4264 18.7363ZM18.1558 11.6387C17.2701 12.709 16.3499 13.9307 15.4442 15.3115L15.4442 15.3115L18.1558 11.6387ZM20.1807 11.6465C19.6589 11.0059 18.6824 11.0029 18.1559 11.6387L18.1558 11.6387L20.1807 11.6465Z" fill="url(#paint_linear_84_3499_0)" fill-opacity="1.000000" fill-rule="evenodd"/>
	<path id="path4171 (Stroke)" d="M15.3678 26.5713C15.3678 26.96 15.6826 27.2744 16.0709 27.2744L22.2744 27.2744C22.6627 27.2744 22.9775 26.96 22.9775 26.5713L22.9775 23.7305C22.9775 23.3418 22.6627 23.0273 22.2744 23.0273L16.0709 23.0273C15.6826 23.0273 15.3678 23.3418 15.3678 23.7305L15.3678 26.5713ZM16.774 25.8682L16.774 24.4336L21.5713 24.4336L21.5713 25.8682L16.774 25.8682Z" fill="url(#paint_linear_84_3500_0)" fill-opacity="1.000000" fill-rule="evenodd"/>
	<path id="path4175 (Stroke)" d="M23.038 41.0566C23.4263 41.0566 23.7411 40.7422 23.7411 40.3535L23.7411 27.3252C23.7411 26.5195 23.0872 25.8691 22.2839 25.8691L16.0613 25.8691C15.2582 25.8691 14.6042 26.5195 14.6042 27.3252L14.6042 37.3164C14.6042 37.7051 14.9191 38.0195 15.3074 38.0195C15.6957 38.0195 16.0105 37.7051 16.0105 37.3164L16.0105 27.3252C16.0105 27.2988 16.0323 27.2754 16.0613 27.2754L22.2839 27.2754C22.313 27.2754 22.3348 27.2988 22.3348 27.3252L22.3348 40.3535C22.3348 40.7422 22.6495 41.0566 23.038 41.0566Z" fill="url(#paint_linear_84_3502_0)" fill-opacity="1.000000" fill-rule="evenodd"/>
	<path id="path4179 (Stroke)" d="M19.1726 20.248C19.5609 20.248 19.8757 19.9336 19.8757 19.5449L19.8757 11.8682C19.8757 11.4795 19.5609 11.165 19.1726 11.165C18.7843 11.165 18.4695 11.4795 18.4695 11.8682L18.4695 19.5449C18.4695 19.9336 18.7843 20.248 19.1726 20.248Z" fill="url(#paint_linear_84_3504_0)" fill-opacity="1.000000" fill-rule="evenodd"/>
	<path id="path4183 (Stroke)" d="M14.6047 29.8281C14.6047 30.2168 14.9196 30.5312 15.3079 30.5312L23.0375 30.5312C23.4258 30.5312 23.7406 30.2168 23.7406 29.8281C23.7406 29.4395 23.4258 29.125 23.0375 29.125L15.3079 29.125C14.9196 29.125 14.6047 29.4395 14.6047 29.8281Z" fill="url(#paint_linear_84_3506_0)" fill-opacity="1.000000" fill-rule="evenodd"/>
	<path id="path4187 (Stroke)" d="M19.1663 2.70703C19.5546 2.70703 19.8694 2.39258 19.8694 2.00391L19.8694 0.703125C19.8694 0.31543 19.5546 0 19.1663 0C18.778 0 18.4631 0.31543 18.4631 0.703125L18.4631 2.00391C18.4631 2.39258 18.778 2.70703 19.1663 2.70703Z" fill="url(#paint_linear_84_3508_0)" fill-opacity="1.000000" fill-rule="evenodd"/>
	<path id="path4191 (Stroke)" d="M35.6791 19.7656C35.6791 20.1543 35.9939 20.4688 36.3822 20.4688L37.642 20.4688C38.0304 20.4688 38.3451 20.1543 38.3451 19.7656C38.3451 19.377 38.0304 19.0625 37.642 19.0625L36.3822 19.0625C35.9939 19.0625 35.6791 19.377 35.6791 19.7656Z" fill="url(#paint_linear_84_3510_0)" fill-opacity="1.000000" fill-rule="evenodd"/>
	<path id="path4195 (Stroke)" d="M0 19.7656C0 20.1543 0.314819 20.4688 0.703125 20.4688L1.96289 20.4688C2.35132 20.4688 2.66602 20.1543 2.66602 19.7656C2.66602 19.377 2.35132 19.0625 1.96289 19.0625L0.703125 19.0625C0.314819 19.0625 0 19.377 0 19.7656Z" fill="url(#paint_linear_84_3512_0)" fill-opacity="1.000000" fill-rule="evenodd"/>
	<path id="path4199 (Stroke)" d="M30.8523 7.71094C31.1312 7.98145 31.5763 7.97461 31.8466 7.69531L32.7374 6.77539C33.0077 6.49707 33.0006 6.05176 32.7217 5.78125C32.4429 5.51172 31.9977 5.51855 31.7275 5.79688L30.8365 6.7168C30.5664 6.99609 30.5734 7.44043 30.8523 7.71094Z" fill="url(#paint_linear_84_3514_0)" fill-opacity="1.000000" fill-rule="evenodd"/>
	<path id="path4203 (Stroke)" d="M5.62341 33.749C5.90234 34.0195 6.34741 34.0127 6.61768 33.7334L7.50854 32.8135C7.77881 32.5352 7.77173 32.0898 7.4928 31.8193C7.21399 31.5498 6.7688 31.5566 6.49866 31.835L5.60767 32.7549C5.33752 33.0342 5.34448 33.4785 5.62341 33.749Z" fill="url(#paint_linear_84_3516_0)" fill-opacity="1.000000" fill-rule="evenodd"/>
	<path id="path4207 (Stroke)" d="M32.7217 33.749C33.0006 33.4785 33.0077 33.0342 32.7374 32.7549L31.8466 31.835C31.5763 31.5566 31.1312 31.5498 30.8523 31.8193C30.5734 32.0898 30.5664 32.5352 30.8365 32.8135L31.7275 33.7334C31.9977 34.0127 32.4429 34.0195 32.7217 33.749Z" fill="url(#paint_linear_84_3518_0)" fill-opacity="1.000000" fill-rule="evenodd"/>
	<path id="path4211 (Stroke)" d="M7.4928 7.71094C7.77173 7.44043 7.77881 6.99609 7.50854 6.7168L6.61768 5.79688C6.34741 5.51855 5.90234 5.51172 5.62341 5.78125C5.34448 6.05176 5.33752 6.49707 5.60767 6.77539L6.49866 7.69531C6.7688 7.97461 7.21399 7.98145 7.4928 7.71094Z" fill="url(#paint_linear_84_3520_0)" fill-opacity="1.000000" fill-rule="evenodd"/>
	<path id="path4215 (Stroke)" d="M13.4576 43.5918C13.4576 43.9805 13.7725 44.2949 14.1608 44.2949L21.4613 44.2949C21.8496 44.2949 22.1644 43.9805 22.1644 43.5918C22.1644 43.2031 21.8496 42.8887 21.4613 42.8887L14.1608 42.8887C13.7725 42.8887 13.4576 43.2031 13.4576 43.5918Z" fill="url(#paint_linear_84_3522_0)" fill-opacity="1.000000" fill-rule="evenodd"/>
</svg>
