<svg width="48.000610" height="29.920898" viewBox="0 0 48.0006 29.9209" fill="none" xmlns="http://www.w3.org/2000/svg" xmlns:xlink="http://www.w3.org/1999/xlink">
	<desc>
			Created with Pixso.
	</desc>
	<defs>
		<linearGradient id="paint_linear_84_3554_0" x1="21.229980" y1="19.664963" x2="26.770605" y2="19.664963" gradientUnits="userSpaceOnUse">
			<stop stop-color="#0CBAF1"/>
			<stop offset="1.000000" stop-color="#E95CE9"/>
		</linearGradient>
		<linearGradient id="paint_linear_84_3556_0" x1="28.583496" y1="24.965155" x2="34.087799" y2="24.965155" gradientUnits="userSpaceOnUse">
			<stop stop-color="#0CBAF1"/>
			<stop offset="1.000000" stop-color="#E95CE9"/>
		</linearGradient>
		<linearGradient id="paint_linear_84_3558_0" x1="0.000000" y1="14.960617" x2="48.000565" y2="14.960617" gradientUnits="userSpaceOnUse">
			<stop stop-color="#0CBAF1"/>
			<stop offset="1.000000" stop-color="#E95CE9"/>
		</linearGradient>
		<linearGradient id="paint_linear_84_3560_0" x1="14.880493" y1="18.819366" x2="22.747711" y2="18.819366" gradientUnits="userSpaceOnUse">
			<stop stop-color="#0CBAF1"/>
			<stop offset="1.000000" stop-color="#E95CE9"/>
		</linearGradient>
		<linearGradient id="paint_linear_84_3562_0" x1="25.252686" y1="18.819366" x2="33.119904" y2="18.819366" gradientUnits="userSpaceOnUse">
			<stop stop-color="#0CBAF1"/>
			<stop offset="1.000000" stop-color="#E95CE9"/>
		</linearGradient>
		<linearGradient id="paint_linear_84_3564_0" x1="4.571045" y1="12.016422" x2="15.995138" y2="12.016422" gradientUnits="userSpaceOnUse">
			<stop stop-color="#0CBAF1"/>
			<stop offset="1.000000" stop-color="#E95CE9"/>
		</linearGradient>
		<linearGradient id="paint_linear_84_3566_0" x1="36.819702" y1="9.895969" x2="42.246513" y2="9.895969" gradientUnits="userSpaceOnUse">
			<stop stop-color="#0CBAF1"/>
			<stop offset="1.000000" stop-color="#E95CE9"/>
		</linearGradient>
		<linearGradient id="paint_linear_84_3568_0" x1="32.578857" y1="14.136204" x2="38.005669" y2="14.136204" gradientUnits="userSpaceOnUse">
			<stop stop-color="#0CBAF1"/>
			<stop offset="1.000000" stop-color="#E95CE9"/>
		</linearGradient>
		<linearGradient id="paint_linear_84_3570_0" x1="20.029663" y1="10.718548" x2="28.190506" y2="10.718548" gradientUnits="userSpaceOnUse">
			<stop stop-color="#0CBAF1"/>
			<stop offset="1.000000" stop-color="#E95CE9"/>
		</linearGradient>
		<linearGradient id="paint_linear_84_3572_0" x1="13.373657" y1="2.954071" x2="16.528484" y2="2.954071" gradientUnits="userSpaceOnUse">
			<stop stop-color="#0CBAF1"/>
			<stop offset="1.000000" stop-color="#E95CE9"/>
		</linearGradient>
		<linearGradient id="paint_linear_84_3574_0" x1="17.885864" y1="3.203674" x2="34.626808" y2="3.203674" gradientUnits="userSpaceOnUse">
			<stop stop-color="#0CBAF1"/>
			<stop offset="1.000000" stop-color="#E95CE9"/>
		</linearGradient>
	</defs>
	<path id="path4053 (Stroke)" d="M26.066 18.9609C24.6888 18.9639 23.3118 18.9639 21.9346 18.9609C21.5463 18.96 21.2308 19.2744 21.23 19.6621C21.2292 20.0508 21.5433 20.3662 21.9316 20.3672C23.3108 20.3701 24.6898 20.3701 26.069 20.3672C26.4573 20.3662 26.7714 20.0508 26.7706 19.6621C26.7698 19.2744 26.4543 18.96 26.066 18.9609Z" fill="url(#paint_linear_84_3554_0)" fill-opacity="1.000000" fill-rule="evenodd"/>
	<path id="path4057 (Stroke)" d="M33.9836 28.25C34.1869 27.9189 34.0835 27.4863 33.7527 27.2822C31.8733 26.1279 30.4574 24.2354 29.9753 21.9062C29.8966 21.5254 29.5245 21.2812 29.1443 21.3604C28.764 21.4385 28.5195 21.8105 28.5983 22.1914C29.1624 24.917 30.8215 27.1318 33.0165 28.4805C33.3474 28.6846 33.7804 28.5811 33.9836 28.25Z" fill="url(#paint_linear_84_3556_0)" fill-opacity="1.000000" fill-rule="evenodd"/>
	<path id="path4061 (Stroke)" d="M7.61572 29.6465C12.9528 30.9355 18.2942 27.5488 19.4032 22.1904C19.4819 21.8105 19.2374 21.4385 18.8572 21.3594C18.4769 21.2812 18.1049 21.5254 18.0261 21.9053C17.0784 26.4844 12.5111 29.3828 7.94482 28.2793L7.9425 28.2793C7.88489 28.2656 7.828 28.252 7.76965 28.2373L7.76929 28.2373C3.48206 27.2031 0.744019 22.9971 1.54578 18.6631C2.224 14.998 3.14502 11.291 4.2395 7.54883C5.24146 4.125 8.3313 1.7373 11.8987 1.61523L11.8988 1.61523C19.9668 1.33691 28.0338 1.33691 36.1017 1.61523L36.1019 1.61523C39.6693 1.7373 42.7592 4.125 43.761 7.54883C44.8556 11.291 45.7766 14.998 46.4548 18.6631C47.2566 22.9971 44.5186 27.2031 40.2312 28.2373L40.2308 28.2373C40.2028 28.2441 40.1742 28.251 40.1449 28.2588L40.1445 28.2588L40.1433 28.2588C40.1146 28.2656 40.0851 28.2725 40.0558 28.2793L7.61572 29.6465ZM7.61572 29.6465C7.55591 29.6328 7.49719 29.6182 7.43994 29.6045L7.43933 29.6045C7.43921 29.6045 7.43909 29.6045 7.43896 29.6045C2.42847 28.3945 -0.775269 23.4785 0.162964 18.4072L0.162964 18.4072C0.851562 14.6855 1.78491 10.9316 2.88977 7.15332L2.88989 7.15332C4.06299 3.14453 7.67981 0.352539 11.8505 0.209961C19.9507 -0.0693359 28.0499 -0.0693359 36.1501 0.209961C40.3208 0.352539 43.9376 3.14453 45.1107 7.15332L45.1107 7.15332C46.2156 10.9316 47.1489 14.6855 47.8376 18.4072C48.7759 23.4785 45.5721 28.3945 40.5615 29.6045C40.5317 29.6113 40.5018 29.6191 40.4727 29.626C40.4432 29.6328 40.4146 29.6396 40.3862 29.6465L40.386 29.6465C38.8188 30.0254 37.2504 30 35.7881 29.6406C35.411 29.5479 35.1807 29.167 35.2734 28.7891C35.3663 28.4121 35.7472 28.1816 36.1243 28.2744C37.3732 28.582 38.7129 28.6045 40.0555 28.2803L7.61572 29.6465Z" fill="url(#paint_linear_84_3558_0)" fill-opacity="1.000000" fill-rule="evenodd"/>
	<path id="path4065 (Stroke)" d="M18.8142 21.3467C17.4183 21.3467 16.2867 20.2148 16.2867 18.8193C16.2867 17.4238 17.4183 16.292 18.8142 16.292C20.2098 16.292 21.3414 17.4238 21.3414 18.8193C21.3414 20.2148 20.2098 21.3467 18.8142 21.3467ZM14.8805 18.8193C14.8805 20.9922 16.6417 22.7529 18.8142 22.7529C20.9866 22.7529 22.7477 20.9922 22.7477 18.8193C22.7477 16.6465 20.9866 14.8857 18.8142 14.8857C16.6417 14.8857 14.8805 16.6465 14.8805 18.8193Z" fill="url(#paint_linear_84_3560_0)" fill-opacity="1.000000" fill-rule="evenodd"/>
	<path id="path4069 (Stroke)" d="M29.1864 21.3467C27.7905 21.3467 26.6589 20.2148 26.6589 18.8193C26.6589 17.4238 27.7905 16.292 29.1864 16.292C30.582 16.292 31.7136 17.4238 31.7136 18.8193C31.7136 20.2148 30.582 21.3467 29.1864 21.3467ZM25.2527 18.8193C25.2527 20.9922 27.0139 22.7529 29.1864 22.7529C31.3588 22.7529 33.1199 20.9922 33.1199 18.8193C33.1199 16.6465 31.3588 14.8857 29.1864 14.8857C27.0139 14.8857 25.2527 16.6465 25.2527 18.8193Z" fill="url(#paint_linear_84_3562_0)" fill-opacity="1.000000" fill-rule="evenodd"/>
	<path id="path4073 (Stroke)" d="M10.2622 17.7285L10.304 17.7285C11.832 17.7275 13.0735 16.5078 13.1147 14.9854L13.1147 14.9854C13.116 14.9414 13.1172 14.8965 13.1183 14.8516C13.163 14.8506 13.2076 14.8496 13.2523 14.8486L13.2524 14.8486C14.7748 14.8066 15.9945 13.5654 15.9951 12.0371L15.9951 11.9951C15.9945 10.4678 14.7748 9.22559 13.2524 9.18457L13.2523 9.18457C13.2076 9.18359 13.163 9.18262 13.1183 9.18164C13.1172 9.13672 13.116 9.0918 13.1147 9.04688L13.1147 9.04688C13.0735 7.52441 11.832 6.30469 10.304 6.30469L10.2622 6.30469C8.73425 6.30469 7.49268 7.52441 7.45142 9.04688L7.45142 9.04688C7.4502 9.0918 7.44897 9.13672 7.44788 9.18164C7.4032 9.18262 7.35852 9.18359 7.31396 9.18457L7.31384 9.18457C5.7915 9.22559 4.57178 10.4678 4.57104 11.9951L4.57104 12.0371C4.57178 13.5654 5.7915 14.8066 7.31384 14.8486L7.31396 14.8486C7.35864 14.8496 7.4032 14.8506 7.44788 14.8516C7.44897 14.8965 7.4502 14.9414 7.45142 14.9854L7.45142 14.9854C7.49268 16.5078 8.73425 17.7275 10.2622 17.7285ZM10.3033 16.3223L10.2629 16.3223C10.2629 16.3223 10.2628 16.3223 10.2628 16.3223C10.2627 16.3223 10.2627 16.3223 10.2626 16.3223C9.50134 16.3213 8.87793 15.7139 8.85718 14.9482L10.3033 16.3223ZM10.3037 16.3223C10.3036 16.3223 10.3035 16.3223 10.3035 16.3223C10.3035 16.3223 10.3033 16.3223 10.3033 16.3223L10.3037 16.3223ZM10.3037 16.3223C11.0648 16.3213 11.6882 15.7139 11.7091 14.9482L10.3037 16.3223ZM8.85718 14.9473C8.84998 14.6816 8.84375 14.416 8.8385 14.1504C8.83105 13.7725 8.52698 13.4688 8.14954 13.4609C7.88367 13.4561 7.6178 13.4492 7.35193 13.4424L8.85718 14.9473ZM11.7091 14.9473C11.7162 14.6816 11.7224 14.416 11.7278 14.1504L11.7091 14.9473ZM13.2144 13.4424C12.9484 13.4492 12.6825 13.4561 12.4167 13.4609C12.0394 13.4688 11.7354 13.7725 11.7278 14.1504L13.2144 13.4424ZM13.2144 13.4424C13.9806 13.4219 14.5884 12.7979 14.5889 12.0371C14.5889 12.0371 14.5889 12.0371 14.5889 12.0371L14.5889 11.9961L13.2144 13.4424ZM5.97729 12.0371C5.97729 12.0371 5.97729 12.0371 5.97729 12.0371L5.97729 11.9961C5.97729 11.9961 5.97729 11.9961 5.97729 11.9961C5.97729 11.9961 5.97729 11.9961 5.97729 11.9961C5.97791 11.2344 6.58582 10.6113 7.35193 10.5908C7.61768 10.583 7.88354 10.5771 8.14929 10.5723C8.52686 10.5645 8.83105 10.2598 8.8385 9.88281C8.84375 9.61719 8.84998 9.35059 8.85718 9.08496L5.97729 12.0371ZM5.97729 12.0371C5.97729 12.0371 5.97729 12.0371 5.97729 12.0371ZM5.97729 12.0371C5.97791 12.7979 6.58582 13.4219 7.35193 13.4424L5.97729 12.0371ZM14.5889 11.9961C14.5884 11.2344 13.9806 10.6113 13.2144 10.5908L14.5889 11.9961ZM13.2144 10.5908C12.9484 10.583 12.6826 10.5771 12.417 10.5723C12.0396 10.5645 11.7354 10.2607 11.7278 9.88281C11.7224 9.61719 11.7162 9.35059 11.7091 9.08496L13.2144 10.5908ZM8.85718 9.08496C8.87793 8.31934 9.50159 7.71094 10.2629 7.71094L10.3033 7.71094C11.0647 7.71094 11.6882 8.31934 11.7091 9.08496L8.85718 9.08496Z" fill="url(#paint_linear_84_3564_0)" fill-opacity="1.000000" fill-rule="evenodd"/>
	<path id="path4077 (Stroke)" d="M40.4574 10.8203C39.9469 11.3311 39.1193 11.3311 38.6088 10.8203C38.0984 10.3096 38.0984 9.48242 38.6088 8.97168C39.1193 8.46094 39.9469 8.46094 40.4574 8.97168C40.9679 9.48242 40.9679 10.3096 40.4574 10.8203ZM37.6144 11.8145C38.6741 12.874 40.3921 12.874 41.4518 11.8145C42.5115 10.7549 42.5115 9.03711 41.4518 7.97754C40.3921 6.91797 38.6741 6.91797 37.6144 7.97754C36.5548 9.03711 36.5548 10.7549 37.6144 11.8145Z" fill="url(#paint_linear_84_3566_0)" fill-opacity="1.000000" fill-rule="evenodd"/>
	<path id="path4081 (Stroke)" d="M36.2166 15.0605C35.7061 15.5713 34.8784 15.5713 34.3679 15.0605C33.8575 14.5498 33.8575 13.7227 34.3679 13.2119C34.8784 12.7012 35.7061 12.7012 36.2166 13.2119C36.7271 13.7227 36.7271 14.5498 36.2166 15.0605ZM33.3735 16.0547C34.4332 17.1143 36.1512 17.1143 37.2109 16.0547C38.2706 14.9951 38.2706 13.2773 37.2109 12.2178C36.1512 11.1582 34.4332 11.1582 33.3735 12.2178C32.314 13.2773 32.314 14.9951 33.3735 16.0547Z" fill="url(#paint_linear_84_3568_0)" fill-opacity="1.000000" fill-rule="evenodd"/>
	<path id="path4085 (Stroke)" d="M20.0297 10.7188C20.0297 11.8232 20.9252 12.7188 22.0298 12.7188L26.1903 12.7188C27.295 12.7188 28.1906 11.8232 28.1906 10.7188C28.1906 9.61426 27.295 8.71875 26.1903 8.71875L22.0298 8.71875C20.9252 8.71875 20.0297 9.61426 20.0297 10.7188ZM22.0298 11.3125C21.7018 11.3125 21.4359 11.0469 21.4359 10.7188C21.4359 10.3906 21.7018 10.125 22.0298 10.125L26.1903 10.125C26.5183 10.125 26.7843 10.3906 26.7843 10.7188C26.7843 11.0469 26.5183 11.3125 26.1903 11.3125L22.0298 11.3125Z" fill="url(#paint_linear_84_3570_0)" fill-opacity="1.000000" fill-rule="evenodd"/>
	<path id="path4089 (Stroke)" d="M16.4458 5.39453C16.6284 5.05176 16.4985 4.62598 16.1558 4.44336C15.4413 4.06348 14.9355 3.33887 14.8578 2.48242C14.8097 1.93262 14.7826 1.38477 14.7799 0.839844C14.778 0.452148 14.4617 0.138672 14.0732 0.140625C13.6849 0.142578 13.3717 0.458984 13.3737 0.847656C13.3766 1.43457 13.4058 2.02051 13.4569 2.60547L13.4572 2.60742C13.5784 3.94922 14.3719 5.08691 15.4946 5.68457C15.8374 5.86719 16.2632 5.7373 16.4458 5.39453Z" fill="url(#paint_linear_84_3572_0)" fill-opacity="1.000000" fill-rule="evenodd"/>
	<path id="path4093 (Stroke)" d="M30.7893 4.72754C26.7303 4.88672 22.6707 4.90332 18.611 4.77637C18.2229 4.76367 17.8983 5.06836 17.8862 5.45703C17.874 5.84473 18.1788 6.16992 18.567 6.18164C22.6598 6.30957 26.7524 6.29297 30.8441 6.13281L30.7893 4.72754ZM33.1427 2.48242C33.0312 3.71973 32.026 4.67969 30.7896 4.72754L30.7893 4.72754L33.1427 2.48242ZM33.1427 2.48242C33.1908 1.93262 33.2179 1.38574 33.2206 0.84082C33.2225 0.452148 33.5388 0.138672 33.9271 0.140625C34.3156 0.142578 34.6288 0.458984 34.6268 0.847656C34.6239 1.43457 34.5947 2.02148 34.5435 2.60547L34.5433 2.60742C34.3695 4.54395 32.7931 6.05664 30.8442 6.13281L33.1427 2.48242Z" fill="url(#paint_linear_84_3574_0)" fill-opacity="1.000000" fill-rule="evenodd"/>
</svg>
