<svg width="43.175659" height="48.000000" viewBox="0 0 43.1757 48" fill="none" xmlns="http://www.w3.org/2000/svg" xmlns:xlink="http://www.w3.org/1999/xlink">
	<desc>
			Created with Pixso.
	</desc>
	<defs>
		<linearGradient id="paint_linear_84_3583_0" x1="4.937622" y1="4.947391" x2="11.438059" y2="4.947391" gradientUnits="userSpaceOnUse">
			<stop stop-color="#0CBAF1"/>
			<stop offset="1.000000" stop-color="#E95CE9"/>
		</linearGradient>
		<linearGradient id="paint_linear_84_3585_0" x1="14.092285" y1="4.947391" x2="20.592815" y2="4.947391" gradientUnits="userSpaceOnUse">
			<stop stop-color="#0CBAF1"/>
			<stop offset="1.000000" stop-color="#E95CE9"/>
		</linearGradient>
		<linearGradient id="paint_linear_84_3587_0" x1="23.247070" y1="4.947391" x2="29.747601" y2="4.947391" gradientUnits="userSpaceOnUse">
			<stop stop-color="#0CBAF1"/>
			<stop offset="1.000000" stop-color="#E95CE9"/>
		</linearGradient>
		<linearGradient id="paint_linear_84_3589_0" x1="32.401855" y1="4.947391" x2="38.902386" y2="4.947391" gradientUnits="userSpaceOnUse">
			<stop stop-color="#0CBAF1"/>
			<stop offset="1.000000" stop-color="#E95CE9"/>
		</linearGradient>
		<linearGradient id="paint_linear_84_3591_0" x1="11.498657" y1="30.907873" x2="29.731674" y2="30.907873" gradientUnits="userSpaceOnUse">
			<stop stop-color="#0CBAF1"/>
			<stop offset="1.000000" stop-color="#E95CE9"/>
		</linearGradient>
		<linearGradient id="paint_linear_84_3593_0" x1="23.932739" y1="23.549225" x2="27.959259" y2="23.549225" gradientUnits="userSpaceOnUse">
			<stop stop-color="#0CBAF1"/>
			<stop offset="1.000000" stop-color="#E95CE9"/>
		</linearGradient>
		<linearGradient id="paint_linear_84_3595_0" x1="18.902222" y1="24.206610" x2="23.117470" y2="24.206610" gradientUnits="userSpaceOnUse">
			<stop stop-color="#0CBAF1"/>
			<stop offset="1.000000" stop-color="#E95CE9"/>
		</linearGradient>
		<linearGradient id="paint_linear_84_3597_0" x1="24.060181" y1="28.511148" x2="28.692617" y2="28.511148" gradientUnits="userSpaceOnUse">
			<stop stop-color="#0CBAF1"/>
			<stop offset="1.000000" stop-color="#E95CE9"/>
		</linearGradient>
		<linearGradient id="paint_linear_84_3599_0" x1="27.304932" y1="30.980074" x2="34.847191" y2="30.980074" gradientUnits="userSpaceOnUse">
			<stop stop-color="#0CBAF1"/>
			<stop offset="1.000000" stop-color="#E95CE9"/>
		</linearGradient>
		<linearGradient id="paint_linear_84_3601_0" x1="16.632690" y1="21.572718" x2="18.810608" y2="21.572718" gradientUnits="userSpaceOnUse">
			<stop stop-color="#0CBAF1"/>
			<stop offset="1.000000" stop-color="#E95CE9"/>
		</linearGradient>
		<linearGradient id="paint_linear_84_3603_0" x1="6.676514" y1="36.247356" x2="28.437496" y2="36.247356" gradientUnits="userSpaceOnUse">
			<stop stop-color="#0CBAF1"/>
			<stop offset="1.000000" stop-color="#E95CE9"/>
		</linearGradient>
		<linearGradient id="paint_linear_84_3605_0" x1="10.959229" y1="36.361664" x2="20.087902" y2="36.361664" gradientUnits="userSpaceOnUse">
			<stop stop-color="#0CBAF1"/>
			<stop offset="1.000000" stop-color="#E95CE9"/>
		</linearGradient>
		<linearGradient id="paint_linear_84_3607_0" x1="9.369995" y1="40.252068" x2="15.915670" y2="40.252068" gradientUnits="userSpaceOnUse">
			<stop stop-color="#0CBAF1"/>
			<stop offset="1.000000" stop-color="#E95CE9"/>
		</linearGradient>
		<linearGradient id="paint_linear_84_3609_0" x1="8.245972" y1="43.001202" x2="12.966054" y2="43.001202" gradientUnits="userSpaceOnUse">
			<stop stop-color="#0CBAF1"/>
			<stop offset="1.000000" stop-color="#E95CE9"/>
		</linearGradient>
		<linearGradient id="paint_linear_84_3611_0" x1="12.083252" y1="33.610195" x2="23.037617" y2="33.610195" gradientUnits="userSpaceOnUse">
			<stop stop-color="#0CBAF1"/>
			<stop offset="1.000000" stop-color="#E95CE9"/>
		</linearGradient>
		<linearGradient id="paint_linear_84_3613_0" x1="0.000000" y1="23.221870" x2="43.175529" y2="23.221870" gradientUnits="userSpaceOnUse">
			<stop stop-color="#0CBAF1"/>
			<stop offset="1.000000" stop-color="#E95CE9"/>
		</linearGradient>
		<linearGradient id="paint_linear_84_3615_0" x1="0.000122" y1="14.189575" x2="43.175652" y2="14.189575" gradientUnits="userSpaceOnUse">
			<stop stop-color="#0CBAF1"/>
			<stop offset="1.000000" stop-color="#E95CE9"/>
		</linearGradient>
	</defs>
	<path id="path3732 (Stroke)" d="M4.93762 6.64551C4.93762 8.43457 6.39758 9.89453 8.1864 9.89453C8.57471 9.89453 8.88953 9.58008 8.88953 9.19141C8.88953 8.80273 8.57471 8.48828 8.1864 8.48828C7.17444 8.48828 6.34387 7.65723 6.34387 6.64551L6.34387 3.24902C6.34387 2.2373 7.17444 1.40625 8.1864 1.40625C9.20166 1.40625 10.0319 2.2373 10.0319 3.24902L10.0319 4.94727C10.0319 5.33594 10.3466 5.65039 10.735 5.65039C11.1233 5.65039 11.4381 5.33594 11.4381 4.94727L11.4381 3.24902C11.4381 1.45996 9.97742 0 8.1864 0C6.39758 0 4.93762 1.46094 4.93762 3.24902L4.93762 6.64551Z" fill="url(#paint_linear_84_3583_0)" fill-opacity="1.000000" fill-rule="evenodd"/>
	<path id="path3736 (Stroke)" d="M14.0923 6.64551C14.0923 8.43457 15.5524 9.89453 17.3412 9.89453C17.7295 9.89453 18.0443 9.58008 18.0443 9.19141C18.0443 8.80273 17.7295 8.48828 17.3412 8.48828C16.3291 8.48828 15.4985 7.65723 15.4985 6.64551L15.4985 3.24902C15.4985 2.2373 16.3291 1.40625 17.3412 1.40625C18.3564 1.40625 19.1865 2.2373 19.1865 3.24902L19.1865 4.94727C19.1865 5.33594 19.5013 5.65039 19.8896 5.65039C20.2781 5.65039 20.5928 5.33594 20.5928 4.94727L20.5928 3.24902C20.5928 1.45996 19.1322 0 17.3412 0C15.5524 0 14.0923 1.46094 14.0923 3.24902L14.0923 6.64551Z" fill="url(#paint_linear_84_3585_0)" fill-opacity="1.000000" fill-rule="evenodd"/>
	<path id="path3740 (Stroke)" d="M23.2471 6.64551C23.2471 8.43457 24.7072 9.89453 26.496 9.89453C26.8843 9.89453 27.1991 9.58008 27.1991 9.19141C27.1991 8.80273 26.8843 8.48828 26.496 8.48828C25.4839 8.48828 24.6533 7.65723 24.6533 6.64551L24.6533 3.24902C24.6533 2.2373 25.4839 1.40625 26.496 1.40625C27.5112 1.40625 28.3413 2.2373 28.3413 3.24902L28.3413 4.94727C28.3413 5.33594 28.6561 5.65039 29.0444 5.65039C29.4329 5.65039 29.7476 5.33594 29.7476 4.94727L29.7476 3.24902C29.7476 1.45996 28.287 0 26.496 0C24.7072 0 23.2471 1.46094 23.2471 3.24902L23.2471 6.64551Z" fill="url(#paint_linear_84_3587_0)" fill-opacity="1.000000" fill-rule="evenodd"/>
	<path id="path3744 (Stroke)" d="M32.4019 6.64551C32.4019 8.43457 33.8624 9.89453 35.6534 9.89453C36.0417 9.89453 36.3566 9.58008 36.3566 9.19141C36.3566 8.80273 36.0417 8.48828 35.6534 8.48828C34.6382 8.48828 33.8081 7.65723 33.8081 6.64551L33.8081 3.24902C33.8081 2.2373 34.6382 1.40625 35.6534 1.40625C36.6655 1.40625 37.4961 2.2373 37.4961 3.24902L37.4961 4.94727C37.4961 5.33594 37.8109 5.65039 38.1992 5.65039C38.5876 5.65039 38.9023 5.33594 38.9023 4.94727L38.9023 3.24902C38.9023 1.46094 37.4423 0 35.6534 0C33.8624 0 32.4019 1.45996 32.4019 3.24902L32.4019 6.64551Z" fill="url(#paint_linear_84_3589_0)" fill-opacity="1.000000" fill-rule="evenodd"/>
	<path id="path3748 (Stroke)" d="M29.577 38.0947C29.8199 37.792 29.7714 37.3496 29.4684 37.1064L12.6417 23.6123C12.3387 23.3691 11.8962 23.418 11.6533 23.7207C11.4103 24.0234 11.459 24.4658 11.762 24.709L28.5886 38.2041C28.8916 38.4463 29.3341 38.3984 29.577 38.0947Z" fill="url(#paint_linear_84_3591_0)" fill-opacity="1.000000" fill-rule="evenodd"/>
	<path id="path3752 (Stroke)" d="M24.1962 25.7324C24.4991 25.9746 24.9417 25.9268 25.1844 25.623L27.8047 22.3545C28.0476 22.0518 27.9989 21.6094 27.6959 21.3662C27.3929 21.123 26.9503 21.1719 26.7075 21.4756L24.0873 24.7441C23.8444 25.0469 23.8931 25.4893 24.1962 25.7324Z" fill="url(#paint_linear_84_3593_0)" fill-opacity="1.000000" fill-rule="evenodd"/>
	<path id="path3756 (Stroke)" d="M19.1427 26.7012C19.4352 26.957 19.8793 26.9268 20.1349 26.6348C21.064 25.5713 22.1821 24.2051 23.0375 22.5674C23.2172 22.2227 23.0839 21.7979 22.7396 21.6182C22.3954 21.4385 21.9706 21.5723 21.7909 21.916C21.0146 23.4033 19.9857 24.668 19.0759 25.709C18.8203 26.002 18.8503 26.4463 19.1427 26.7012Z" fill="url(#paint_linear_84_3595_0)" fill-opacity="1.000000" fill-rule="evenodd"/>
	<path id="path3760 (Stroke)" d="M24.3469 30.874C24.6598 31.1045 25.0999 31.0371 25.3298 30.7236C26.1479 29.6113 27.1605 28.3301 28.4418 27.2529C28.7391 27.0029 28.7776 26.5596 28.5278 26.2627C28.278 25.9648 27.8345 25.9268 27.5371 26.1768C26.1239 27.3643 25.0316 28.7559 24.1969 29.8906C23.9668 30.2041 24.0339 30.6445 24.3469 30.874Z" fill="url(#paint_linear_84_3597_0)" fill-opacity="1.000000" fill-rule="evenodd"/>
	<path id="path3764 (Stroke)" d="M27.601 33.4854C27.9176 33.71 28.3566 33.6357 28.5814 33.3193C29.6854 31.7646 31.2838 29.8877 34.1775 29.75C34.5653 29.7314 34.8649 29.4023 34.8464 29.0146C34.8279 28.627 34.4985 28.3271 34.1106 28.3457C30.5254 28.5166 28.5842 30.8867 27.4348 32.5049C27.21 32.8213 27.2844 33.2607 27.601 33.4854Z" fill="url(#paint_linear_84_3599_0)" fill-opacity="1.000000" fill-rule="evenodd"/>
	<path id="path3768 (Stroke)" d="M16.9769 23.7559C17.3109 23.9541 17.7423 23.8438 17.9406 23.5098C18.37 22.7871 18.9658 21.6143 18.7734 19.915C18.7297 19.5293 18.3815 19.252 17.9956 19.2959C17.6097 19.3389 17.3324 19.6875 17.3761 20.0732C17.5184 21.3301 17.0939 22.1816 16.7313 22.792C16.5331 23.126 16.6431 23.5576 16.9769 23.7559Z" fill="url(#paint_linear_84_3601_0)" fill-opacity="1.000000" fill-rule="evenodd"/>
	<path id="path3772 (Stroke)" d="M8.0802 47.9746C8.35681 47.9268 8.65601 47.8125 8.95874 47.6729C8.97339 47.666 8.98767 47.6592 9.00183 47.6514L28.0714 37.2363C28.2777 37.124 28.4141 36.916 28.4348 36.6816C28.4554 36.4473 28.3577 36.2188 28.1743 36.0713L13.9359 24.6494C13.7526 24.502 13.5078 24.457 13.2837 24.5273C13.0596 24.5986 12.8857 24.7773 12.8204 25.0029L6.79602 45.8613C6.79163 45.877 6.78772 45.8916 6.7843 45.9072C6.71069 46.2471 6.66443 46.5723 6.67932 46.8574C6.69373 47.1328 6.7738 47.5127 7.10242 47.7725C7.4292 48.0303 7.81494 48.0205 8.0802 47.9746ZM8.15381 46.2275L13.8788 26.4062L26.4717 36.5078L8.34949 46.4053C8.2572 46.4473 8.17529 46.4814 8.10278 46.5098C8.11438 46.4287 8.1311 46.335 8.15381 46.2275Z" fill="url(#paint_linear_84_3603_0)" fill-opacity="1.000000" fill-rule="evenodd"/>
	<path id="path3776 (Stroke)" d="M19.8245 41.7285C20.1274 41.4854 20.1763 41.043 19.9335 40.7402L12.2111 31.1035C11.9683 30.8008 11.5256 30.752 11.2227 30.9951C10.9197 31.2383 10.8708 31.6807 11.1136 31.9834L18.8361 41.6191C19.079 41.9229 19.5215 41.9707 19.8245 41.7285Z" fill="url(#paint_linear_84_3605_0)" fill-opacity="1.000000" fill-rule="evenodd"/>
	<path id="path3780 (Stroke)" d="M15.6523 44.0059C15.9553 43.7627 16.004 43.3203 15.7611 43.0176L10.6217 36.6074C10.3788 36.3047 9.93628 36.2559 9.6333 36.499C9.33032 36.7412 9.28162 37.1836 9.52454 37.4873L14.6639 43.8965C14.9069 44.2002 15.3494 44.248 15.6523 44.0059Z" fill="url(#paint_linear_84_3607_0)" fill-opacity="1.000000" fill-rule="evenodd"/>
	<path id="path3784 (Stroke)" d="M12.7028 45.6162C13.0057 45.373 13.0543 44.9307 12.8114 44.6279L9.49768 40.4951C9.25476 40.1924 8.81213 40.1436 8.50928 40.3867C8.2063 40.6299 8.15759 41.0723 8.40063 41.375L11.7144 45.5068C11.9573 45.8105 12.3998 45.8584 12.7028 45.6162Z" fill="url(#paint_linear_84_3609_0)" fill-opacity="1.000000" fill-rule="evenodd"/>
	<path id="path3788 (Stroke)" d="M22.7742 40.1172C23.0771 39.874 23.126 39.4316 22.8832 39.1289L18.8546 34.1006C18.6117 33.7979 18.1692 33.749 17.8662 33.9912C17.5631 34.2344 17.5143 34.6768 17.7571 34.9805L21.7858 40.0078C22.0286 40.3105 22.4711 40.3604 22.7742 40.1172ZM16.6698 32.501C16.9729 32.2578 17.0219 31.8154 16.7791 31.5127L13.3352 27.2129C13.0924 26.9092 12.6499 26.8604 12.3468 27.1035C12.0437 27.3457 11.9949 27.7881 12.2375 28.0918L15.6815 32.3916C15.9243 32.6943 16.3668 32.7432 16.6698 32.501Z" fill="url(#paint_linear_84_3611_0)" fill-opacity="1.000000" fill-rule="evenodd"/>
	<path id="path3792 (Stroke)" d="M0 41.0713C0 41.6934 0.506104 42.1992 1.1283 42.1992L8.78967 42.1992C9.17798 42.1992 9.4928 41.8848 9.4928 41.4961C9.4928 41.1074 9.17798 40.793 8.78967 40.793L1.40625 40.793L1.40625 5.65039L41.7693 5.65039L41.7693 40.793L18.8055 40.793C18.4171 40.793 18.1024 41.1074 18.1024 41.4961C18.1024 41.8848 18.4171 42.1992 18.8055 42.1992L42.0472 42.1992C42.6694 42.1992 43.1755 41.6934 43.1755 41.0713L43.1755 5.37305C43.1755 4.75098 42.6694 4.24414 42.0472 4.24414L1.1283 4.24414C0.505981 4.24414 0 4.75098 0 5.37305L0 41.0713Z" fill="url(#paint_linear_84_3613_0)" fill-opacity="1.000000" fill-rule="evenodd"/>
	<path id="path3796 (Stroke)" d="M0.00012207 15.8398C0.00012207 16.2285 0.314941 16.543 0.703247 16.543L19.8419 16.543C20.2302 16.543 20.545 16.2285 20.545 15.8398C20.545 15.4512 20.2302 15.1367 19.8419 15.1367L0.703247 15.1367C0.314941 15.1367 0.00012207 15.4512 0.00012207 15.8398ZM22.3835 15.8398C22.3835 16.2285 22.6982 16.543 23.0867 16.543L42.4725 16.543C42.8608 16.543 43.1757 16.2285 43.1757 15.8398C43.1757 15.4512 42.8608 15.1367 42.4725 15.1367L23.0867 15.1367C22.6982 15.1367 22.3835 15.4512 22.3835 15.8398ZM0.00012207 12.5391C0.00012207 12.9277 0.314941 13.2422 0.703247 13.2422L42.4725 13.2422C42.8608 13.2422 43.1757 12.9277 43.1757 12.5391C43.1757 12.1514 42.8608 11.8359 42.4725 11.8359L0.703247 11.8359C0.314941 11.8359 0.00012207 12.1514 0.00012207 12.5391Z" fill="url(#paint_linear_84_3615_0)" fill-opacity="1.000000" fill-rule="evenodd"/>
</svg>
