<svg width="48.000000" height="48.000977" viewBox="0 0 48 48.001" fill="none" xmlns="http://www.w3.org/2000/svg" xmlns:xlink="http://www.w3.org/1999/xlink">
	<desc>
			Created with Pixso.
	</desc>
	<defs>
		<linearGradient id="paint_linear_84_3531_0" x1="31.725830" y1="26.268118" x2="47.999985" y2="26.268118" gradientUnits="userSpaceOnUse">
			<stop stop-color="#0CBAF1"/>
			<stop offset="1.000000" stop-color="#E95CE9"/>
		</linearGradient>
		<linearGradient id="paint_linear_84_3533_0" x1="0.000000" y1="29.835312" x2="37.048496" y2="29.835312" gradientUnits="userSpaceOnUse">
			<stop stop-color="#0CBAF1"/>
			<stop offset="1.000000" stop-color="#E95CE9"/>
		</linearGradient>
		<linearGradient id="paint_linear_84_3535_0" x1="7.531067" y1="22.013672" x2="40.469006" y2="22.013672" gradientUnits="userSpaceOnUse">
			<stop stop-color="#0CBAF1"/>
			<stop offset="1.000000" stop-color="#E95CE9"/>
		</linearGradient>
		<linearGradient id="paint_linear_84_3537_0" x1="7.531067" y1="26.766602" x2="40.469006" y2="26.766602" gradientUnits="userSpaceOnUse">
			<stop stop-color="#0CBAF1"/>
			<stop offset="1.000000" stop-color="#E95CE9"/>
		</linearGradient>
		<linearGradient id="paint_linear_84_3539_0" x1="7.531067" y1="31.518555" x2="27.858784" y2="31.518555" gradientUnits="userSpaceOnUse">
			<stop stop-color="#0CBAF1"/>
			<stop offset="1.000000" stop-color="#E95CE9"/>
		</linearGradient>
		<linearGradient id="paint_linear_84_3541_0" x1="14.419556" y1="9.580774" x2="33.580368" y2="9.580774" gradientUnits="userSpaceOnUse">
			<stop stop-color="#0CBAF1"/>
			<stop offset="1.000000" stop-color="#E95CE9"/>
		</linearGradient>
		<linearGradient id="paint_linear_84_3543_0" x1="16.848267" y1="15.148399" x2="31.136452" y2="15.148399" gradientUnits="userSpaceOnUse">
			<stop stop-color="#0CBAF1"/>
			<stop offset="1.000000" stop-color="#E95CE9"/>
		</linearGradient>
		<linearGradient id="paint_linear_84_3545_0" x1="19.870789" y1="8.436399" x2="28.128851" y2="8.436399" gradientUnits="userSpaceOnUse">
			<stop stop-color="#0CBAF1"/>
			<stop offset="1.000000" stop-color="#E95CE9"/>
		</linearGradient>
	</defs>
	<path id="path1956 (Stroke)" d="M39.7969 40.1631C39.7969 40.5518 40.1118 40.8662 40.5001 40.8662L43.2069 40.8662C45.8563 40.8662 48 38.7119 48 36.0596L48 16.4766C48 13.8242 45.8563 11.6699 43.2069 11.6699L32.429 11.6699C32.0406 11.6699 31.7258 11.9844 31.7258 12.373C31.7258 12.7617 32.0406 13.0762 32.429 13.0762L43.2069 13.0762C45.0753 13.0762 46.5938 14.5967 46.5938 16.4766L46.5938 36.0596C46.5938 37.9395 45.0753 39.46 43.2069 39.46L40.5001 39.46C40.1118 39.46 39.7969 39.7744 39.7969 40.1631Z" fill="url(#paint_linear_84_3531_0)" fill-opacity="1.000000" fill-rule="evenodd"/>
	<path id="path1960 (Stroke)" d="M6.56256 47.9395C6.81494 48.0527 7.11041 48.0078 7.3175 47.8242L15.1638 40.8662L36.3454 40.8662C36.7337 40.8662 37.0485 40.5508 37.0485 40.1631C37.0485 39.7744 36.7337 39.46 36.3454 39.46L14.897 39.46C14.725 39.46 14.5591 39.5225 14.4305 39.6367L7.55408 45.7344L7.55408 40.1631C7.55408 39.7744 7.23932 39.46 6.85095 39.46L4.79309 39.46C2.92487 39.46 1.40625 37.9395 1.40625 36.0596L1.40625 16.4766C1.40625 14.5957 2.92487 13.0762 4.79309 13.0762L15.3665 13.0762C15.7548 13.0762 16.0696 12.7607 16.0696 12.373C16.0696 11.9844 15.7548 11.6699 15.3665 11.6699L4.79309 11.6699C2.14386 11.6699 0 13.8242 0 16.4766L0 36.0596C0 38.7119 2.14386 40.8662 4.79309 40.8662L6.14783 40.8662L6.14783 47.2979C6.14783 47.5742 6.31018 47.8252 6.56256 47.9395Z" fill="url(#paint_linear_84_3533_0)" fill-opacity="1.000000" fill-rule="evenodd"/>
	<path id="path1964 (Stroke)" d="M7.53107 22.0137C7.53107 22.4023 7.84589 22.7168 8.23419 22.7168L39.7659 22.7168C40.1542 22.7168 40.469 22.4023 40.469 22.0137C40.469 21.625 40.1542 21.3105 39.7659 21.3105L8.23419 21.3105C7.84589 21.3105 7.53107 21.625 7.53107 22.0137Z" fill="url(#paint_linear_84_3535_0)" fill-opacity="1.000000" fill-rule="evenodd"/>
	<path id="path1968 (Stroke)" d="M7.53107 26.7666C7.53107 27.1553 7.84589 27.4697 8.23419 27.4697L39.7659 27.4697C40.1542 27.4697 40.469 27.1553 40.469 26.7666C40.469 26.3779 40.1542 26.0635 39.7659 26.0635L8.23419 26.0635C7.84589 26.0635 7.53107 26.3779 7.53107 26.7666Z" fill="url(#paint_linear_84_3537_0)" fill-opacity="1.000000" fill-rule="evenodd"/>
	<path id="path1972 (Stroke)" d="M7.53107 31.5186C7.53107 31.9072 7.84589 32.2217 8.23419 32.2217L27.1556 32.2217C27.544 32.2217 27.8588 31.9072 27.8588 31.5186C27.8588 31.1299 27.544 30.8154 27.1556 30.8154L8.23419 30.8154C7.84589 30.8154 7.53107 31.1299 7.53107 31.5186Z" fill="url(#paint_linear_84_3539_0)" fill-opacity="1.000000" fill-rule="evenodd"/>
	<path id="path1976 (Stroke)" d="M14.4196 9.58105C14.4196 14.8721 18.7089 19.1611 23.9999 19.1611C29.2911 19.1611 33.5804 14.8721 33.5804 9.58105C33.5804 4.29004 29.2911 0 23.9999 0C22.3015 0 20.7042 0.443359 19.3195 1.21973C18.9808 1.41016 18.8602 1.83789 19.0502 2.17676C19.2402 2.51562 19.6688 2.63672 20.0074 2.44629C21.1875 1.78418 22.5486 1.40625 23.9999 1.40625C28.5145 1.40625 32.1741 5.06641 32.1741 9.58105C32.1741 14.0957 28.5145 17.7549 23.9999 17.7549C19.4855 17.7549 15.8258 14.0957 15.8258 9.58105C15.8258 7.74219 16.432 6.04688 17.4557 4.68262C17.6887 4.37109 17.6257 3.93066 17.315 3.69824C17.0043 3.46484 16.5636 3.52734 16.3306 3.83887C15.1307 5.43848 14.4196 7.42773 14.4196 9.58105Z" fill="url(#paint_linear_84_3541_0)" fill-opacity="1.000000" fill-rule="evenodd"/>
	<path id="path1980 (Stroke)" d="M18.436 15.5654C19.6192 13.7441 21.6692 12.542 23.9998 12.542C26.2781 12.542 28.3021 13.7373 29.5409 15.5869C28.0834 16.9326 26.1385 17.7549 24 17.7549C21.8501 17.7549 19.8959 16.9238 18.436 15.5654ZM17.0406 16.1611C18.7858 18.0059 21.2576 19.1611 24 19.1611C26.7338 19.1611 29.1987 18.0137 30.9429 16.1787C31.1566 15.9541 31.1978 15.6162 31.0444 15.3467C29.6212 12.8457 27.0151 11.1357 23.9998 11.1357C20.9466 11.1357 18.2936 12.8389 16.9335 15.3428C16.7883 15.6094 16.8315 15.9404 17.0406 16.1611Z" fill="url(#paint_linear_84_3543_0)" fill-opacity="1.000000" fill-rule="evenodd"/>
	<path id="path1984 (Stroke)" d="M19.8708 8.43652C19.8708 10.7168 21.7193 12.5654 23.9998 12.5654C26.2802 12.5654 28.1288 10.7168 28.1288 8.43652C28.1288 6.15625 26.2802 4.30762 23.9998 4.30762C21.7194 4.30762 19.8708 6.15625 19.8708 8.43652ZM23.9998 11.1592C22.496 11.1592 21.277 9.94043 21.277 8.43652C21.277 6.93262 22.496 5.71387 23.9998 5.71387C25.5035 5.71387 26.7226 6.93262 26.7226 8.43652C26.7226 9.94043 25.5035 11.1592 23.9998 11.1592Z" fill="url(#paint_linear_84_3545_0)" fill-opacity="1.000000" fill-rule="evenodd"/>
</svg>
