<svg width="46.496948" height="48.000977" viewBox="0 0 46.4969 48.001" fill="none" xmlns="http://www.w3.org/2000/svg" xmlns:xlink="http://www.w3.org/1999/xlink">
	<desc>
			Created with Pixso.
	</desc>
	<defs>
		<linearGradient id="paint_linear_84_3624_0" x1="0.000000" y1="16.962641" x2="31.817356" y2="16.962641" gradientUnits="userSpaceOnUse">
			<stop stop-color="#0CBAF1"/>
			<stop offset="1.000000" stop-color="#E95CE9"/>
		</linearGradient>
		<linearGradient id="paint_linear_84_3626_0" x1="6.896423" y1="22.491257" x2="19.863312" y2="22.491257" gradientUnits="userSpaceOnUse">
			<stop stop-color="#0CBAF1"/>
			<stop offset="1.000000" stop-color="#E95CE9"/>
		</linearGradient>
		<linearGradient id="paint_linear_84_3628_0" x1="6.974487" y1="13.539137" x2="13.482172" y2="13.539137" gradientUnits="userSpaceOnUse">
			<stop stop-color="#0CBAF1"/>
			<stop offset="1.000000" stop-color="#E95CE9"/>
		</linearGradient>
		<linearGradient id="paint_linear_84_3630_0" x1="17.176819" y1="17.253002" x2="23.684504" y2="17.253002" gradientUnits="userSpaceOnUse">
			<stop stop-color="#0CBAF1"/>
			<stop offset="1.000000" stop-color="#E95CE9"/>
		</linearGradient>
		<linearGradient id="paint_linear_84_3632_0" x1="7.265076" y1="9.952051" x2="15.106779" y2="9.952051" gradientUnits="userSpaceOnUse">
			<stop stop-color="#0CBAF1"/>
			<stop offset="1.000000" stop-color="#E95CE9"/>
		</linearGradient>
		<linearGradient id="paint_linear_84_3634_0" x1="18.801270" y1="14.143494" x2="25.250504" y2="14.143494" gradientUnits="userSpaceOnUse">
			<stop stop-color="#0CBAF1"/>
			<stop offset="1.000000" stop-color="#E95CE9"/>
		</linearGradient>
		<linearGradient id="paint_linear_84_3636_0" x1="17.632385" y1="31.038769" x2="46.496948" y2="31.038769" gradientUnits="userSpaceOnUse">
			<stop stop-color="#0CBAF1"/>
			<stop offset="1.000000" stop-color="#E95CE9"/>
		</linearGradient>
		<linearGradient id="paint_linear_84_3638_0" x1="27.840332" y1="36.967819" x2="40.807220" y2="36.967819" gradientUnits="userSpaceOnUse">
			<stop stop-color="#0CBAF1"/>
			<stop offset="1.000000" stop-color="#E95CE9"/>
		</linearGradient>
		<linearGradient id="paint_linear_84_3640_0" x1="22.774292" y1="30.421879" x2="28.624260" y2="30.421879" gradientUnits="userSpaceOnUse">
			<stop stop-color="#0CBAF1"/>
			<stop offset="1.000000" stop-color="#E95CE9"/>
		</linearGradient>
		<linearGradient id="paint_linear_84_3642_0" x1="32.318726" y1="27.244364" x2="39.133564" y2="27.244364" gradientUnits="userSpaceOnUse">
			<stop stop-color="#0CBAF1"/>
			<stop offset="1.000000" stop-color="#E95CE9"/>
		</linearGradient>
		<linearGradient id="paint_linear_84_3644_0" x1="31.390198" y1="24.028223" x2="39.231899" y2="24.028223" gradientUnits="userSpaceOnUse">
			<stop stop-color="#0CBAF1"/>
			<stop offset="1.000000" stop-color="#E95CE9"/>
		</linearGradient>
	</defs>
	<path id="path3987 (Stroke)" d="M12.4317 32.2695C10.3378 32.9766 8.03339 32.1377 6.88391 30.25L6.29742 30.6074L6.88391 30.25L2.98682 23.8506C1.27521 21.04 0.934082 17.6035 2.05963 14.5117L6.02234 3.62402L5.36157 3.38379L6.02234 3.62402C6.65857 1.87598 8.59143 0.974609 10.3394 1.61133L28.1935 8.10938L28.434 7.44922L28.1935 8.10938C29.9416 8.74609 30.8429 10.6787 30.2067 12.4268L26.244 23.3145C25.1184 26.4062 22.6483 28.8193 19.5306 29.8721L12.4317 32.2695L12.4317 32.2695ZM12.8816 33.6016C10.1646 34.5195 7.17444 33.4307 5.6828 30.9814L1.78571 24.582L2.38623 24.2168L1.78571 24.582C-0.148071 21.4072 -0.533508 17.5244 0.738159 14.0303L4.70087 3.14355C5.60272 0.665039 8.34253 -0.612305 10.8204 0.290039L28.6745 6.78809C31.1524 7.68945 32.43 10.4297 31.5281 12.9072L27.5654 23.7949C26.2938 27.2891 23.503 30.0146 19.9805 31.2051L19.7708 30.584L19.9805 31.2051L12.8817 33.6016C12.8817 33.6016 12.8817 33.6016 12.8816 33.6016Z" fill="url(#paint_linear_84_3624_0)" fill-opacity="1.000000" fill-rule="evenodd"/>
	<path id="path3991 (Stroke)" d="M17.8067 23.6572C16.3843 25.3174 14.0316 26.0107 11.8566 25.2197L11.6161 25.8799L11.8566 25.2197C9.68158 24.4277 8.3252 22.3838 8.30298 20.1973C9.52521 21.2129 11.0461 22.0879 12.7681 22.7148L12.7681 22.7148C14.4901 23.3418 16.2178 23.6484 17.8067 23.6572ZM11.3757 26.541C14.66 27.7363 18.2617 26.2451 19.7889 23.1943C19.9047 22.9639 19.8842 22.6875 19.7356 22.4756C19.587 22.2646 19.3344 22.1514 19.0776 22.1816C17.3698 22.3838 15.3246 22.1484 13.2491 21.3936C11.1736 20.6377 9.45605 19.5029 8.27771 18.251C8.10059 18.0625 7.83435 17.9863 7.58453 18.0527C7.33472 18.1201 7.1416 18.3184 7.08167 18.5693C6.29059 21.8877 8.09137 25.3457 11.3756 26.541L11.3757 26.541Z" fill="url(#paint_linear_84_3626_0)" fill-opacity="1.000000" fill-rule="evenodd"/>
	<path id="path3995 (Stroke)" d="M12.9495 15.4307C13.3262 15.3369 13.5552 14.9551 13.461 14.5781C13.1639 13.3906 12.231 12.3564 10.933 11.8848L12.9495 15.4307ZM12.9495 15.4307C12.5728 15.5254 12.191 15.2959 12.0968 14.9199L12.9495 15.4307ZM12.0968 14.9199C11.9205 14.2148 11.3406 13.5293 10.452 13.2061L12.0968 14.9199ZM7.10846 13.3047C7.33649 13.6191 7.77612 13.6895 8.09052 13.4609C8.67841 13.0352 9.56335 12.8828 10.452 13.2061L10.452 13.2061L7.10846 13.3047ZM7.10846 13.3047C6.88049 12.9902 6.9505 12.5508 7.26483 12.3232L7.10846 13.3047ZM7.26483 12.3232C8.25562 11.6045 9.63495 11.4121 10.9329 11.8848L7.26483 12.3232Z" fill="url(#paint_linear_84_3628_0)" fill-opacity="1.000000" fill-rule="evenodd"/>
	<path id="path3999 (Stroke)" d="M23.1519 19.1445C23.5286 19.0508 23.7576 18.6689 23.6633 18.292C23.3663 17.1045 22.4333 16.0703 21.1353 15.5986L23.1519 19.1445ZM23.1519 19.1445C22.7751 19.2393 22.3933 19.0098 22.2991 18.6338L23.1519 19.1445ZM22.2991 18.6338C22.1229 17.9287 21.543 17.2432 20.6544 16.9199L22.2991 18.6338ZM17.3108 17.0186C17.5388 17.333 17.9784 17.4033 18.2928 17.1748C18.8807 16.749 19.7657 16.5967 20.6543 16.9199L20.6544 16.9199L17.3108 17.0186ZM17.3108 17.0186C17.0828 16.7041 17.1528 16.2646 17.4672 16.0371L17.3108 17.0186ZM17.4672 16.0371C18.458 15.3184 19.8373 15.126 21.1353 15.5986L17.4672 16.0371Z" fill="url(#paint_linear_84_3630_0)" fill-opacity="1.000000" fill-rule="evenodd"/>
	<path id="path4003 (Stroke)" d="M15.0642 10.5264C15.197 10.1611 15.0089 9.75781 14.6439 9.625C12.6169 8.8877 10.8969 8.83594 9.67084 8.97754C9.05908 9.04785 8.5719 9.16602 8.23181 9.26855C8.06171 9.32031 7.9281 9.36816 7.83386 9.40527C7.78674 9.42285 7.74939 9.43848 7.72217 9.4502C7.70856 9.45605 7.69745 9.46094 7.68896 9.46484C7.68469 9.4668 7.68109 9.46875 7.67816 9.46973L7.67419 9.47168L7.67261 9.47266L7.67188 9.47266C7.67157 9.47266 7.6712 9.47266 7.96838 10.1104L7.6712 9.47266C7.31927 9.63672 7.16699 10.0557 7.33112 10.4072C7.49475 10.7578 7.91125 10.9111 8.26257 10.749C8.2627 10.749 8.26282 10.749 8.26294 10.749C8.26459 10.748 8.26862 10.7461 8.27502 10.7432C8.28796 10.7383 8.31036 10.7285 8.34204 10.7158C8.40546 10.6914 8.50562 10.6553 8.63989 10.6143C8.90857 10.5332 9.31281 10.4346 9.8316 10.374C10.8666 10.2549 12.3642 10.292 14.163 10.9463C14.5279 11.0791 14.9314 10.8916 15.0642 10.5264ZM8.26489 10.748C8.26489 10.748 8.26495 10.748 8.26495 10.748C8.26495 10.748 8.26495 10.748 8.26495 10.748L8.26489 10.748Z" fill="url(#paint_linear_84_3632_0)" fill-opacity="1.000000" fill-rule="evenodd"/>
	<path id="path4007 (Stroke)" d="M24.8444 16.7812C25.1963 16.6172 25.3486 16.1992 25.1844 15.8477L24.5472 16.1445C25.1844 15.8477 25.1843 15.8467 25.1841 15.8467L25.1838 15.8457L25.183 15.8438L25.1812 15.8398C25.1798 15.8369 25.1781 15.834 25.176 15.8301C25.172 15.8213 25.1666 15.8105 25.16 15.7969C25.1466 15.7705 25.1279 15.7354 25.1035 15.6904C25.0548 15.6025 24.9833 15.4795 24.8862 15.3311C24.6919 15.0332 24.3946 14.6299 23.9712 14.1826C23.1227 13.2861 21.7722 12.2197 19.7451 11.4814C19.3802 11.3486 18.9767 11.5371 18.8439 11.9023C18.7111 12.2666 18.8992 12.6709 19.2641 12.8037C21.0629 13.458 22.2337 14.3926 22.9501 15.1494C23.3091 15.5283 23.5551 15.8643 23.7085 16.0996C23.7852 16.2168 23.8386 16.3086 23.8714 16.3682C23.8878 16.3984 23.8989 16.4199 23.9053 16.4326C23.9084 16.4385 23.9104 16.4424 23.9111 16.4443C23.9113 16.4443 23.9113 16.4443 23.9113 16.4443C24.0764 16.7939 24.4934 16.9453 24.8444 16.7812Z" fill="url(#paint_linear_84_3634_0)" fill-opacity="1.000000" fill-rule="evenodd"/>
	<path id="path4011 (Stroke)" d="M39.613 44.3262C38.4635 46.2139 36.1592 47.0527 34.0652 46.3457L26.9664 43.9482C26.9664 43.9482 26.9664 43.9482 26.9664 43.9482C23.8486 42.8955 21.3785 40.4824 20.2529 37.3906C20.2529 37.3906 20.2529 37.3906 20.2529 37.3906L18.9964 33.9375C18.8636 33.5732 18.4601 33.3848 18.0952 33.5176C17.7303 33.6504 17.5422 34.0537 17.675 34.4189L18.9315 37.8711L18.9315 37.8711C20.2032 41.3652 22.994 44.0908 26.5165 45.2803L26.5165 45.2803L33.6153 47.6777C36.3324 48.5957 39.3225 47.5068 40.8141 45.0576L44.7112 38.6582L44.1107 38.293L44.7112 38.6582C46.645 35.4834 47.0304 31.6006 45.7589 28.1064L41.7961 17.2197C40.8943 14.7412 38.1545 13.4639 35.6765 14.3662L35.6765 14.3662L32.527 15.5117C32.1621 15.6445 31.9739 16.0488 32.1068 16.4131C32.2396 16.7783 32.6431 16.9668 33.008 16.834L36.1575 15.6875C37.9056 15.0508 39.8385 15.9521 40.4747 17.7002L44.4374 28.5879C45.5629 31.6797 45.2217 35.1162 43.5101 37.9268L39.613 44.3262L40.2136 44.6924L39.613 44.3262Z" fill="url(#paint_linear_84_3636_0)" fill-opacity="1.000000" fill-rule="evenodd"/>
	<path id="path4015 (Stroke)" d="M28.5284 41.4062C28.7783 41.4727 29.0445 41.3965 29.2216 41.208C30.4 39.9561 32.1176 38.8213 34.193 38.0654L33.9525 37.4053L34.193 38.0654C36.2685 37.3105 38.3137 37.0752 40.0215 37.2773C40.2783 37.3076 40.5309 37.1953 40.6795 36.9834C40.8281 36.7715 40.8486 36.4961 40.7328 36.2646C39.2056 33.2139 35.6039 31.7227 32.3196 32.918L32.3195 32.918C29.0353 34.1133 27.2345 37.5713 28.0256 40.8896C28.0855 41.1406 28.2786 41.3398 28.5284 41.4062ZM29.2469 39.2617C29.2691 37.0752 30.6255 35.0312 32.8005 34.2393L32.5601 33.5791L32.8005 34.2393C34.9755 33.4482 37.3282 34.1416 38.7506 35.8027C37.1617 35.8105 35.434 36.1172 33.712 36.7441L33.712 36.7441C31.9901 37.3711 30.4691 38.2461 29.2469 39.2617ZM32.5601 33.5791L32.5589 33.5762L32.5601 33.5791Z" fill="url(#paint_linear_84_3638_0)" fill-opacity="1.000000" fill-rule="evenodd"/>
	<path id="path4019 (Stroke)" d="M26.0749 30.8633C25.3008 31.4062 24.4067 31.4893 23.7283 31.2305C23.3655 31.0918 22.9591 31.2744 22.8207 31.6367C22.6823 32 22.8641 32.4062 23.2269 32.5449C24.3704 32.9805 25.7523 32.8076 26.8829 32.0146L26.8829 32.0146C28.0134 31.2207 28.6455 29.9795 28.6237 28.7559C28.6168 28.3682 28.2964 28.0586 27.9082 28.0654C27.52 28.0723 27.2108 28.3926 27.2177 28.7812C27.2306 29.5068 26.8489 30.3203 26.075 30.8633L26.0749 30.8633Z" fill="url(#paint_linear_84_3640_0)" fill-opacity="1.000000" fill-rule="evenodd"/>
	<path id="path4023 (Stroke)" d="M32.4753 27.3535C33.2451 28.3057 34.527 28.8496 35.9032 28.7305C37.2794 28.6123 38.449 27.8564 39.0446 26.7871C39.2335 26.4482 39.1117 26.0195 38.7725 25.8311C38.4332 25.6416 38.005 25.7637 37.816 26.1025C37.4626 26.7373 36.7244 27.249 35.7823 27.3301L35.7823 27.3301C34.8401 27.4111 34.0253 27.0342 33.5685 26.4697C33.3242 26.167 32.8815 26.1211 32.5796 26.3652C32.2777 26.6094 32.231 27.0518 32.4753 27.3535Z" fill="url(#paint_linear_84_3642_0)" fill-opacity="1.000000" fill-rule="evenodd"/>
	<path id="path4027 (Stroke)" d="M31.4328 24.6025C31.5656 24.9678 31.9691 25.1553 32.334 25.0225C34.1328 24.3682 35.6303 24.3311 36.6653 24.4502C37.1841 24.5107 37.5884 24.6094 37.8571 24.6904C37.9914 24.7314 38.0916 24.7676 38.1549 24.792C38.1866 24.8047 38.209 24.8145 38.2219 24.8193C38.2283 24.8223 38.2324 24.8242 38.234 24.8252L38.2335 24.8242L38.2326 24.8242L38.2321 24.8242C38.2318 24.8232 38.2314 24.8232 38.5152 24.2148L38.2314 24.8232C38.2324 24.8242 38.2334 24.8242 38.2344 24.8252C38.2349 24.8252 38.2349 24.8252 38.2346 24.8252L38.234 24.8252C38.2342 24.8252 38.2343 24.8252 38.2344 24.8252C38.5858 24.9873 39.0022 24.834 39.1658 24.4834C39.33 24.1318 39.1777 23.7129 38.8257 23.5488L38.5286 24.1865C38.8257 23.5488 38.8254 23.5488 38.8251 23.5488L38.8244 23.5488L38.8228 23.5479L38.8188 23.5459C38.8159 23.5449 38.8123 23.543 38.808 23.541C38.7995 23.5371 38.7885 23.5322 38.7748 23.5264C38.7476 23.5146 38.7103 23.499 38.6631 23.4814C38.5688 23.4443 38.4353 23.3965 38.2652 23.3447C37.925 23.2422 37.4379 23.124 36.8262 23.0537C35.6001 22.9121 33.8801 22.9639 31.853 23.7012C31.4881 23.834 31.3 24.2373 31.4328 24.6025Z" fill="url(#paint_linear_84_3644_0)" fill-opacity="1.000000" fill-rule="evenodd"/>
</svg>
