<svg width="42.000000" height="42.000000" viewBox="0 0 42 42" fill="none" xmlns="http://www.w3.org/2000/svg" xmlns:xlink="http://www.w3.org/1999/xlink">
	<desc>
			Created with Pixso.
	</desc>
	<defs>
		<clipPath id="clip43_1512">
			<rect id="Icon/Outline/cloud" width="19.000000" height="19.000000" transform="translate(11.000000 11.000000)" fill="white" fill-opacity="0"/>
		</clipPath>
		<linearGradient id="paint_linear_43_1511_0" x1="0.000000" y1="21.000000" x2="42.000000" y2="21.000000" gradientUnits="userSpaceOnUse">
			<stop stop-color="#0CBAF1"/>
			<stop offset="1.000000" stop-color="#E95CE9"/>
		</linearGradient>
	</defs>
	<circle id="BG" cx="21.000000" cy="21.000000" r="21.000000" fill="#18181B" fill-opacity="1.000000"/>
	<circle id="BG" cx="21.000000" cy="21.000000" r="20.250000" stroke="url(#paint_linear_43_1511_0)" stroke-opacity="1.000000" stroke-width="1.500000"/>
	<g clip-path="url(#clip43_1512)">
		<path id="Icon" d="M13.375 22.875C13.375 21.3652 14.4315 20.1016 15.8456 19.7852C15.783 19.5049 15.75 19.2148 15.75 18.916C15.75 16.7305 17.5222 14.958 19.7084 14.958C21.6237 14.958 23.2212 16.3184 23.5876 18.125C23.6139 18.125 23.6403 18.125 23.6666 18.125C25.8528 18.125 27.625 19.8965 27.625 22.083C27.625 24.2695 25.8528 26.041 23.6666 26.041L16.5416 26.041C14.7927 26.041 13.375 24.624 13.375 22.875Z" stroke="#D4D4D8" stroke-opacity="1.000000" stroke-width="1.500000" stroke-linejoin="round"/>
	</g>
</svg>
