<svg width="13.333313" height="13.333984" viewBox="0 0 13.3333 13.334" fill="none" xmlns="http://www.w3.org/2000/svg" xmlns:xlink="http://www.w3.org/1999/xlink">
	<desc>
			Created with Pixso.
	</desc>
	<defs/>
	<path id="Vector" d="M12.9569 0.388672C12.6235 0.0449219 12.1299 -0.0820312 11.6697 0.0527344L0.93866 3.17383C0.453125 3.30859 0.109009 3.69531 0.0162964 4.1875C-0.0784302 4.6875 0.25238 5.32227 0.68457 5.58984L4.03992 7.65039C4.38409 7.86328 4.82825 7.81055 5.11304 7.52148L8.95526 3.65625C9.14868 3.45508 9.46881 3.45508 9.66223 3.65625C9.85565 3.85156 9.85565 4.16602 9.66223 4.36719L5.81335 8.23438C5.52789 8.52148 5.47455 8.9668 5.68463 9.31445L7.7348 12.7031C7.97485 13.1055 8.38837 13.334 8.84192 13.334C8.89526 13.334 8.95526 13.334 9.00861 13.3262C9.52887 13.2598 9.94232 12.9043 10.0958 12.4004L13.277 1.68359C13.4171 1.22656 13.2904 0.730469 12.9569 0.388672Z" fill="#FFFFFF" fill-opacity="1.000000" fill-rule="nonzero"/>
</svg>
