<svg width="60.000000" height="64.000000" viewBox="0 0 60 64" fill="none" xmlns="http://www.w3.org/2000/svg" xmlns:xlink="http://www.w3.org/1999/xlink">
	<desc>
			Created with Pixso.
	</desc>
	<defs>
		<linearGradient id="paint_linear_9_197_0" x1="0.000000" y1="32.000000" x2="60.000000" y2="32.000000" gradientUnits="userSpaceOnUse">
			<stop stop-color="#0CBAF1"/>
			<stop offset="1.000000" stop-color="#E95CE9"/>
		</linearGradient>
	</defs>
	<g opacity="0.860000">
		<path id="Vector" d="M35.5696 44.3467C35.5921 44.3828 35.6053 44.4229 35.6116 44.4648C35.6177 44.5068 35.6146 44.5488 35.6038 44.5898C35.5921 44.6309 35.5735 44.6689 35.5471 44.7031C35.5207 44.7363 35.4888 44.7637 35.4515 44.7842C32.4375 46.4951 29.2891 47.9082 26.0071 49.0225C27.5401 50.7393 26.9639 58.959 26.4753 63.7188C26.4715 63.7568 26.4614 63.7939 26.4435 63.8281C26.4257 63.8633 26.4023 63.8936 26.3736 63.9199C26.3449 63.9453 26.3123 63.9658 26.2758 63.9795C26.2393 63.9941 26.2012 64.001 26.1624 64L26.1321 64C26.0886 63.9971 26.0482 63.9854 26.0102 63.9648C25.9721 63.9453 25.9387 63.918 25.9116 63.8848C25.8843 63.8506 25.8649 63.8135 25.8533 63.7725C25.8409 63.7305 25.8378 63.6885 25.8424 63.6465C27.1805 50.5869 25.5582 49.4297 25.444 49.3574C25.371 49.3477 25.3089 49.3164 25.2584 49.2637C23.4543 49.8672 21.616 50.3389 19.7444 50.6758C19.2815 50.7773 18.814 50.8281 18.3403 50.8301C16.7901 50.8301 15.3976 50.2588 14.5961 49.2334C13.8428 48.2705 13.2534 46.5098 14.6334 43.5459C14.0883 43.1094 12.8488 41.8164 13.8211 39.7979C13.8475 39.7432 13.8864 39.7002 13.9376 39.668C13.9888 39.6357 14.0447 39.6201 14.1053 39.6201L19.3173 39.6201C19.3569 39.624 19.3941 39.6338 19.4299 39.6514C19.4648 39.6689 19.4966 39.6924 19.5231 39.7207C19.5494 39.75 19.5704 39.7832 19.5844 39.8193C19.5992 39.8564 19.6061 39.8945 19.6061 39.9346C19.6061 39.9736 19.5992 40.0117 19.5844 40.0479C19.5704 40.0859 19.5494 40.1182 19.5231 40.1475C19.4966 40.1768 19.4648 40.1992 19.4299 40.2168C19.3941 40.2344 19.3569 40.2441 19.3173 40.248L14.3158 40.248C14.2568 40.374 14.2094 40.5049 14.1744 40.6406C14.1395 40.7764 14.1162 40.9131 14.1061 41.0527C14.096 41.1924 14.0983 41.3311 14.1139 41.4697C14.1286 41.6084 14.1566 41.7441 14.1962 41.8789C14.2366 42.0117 14.2886 42.1416 14.3515 42.2656C14.4152 42.3896 14.4897 42.5078 14.5744 42.6191C14.6599 42.7295 14.7538 42.832 14.8578 42.9258C14.9612 43.0195 15.073 43.1025 15.1918 43.1768C15.2252 43.1963 15.2548 43.2227 15.2788 43.2539C15.3029 43.2852 15.3207 43.3193 15.3316 43.3574C15.3425 43.3955 15.3464 43.4346 15.3433 43.4736C15.3401 43.5127 15.3293 43.5498 15.3122 43.5859C14.2172 45.8096 14.1426 47.6279 15.0932 48.835C15.9847 49.9736 17.7671 50.4512 19.6326 50.0488C19.7227 50.0332 26.8963 48.9082 35.1362 44.2197C35.1735 44.1992 35.2131 44.1855 35.2551 44.1816C35.2978 44.1768 35.3389 44.1797 35.3801 44.1924C35.4205 44.2041 35.4578 44.2236 35.4904 44.25C35.5238 44.2764 35.5502 44.3096 35.5696 44.3467ZM50.6027 43.0605C50.0466 46.7607 52.5233 53.3516 56.491 58.7314C56.5159 58.7646 56.533 58.8018 56.543 58.8418C56.5532 58.8828 56.5547 58.9229 56.5493 58.9639C56.543 59.0049 56.5291 59.043 56.5073 59.0791C56.4863 59.1143 56.4584 59.1436 56.425 59.1689C56.3916 59.1934 56.3551 59.2109 56.3147 59.2197C56.2744 59.2295 56.2339 59.2324 56.1928 59.2256C56.1516 59.2197 56.1136 59.2061 56.0779 59.1846C56.0421 59.1631 56.0126 59.1357 55.987 59.1035C51.8639 53.5146 49.3942 46.8789 49.9829 42.9668C50.1732 41.6982 51.2201 39.3516 52.232 37.083C52.9326 35.5146 53.6556 33.8945 54.0431 32.7393C54.0416 32.7314 54.0416 32.7217 54.0431 32.7129C54.1021 32.5801 54.1588 32.4443 54.2155 32.3086L49.4509 32.3086C49.4595 32.3809 49.4447 32.4463 49.4075 32.5078C49.0184 33.1562 48.5765 33.7656 48.0802 34.3369C47.9684 34.7734 47.3378 37.0107 45.9468 37.7148C45.668 37.8604 45.3705 37.9336 45.056 37.9346C44.7399 37.9297 44.4379 37.8633 44.1497 37.7344C42.9141 37.2051 43.0391 35.9346 43.2737 35.3291C43.2908 35.293 43.3141 35.2617 43.3436 35.2354C43.3723 35.208 43.4057 35.1865 43.443 35.1719C43.4803 35.1582 43.5183 35.1514 43.5587 35.1514C43.5983 35.1514 43.6371 35.1582 43.6736 35.1729C43.7109 35.1875 43.7443 35.209 43.7731 35.2354C43.8026 35.2637 43.8251 35.2949 43.8422 35.3311C43.8593 35.3672 43.8694 35.4053 43.8724 35.4443C43.8748 35.4844 43.8701 35.5225 43.8585 35.5605C43.8119 35.6787 43.4313 36.7354 44.3928 37.1484C44.5916 37.248 44.8029 37.2979 45.025 37.2979C45.2479 37.2979 45.4591 37.248 45.6579 37.1484C46.9153 36.5127 47.476 34.1396 47.4822 34.1152C47.4931 34.0674 47.514 34.0244 47.5459 33.9863C48.0056 33.459 48.4196 32.8975 48.7877 32.3018L43.8119 32.3018C43.7847 32.3027 43.7575 32.2988 43.7311 32.291C43.2442 32.1465 42.7859 31.9395 42.3557 31.6689C41.9263 31.3984 41.5403 31.0752 41.2001 30.6992C41.1403 30.7617 41.0673 30.7949 40.9811 30.7979L39.6228 30.7979C38.6862 32.3633 37.5671 33.4219 36.2662 33.4219L36.1831 33.4219C35.7451 33.6826 33.774 34.8125 31.8977 34.8125C31.7642 34.8125 31.6282 34.8125 31.4947 34.793C31.16 34.9482 30.8081 35.0273 30.4392 35.0342C30.3655 35.0342 30.2925 35.0293 30.2202 35.0186L10.1088 33.9385C10.1313 33.9531 10.1508 33.9707 10.1686 33.9902C10.915 34.9727 13.0981 35.0391 13.8778 34.9785C13.9252 34.9746 13.9717 34.9824 14.016 34.999C14.061 35.0156 14.0999 35.042 14.1325 35.0771C14.1652 35.1123 14.1884 35.1523 14.2024 35.1982C14.2164 35.2441 14.2203 35.291 14.2125 35.3379C14.1232 35.9502 13.9935 37.7148 14.4059 38.5088C14.4245 38.5459 14.4362 38.585 14.4401 38.627C14.444 38.668 14.4401 38.708 14.4276 38.749C14.4152 38.7881 14.3958 38.8242 14.3694 38.8555C14.343 38.8887 14.3112 38.9141 14.2739 38.9336C14.2288 38.959 14.1799 38.9717 14.1271 38.9707C14.0696 38.9707 14.0153 38.9551 13.9655 38.9258C13.9158 38.8965 13.877 38.8555 13.8491 38.8047C13.3831 37.9297 13.4724 36.3418 13.5446 35.6201C12.6694 35.6348 10.5515 35.5371 9.66693 34.3691C9.64209 34.3359 9.62421 34.2988 9.61414 34.2588C9.60327 34.2197 9.60095 34.1787 9.60712 34.1377C9.61255 34.0967 9.62579 34.0576 9.64673 34.0225C9.66772 33.9863 9.69489 33.9561 9.72827 33.9316C9.72827 33.9316 9.74384 33.9316 9.75006 33.9209L5.90729 33.7129C5.8017 33.7129 3.2373 33.6406 2.98566 32.0332C0.660461 31.4795 0.471741 28.9004 0.460876 28.6709C-0.0400391 23.8516 -0.132446 19.0244 0.182861 14.1885C0.24884 12.4736 1.76636 11.916 2.31158 11.8506L2.63074 11.793C2.89166 11.4287 3.77161 10.4619 5.96869 10.1396C6.04089 10.1396 10.4879 9.53613 17.2111 9.2168C21.2922 3.1084 30.0408 -0.257812 36.1482 0.015625C44.3509 0.385742 51.356 4.38965 54.9339 10.7324L55.8425 10.6514C55.8045 10.4102 55.8115 10.1709 55.8627 9.93262C55.9148 9.69336 56.0079 9.47363 56.1431 9.26953C56.4273 8.89551 56.8723 8.69922 57.4564 8.68359L57.52 8.68359C59.5874 8.68359 59.7474 11.3623 59.8654 13.3242C60.1108 17.3926 60.0208 20.623 59.5936 23.1992C58.9871 26.8779 57.9954 29.6514 55.0372 31.9473C54.9036 32.2861 54.7654 32.623 54.6209 32.9512C54.2249 34.1348 53.5259 35.6914 52.7943 37.3389C51.8096 39.5693 50.7797 41.875 50.6027 43.0605ZM56.6091 17.4248L48.7652 18.252C48.5104 18.4102 48.2339 18.4736 47.9357 18.4395L46.4027 18.4971C46.1759 20.1396 45.7954 21.7461 45.261 23.3164C44.7267 24.8877 44.048 26.3936 43.2255 27.834C43.4259 28.0928 43.6667 28.3076 43.9485 28.4756C44.2297 28.6436 44.5326 28.7539 44.8564 28.8066C45.7325 28.9932 48.5159 29.0254 50.5367 29.0254C50.525 28.9648 50.5312 28.9062 50.5545 28.8486C51.1874 27.2979 51.297 25.9326 50.8566 25.1045C50.7409 24.8848 50.5825 24.7021 50.3806 24.5566C50.1794 24.4111 49.9565 24.3184 49.7111 24.2773C46.8492 23.665 46.1223 26.2832 46.0936 26.3945C46.0851 26.4365 46.068 26.4756 46.0432 26.5107C46.0175 26.5449 45.9872 26.5742 45.95 26.5967C45.9135 26.6191 45.8738 26.6338 45.8311 26.6396C45.7884 26.6465 45.7465 26.6436 45.7045 26.6318C45.6626 26.6211 45.6253 26.6025 45.5911 26.5762C45.5569 26.5488 45.5298 26.5176 45.5096 26.4795C45.4886 26.4424 45.4762 26.4014 45.4716 26.3584C45.4677 26.3154 45.4723 26.2734 45.4855 26.2324C45.4855 26.2002 46.3981 22.9277 49.8431 23.6631C50.0078 23.6943 50.167 23.7432 50.3207 23.8115C50.4745 23.8779 50.619 23.9619 50.7541 24.0615C50.8892 24.1611 51.0112 24.2754 51.1207 24.4023C51.2302 24.5293 51.3234 24.667 51.4018 24.8154C51.9323 25.8125 51.8398 27.3086 51.1502 29.0303C51.9276 29.0303 52.5124 29.0303 52.698 29.0303C52.9916 28.8945 54.6691 28.0107 56.0988 25.0625C56.1804 24.5811 56.7885 20.4551 56.6091 17.4248ZM47.9265 17.8125L47.9598 17.8125C48.3101 17.8301 48.4149 17.749 48.4258 17.7266L48.4258 13.9238C42.9669 10.8984 36.6491 10.0615 33.7259 9.84277C34.0366 10.1016 34.2889 10.4072 34.4847 10.7607C34.6796 11.1152 34.8038 11.4922 34.8582 11.8916C35.5439 17.0127 35.5968 22.1416 35.0182 27.2764C34.6284 30.6465 33.7655 32.9619 32.4538 34.1699C34.1771 33.9512 35.916 32.873 35.9354 32.8574L35.9595 32.8574C38.1231 31.7285 38.3685 28.2188 38.3685 28.1836L38.8066 20.8291C38.8571 18.1797 41.3484 18.0684 41.3725 18.0684L47.9265 17.8125ZM57.9169 16.0361L57.5946 11.1543L45.9429 12.0293C46.9587 12.4502 47.9451 12.9297 48.9034 13.4688C48.9531 13.4971 48.9919 13.5352 49.0207 13.584C49.0494 13.6328 49.0634 13.6855 49.0634 13.7422L49.0634 17.5918L56.8785 16.7666C57.9169 16.6074 57.9169 16.043 57.9169 16.0361ZM36.1194 0.643555C35.7451 0.62793 35.3599 0.624023 34.9677 0.643555C32.8017 1.06934 27.9711 2.70996 23.4124 9.04199C25.7663 9.01367 28.2709 9.04199 30.8571 9.12109C30.9122 9.12109 30.9689 9.12109 31.0303 9.13574C31.33 9.11035 31.629 9.11426 31.928 9.14844C31.9661 9.13379 32.0057 9.12598 32.0461 9.12695C36.3423 9.28027 40.5159 10.0732 44.5676 11.5068L54.2272 10.7803C50.723 4.77441 43.9921 0.998047 36.1194 0.643555ZM18.0009 9.18652C19.5688 9.11816 21.2534 9.06836 23.0248 9.04199C26.2346 4.50781 29.5764 2.34082 31.8364 1.3125C32.3334 1.09375 32.7979 0.907227 33.2266 0.761719C27.8135 1.42676 21.4258 4.3916 18.0009 9.18652ZM3.72577 11.6113C5.61145 11.3115 9.14581 10.8096 12.9233 10.5908C17.8347 10.3037 25.0541 10.1523 25.4883 10.1523C25.736 10.1338 25.983 10.1377 26.23 10.1689C26.4769 10.1992 26.7177 10.2549 26.953 10.334C27.1883 10.4131 27.4135 10.5156 27.6287 10.6406C27.843 10.7666 28.0426 10.9121 28.2274 11.0781C30.0144 12.585 30.9208 15.625 30.9208 20.1133C30.9208 25.0342 30.3802 28.6738 29.3178 30.9346C28.8651 31.8975 28.403 32.4092 28.0612 32.6846L30.4959 32.8037C31.5141 31.8604 32.1625 29.0713 32.3287 28.0508C33.6669 19.8047 32.5765 11.5635 32.5656 11.4824C32.401 10.1289 31.4178 9.8291 31.0193 9.76367C30.9976 9.76562 30.9759 9.76562 30.9534 9.76367L30.8555 9.76367C22.5643 9.47266 14.2987 9.80469 6.05798 10.7607C5.21222 10.8584 4.43481 11.1416 3.72577 11.6113ZM3.72577 31.5146L6.10382 29.3721C6.16595 29.3154 6.23895 29.2881 6.32281 29.29L18.5507 29.5654C18.5934 29.5684 18.6346 29.5771 18.6734 29.5947C20.4402 30.4102 22.1473 31.3359 23.7952 32.3691L27.3995 32.3691C27.6776 32.2432 30.2839 30.7773 30.2839 20.1221C30.2839 14.7744 28.9412 12.5176 27.8158 11.5684C26.6905 10.6191 25.5714 10.7852 25.5605 10.7871L25.5147 10.7871C25.4401 10.7871 17.9814 10.9297 12.9536 11.2246C9.41687 11.4414 5.90265 11.8555 2.41174 12.4668L2.39001 12.4668C2.37677 12.4668 0.868591 12.6855 0.811096 14.2168C0.500488 19.0244 0.596008 23.8252 1.09845 28.6172C1.10083 28.6279 1.10083 28.6396 1.09845 28.6514C1.09845 28.7549 1.19012 31.3789 3.72577 31.5215L3.72577 31.5146ZM18.47 30.2031L6.42609 29.9287L4.60181 31.5625L22.7095 32.4268C20.8697 31.3174 18.8358 30.3691 18.4614 30.2002L18.47 30.2031ZM31.2974 34.209C31.452 34.1328 31.598 34.042 31.7354 33.9385C32.6642 33.2422 33.875 31.5107 34.3744 27.2012C34.946 22.126 34.8939 17.0576 34.2191 11.9951C34.0001 10.708 33.2358 10.1445 32.5237 9.90625C32.7101 10.1152 32.8592 10.3467 32.9718 10.6025C33.0836 10.8584 33.1536 11.126 33.1807 11.4043C33.1807 11.4824 34.2928 19.8135 32.9423 28.1523C32.9136 28.3174 32.2674 32.1846 30.7941 33.3701C30.7359 33.415 30.6707 33.4385 30.5969 33.4395L30.5814 33.4395L3.81818 32.1504L3.66052 32.1504C4.05432 33.0264 5.8941 33.0957 5.91583 33.0957L30.2575 34.4082L30.2986 34.4082C30.6489 34.4395 30.979 34.373 31.2889 34.207L31.2974 34.209ZM42.7697 18.6309L41.3904 18.6787C41.3112 18.6787 39.4698 18.7793 39.4302 20.835L38.9813 28.2139C38.9813 28.3418 38.8066 30.7988 37.449 32.4248C40.2495 30.5156 42.1655 22.3086 42.7611 18.6279L42.7697 18.6309ZM40.8273 30.1826C44.6157 25.625 45.5725 19.9756 45.7635 18.5254L43.4026 18.6104C43.2643 19.4678 42.1476 26.0801 39.9715 30.1826L40.8273 30.1826ZM43.8585 31.6875L54.3584 31.6875C57.3934 29.4697 58.3806 26.7559 58.9855 23.1025C59.4033 20.5723 59.4888 17.3877 59.248 13.3682C59.1144 11.1523 58.8907 9.31738 57.5247 9.31738L57.4851 9.31738C57.3267 9.30566 57.1736 9.3291 57.0269 9.38867C56.8793 9.44727 56.7527 9.53613 56.6464 9.6543C56.5594 9.79785 56.5004 9.95117 56.4708 10.1162C56.4406 10.2812 56.4421 10.4453 56.4731 10.6094L57.8532 10.5049C57.9402 10.499 58.0171 10.5234 58.0831 10.582C58.1491 10.6396 58.1848 10.7129 58.1902 10.8008L58.5452 16.0059C58.5452 16.0537 58.5801 17.0186 57.2311 17.3398C57.437 20.6211 56.752 25.0146 56.7209 25.2139C56.7162 25.2432 56.7077 25.2725 56.6945 25.2988C55.017 28.7979 52.9722 29.6123 52.8821 29.6445C52.8479 29.6562 52.8129 29.6631 52.7772 29.6641C52.6832 29.6641 51.8398 29.6748 50.723 29.6748C48.6666 29.6748 45.6866 29.6377 44.7205 29.4346C44.3664 29.3691 44.0309 29.25 43.7148 29.0762C43.3995 28.9023 43.1191 28.6826 42.8753 28.417C42.4839 29.043 42.0606 29.6445 41.6047 30.2246C41.9053 30.5674 42.247 30.8623 42.6299 31.1094C43.0128 31.3574 43.422 31.5469 43.8585 31.6807L43.8585 31.6875Z" fill="url(#paint_linear_9_197_0)" fill-opacity="1.000000" fill-rule="nonzero"/>
	</g>
</svg>
